<svg width="168" height="320" viewBox="0 0 168 320" fill="none" xmlns="http://www.w3.org/2000/svg">
<path fill-rule="evenodd" clip-rule="evenodd" d="M74.5 43.5C74.7762 43.5 75 43.7239 75 44V51C75 51.176 74.9075 51.3391 74.7563 51.4293L65.9257 56.6998L70.5566 58.2377C70.8187 58.3247 70.9606 58.6077 70.8735 58.8698C70.7865 59.1319 70.5035 59.2738 70.2414 59.1867L64.6282 57.3226C60.4667 56.9356 54.2653 57.4643 49.1164 60.2737C43.9903 63.0706 39.8773 68.139 39.8641 76.9526C40.9337 83.1695 40.3302 87.6385 39.8541 89.2018L36.9957 110.67C36.9848 110.751 36.9542 110.828 36.9065 110.895C34.2535 114.598 32.5166 117.591 31.2977 120.778C30.0783 123.965 29.3682 127.37 28.7955 131.907L28.795 131.91C28.725 132.437 28.6488 133.017 28.5673 133.637C28.1789 136.591 27.6713 140.453 27.1406 143.885C26.8197 145.96 26.489 147.888 26.1696 149.367C26.0101 150.106 25.8512 150.743 25.6951 151.235C25.6172 151.481 25.537 151.7 25.4541 151.881C25.3759 152.051 25.2764 152.231 25.144 152.363C24.9531 152.554 24.7691 152.726 24.5934 152.882C24.6793 152.882 24.7643 152.884 24.8478 152.888C25.2388 152.906 25.6525 152.969 25.9849 153.14C26.3454 153.325 26.6404 153.659 26.6404 154.16C26.6404 154.436 26.4166 154.66 26.1404 154.66C25.8643 154.66 25.6404 154.436 25.6404 154.16L25.6404 154.158C25.6405 154.122 25.6406 154.087 25.5285 154.029C25.3858 153.956 25.1418 153.902 24.8019 153.887C24.1342 153.856 23.3063 153.98 22.7442 154.11C22.7342 154.112 22.7241 154.114 22.714 154.116L19.6483 154.625L12.7488 162.292C12.7353 162.307 12.7209 162.321 12.7057 162.334L8.51133 165.991C8.48117 166.191 8.50843 166.405 8.61416 166.553C8.7182 166.698 9.01469 166.935 9.89327 166.838C11.6868 166.639 13.1389 165.942 13.668 165.607L15.7822 163.238C15.8245 163.19 15.8755 163.151 15.9323 163.123C16.1833 162.998 16.4876 162.878 16.7919 162.812C17.0792 162.75 17.4512 162.718 17.779 162.867C17.9549 162.947 18.1114 163.076 18.2205 163.262C18.3268 163.443 18.3716 163.649 18.3756 163.861C18.3833 164.27 18.2398 164.777 17.9595 165.391C17.2731 166.896 16.4517 168.327 15.7692 169.415C15.4276 169.96 15.1192 170.421 14.8777 170.764C14.6485 171.091 14.4539 171.349 14.3492 171.453C14.3508 171.451 14.3504 171.452 14.3504 171.452C14.3475 171.456 14.3293 171.478 14.2923 171.53C14.2508 171.589 14.1986 171.668 14.1373 171.765C14.0148 171.957 13.8646 172.205 13.7049 172.476C13.3943 173.001 13.0555 173.598 12.8315 173.999C12.6629 174.444 12.5028 174.953 12.4024 175.426C12.2957 175.929 12.2715 176.325 12.3249 176.56C12.3436 176.642 12.3653 176.675 12.3726 176.685C12.3829 176.687 12.4063 176.69 12.4505 176.686C12.6758 176.661 13.1304 176.466 13.9036 175.857L17.6477 170.794C17.9495 170.401 18.3093 169.98 18.6599 169.649C18.8347 169.484 19.0177 169.331 19.1987 169.215C19.3682 169.106 19.5898 168.993 19.8317 168.98C19.9623 168.972 20.1078 168.994 20.2473 169.069C20.3874 169.144 20.4891 169.256 20.5586 169.379C20.6874 169.606 20.7183 169.889 20.7125 170.169C20.7006 170.744 20.5217 171.614 20.1418 172.858C20.1364 172.876 20.1301 172.893 20.1229 172.91L17.714 178.509C17.634 178.9 17.5751 179.344 17.5677 179.754C17.5597 180.196 17.613 180.538 17.7115 180.741C17.7571 180.835 17.8002 180.874 17.8277 180.891C17.85 180.904 17.8953 180.924 17.9952 180.914C18.2165 180.889 18.6147 180.722 19.2414 180.21L21.8936 173.075C21.8984 173.063 21.9037 173.05 21.9095 173.038C22.0735 172.687 22.2787 172.301 22.4948 171.976C22.6028 171.813 22.7195 171.657 22.8414 171.525C22.957 171.4 23.1075 171.264 23.2884 171.185C23.491 171.096 23.7692 171.069 24.0211 171.249C24.2307 171.399 24.3323 171.635 24.3892 171.836C24.5064 172.25 24.5349 172.897 24.4806 173.817C24.2702 177.38 24.0422 179.545 23.9445 180.255C23.9673 180.52 24.0209 180.792 24.1062 181.012C24.2025 181.261 24.3056 181.36 24.3651 181.389C24.3863 181.399 24.4935 181.449 24.7781 181.266C25.0561 181.088 25.4332 180.726 25.9159 180.07L26.1805 172.426C26.1818 172.388 26.1874 172.35 26.1972 172.314C26.2919 171.96 26.4229 171.563 26.581 171.215C26.66 171.041 26.75 170.871 26.8511 170.721C26.9489 170.577 27.0752 170.425 27.2358 170.315C27.4056 170.2 27.6422 170.117 27.9093 170.187C28.1585 170.253 28.3364 170.428 28.4611 170.606C28.7043 170.954 28.896 171.53 29.0595 172.345C29.0676 172.385 29.0707 172.427 29.0686 172.468L28.803 177.76C28.8837 178.023 28.9938 178.297 29.1244 178.524C29.2763 178.789 29.4167 178.924 29.5104 178.968C29.5456 178.984 29.5671 178.985 29.5866 178.982C29.6104 178.978 29.668 178.961 29.7595 178.884C29.9469 178.727 30.2035 178.381 30.5012 177.709L30.7682 168.933C30.7708 168.848 30.7949 168.765 30.8382 168.692C31.5396 167.513 32.4908 165.538 33.0524 163.473C33.621 161.382 33.7546 159.327 32.9861 157.891C32.9757 157.872 32.9667 157.852 32.959 157.831C32.8403 157.516 32.608 157.101 32.3204 156.847C32.1811 156.725 32.0524 156.66 31.9382 156.641C31.8347 156.623 31.7017 156.634 31.5245 156.74C31.2875 156.882 30.9805 156.805 30.8388 156.568C30.6971 156.331 30.7744 156.024 31.0114 155.882C31.374 155.665 31.7469 155.593 32.1073 155.655C32.4569 155.715 32.7499 155.893 32.9817 156.097C33.1289 156.227 33.2606 156.376 33.3766 156.531C37.1304 148.023 44.6509 130.984 47.7876 123.901C48.3399 120.731 49.6482 116.222 50.8667 112.292C51.3827 110.627 51.8846 109.06 52.3087 107.736C52.3897 107.483 52.4678 107.239 52.5427 107.005C53.0139 105.531 53.3468 104.474 53.4504 104.036C53.4514 104.031 53.4525 104.027 53.4537 104.023C53.4545 104.019 53.4554 104.016 53.4563 104.013L53.9905 102.15L54.4756 99.7336C53.6545 98.7985 52.704 96.9566 52.1447 94.1874C51.539 91.1884 51.3843 87.0681 52.3658 81.7442C52.4158 81.4726 52.6766 81.293 52.9481 81.3431C53.2197 81.3932 53.3993 81.6539 53.3492 81.9255C52.3876 87.1411 52.5477 91.1316 53.1249 93.9895C53.6835 96.7549 54.6255 98.4294 55.2924 99.1461C58.6278 100.284 63.7105 101.386 68.3778 101.298C73.1375 101.209 77.2369 99.8951 78.8342 96.414C78.9493 96.163 79.2461 96.0529 79.4971 96.1681C79.7481 96.2832 79.8582 96.5801 79.743 96.831C77.886 100.878 73.2226 102.208 68.3965 102.298C63.7815 102.384 58.8082 101.348 55.395 100.234L55.0036 102.185C56.0663 104.107 58.1189 109.316 58.7529 116.475C58.7548 116.495 58.7553 116.516 58.7545 116.537L58.2151 131.316V138.835C58.2151 138.868 58.2118 138.901 58.2052 138.934C58.0021 139.937 57.7792 141.061 57.5441 142.247C57.1562 144.203 56.7352 146.326 56.3156 148.347C54.683 156.207 55.1148 168.355 56.1186 179.267C57.121 190.166 58.6854 199.75 59.2828 202.448C59.6737 204.213 60.4833 206.688 61.389 209.457C61.8666 210.917 62.371 212.459 62.8548 214.021C63.5502 216.268 64.1979 218.543 64.6447 220.64C65.0901 222.73 65.3435 224.676 65.2304 226.252C65.2285 226.279 65.2244 226.306 65.2181 226.332C64.1872 230.664 62.8423 237.512 62.1592 243.967C61.8176 247.196 61.6429 250.313 61.7525 252.962C61.863 255.632 62.2604 257.75 63.0055 259.037C63.0229 259.067 63.0372 259.099 63.048 259.132C64.9378 264.914 67.759 273.723 70.0812 281.357C71.2421 285.173 72.2795 288.699 73.0135 291.408C73.3804 292.762 73.6729 293.916 73.8673 294.803C73.9645 295.247 74.0384 295.629 74.0847 295.939C74.1271 296.222 74.1529 296.483 74.1373 296.683C74.1296 297.704 73.6045 298.792 72.9056 299.869C72.2277 300.912 71.3307 302.025 70.4228 303.151L70.2823 303.325C69.3187 304.521 68.3487 305.736 67.5685 306.95C66.7993 308.146 66.2395 309.303 66.0442 310.398C66.0916 311.094 66.222 312.009 66.4484 312.617C66.5509 312.892 66.6436 313.022 66.6924 313.07C66.7164 313.056 66.7549 313.028 66.8077 312.975C67.278 312.507 67.8089 311.573 68.2925 310.531C68.767 309.509 69.1651 308.451 69.3851 307.794C69.4727 307.532 69.756 307.39 70.0179 307.478C70.2798 307.566 70.421 307.849 70.3334 308.111C70.1036 308.798 69.6921 309.891 69.1996 310.952C68.7791 311.858 68.2753 312.795 67.7504 313.424C67.9667 313.877 68.2639 314.369 68.5681 314.665C68.7577 314.849 68.8774 314.885 68.9232 314.887C68.9298 314.887 69.0195 314.895 69.1738 314.665C70.0172 313.404 71.479 310.601 72.1111 309.341C72.2349 309.094 72.5354 308.995 72.7822 309.118C73.029 309.242 73.1287 309.543 73.0048 309.79C72.4241 310.947 71.105 313.484 70.2111 314.903C70.4355 315.137 70.7114 315.349 70.9749 315.436C71.1401 315.491 71.2743 315.489 71.3909 315.442C71.5103 315.394 71.6771 315.272 71.8543 314.963C72.7302 313.436 74.5773 310.712 75.3858 309.549C75.5433 309.322 75.8549 309.266 76.0817 309.424C76.3084 309.581 76.3645 309.893 76.207 310.12C75.4414 311.221 73.7731 313.681 72.8728 315.201C73.1695 315.639 73.5849 316.087 74.0111 316.294C74.2497 316.41 74.4592 316.436 74.6505 316.38C74.8449 316.323 75.1001 316.16 75.3808 315.74C76.0373 314.759 76.6026 313.548 77.1129 312.455C77.2113 312.244 77.3077 312.038 77.4023 311.838C77.6871 311.237 77.9639 310.682 78.2294 310.292C78.3605 310.1 78.5127 309.911 78.6895 309.78C78.8723 309.644 79.1482 309.524 79.4622 309.629C79.7243 309.716 79.8662 309.999 79.7792 310.261C79.7049 310.484 79.4877 310.621 79.2627 310.601C79.217 310.642 79.1476 310.72 79.0559 310.855C78.8407 311.171 78.5946 311.658 78.3059 312.267C78.2168 312.454 78.1244 312.653 78.0285 312.858C77.5793 313.822 77.0554 314.945 76.4545 315.918C77.2269 316.536 78.2939 317.182 79.3199 317.412C79.9027 317.543 80.4354 317.533 80.8883 317.346C81.331 317.163 81.7563 316.788 82.0903 316.075C82.8381 314.479 83.1545 313.472 83.2581 312.874C83.3048 312.605 83.3037 312.444 83.2932 312.361C83.1871 312.268 83.1226 312.132 83.1226 311.985V288.863C83.1226 288.863 83.1221 288.86 83.121 288.848C83.118 288.82 83.1104 288.745 83.0935 288.604C83.0726 288.429 83.0424 288.188 83.0046 287.882C82.9291 287.271 82.8245 286.415 82.7082 285.368C82.4756 283.274 82.1964 280.417 82.0102 277.23C81.6406 270.903 81.6329 263.213 83.1185 257.624L82.001 239.691C81.9994 239.665 81.9998 239.639 82.0023 239.613L83.1226 227.806C83.1224 226.711 83.1124 225.275 83.1009 223.644C83.0724 219.577 83.0353 214.297 83.1226 210.079V170.276C81.8542 170.234 80.3486 170.009 79.1094 169.431C78.4015 169.101 77.7557 168.645 77.2997 168.017C76.8376 167.382 76.5913 166.598 76.6466 165.663C76.6629 165.387 76.8995 165.177 77.1752 165.193C77.4508 165.209 77.6611 165.446 77.6448 165.722C77.6028 166.434 77.7873 166.987 78.1086 167.429C78.4361 167.88 78.9264 168.242 79.5319 168.525C80.7513 169.093 82.3361 169.289 83.6206 169.284C83.6294 169.284 83.6381 169.284 83.6469 169.284C83.6506 169.284 83.6543 169.285 83.6581 169.285C83.7973 169.295 83.9259 169.292 84.0818 169.288C84.184 169.286 84.2979 169.283 84.4341 169.284C85.7205 169.289 87.3056 169.1 88.525 168.538C89.1304 168.259 89.62 167.901 89.9469 167.453C90.2675 167.014 90.452 166.463 90.4099 165.751C90.3936 165.475 90.6039 165.239 90.8796 165.222C91.1552 165.206 91.3919 165.416 91.4082 165.692C91.4634 166.627 91.2171 167.41 90.7543 168.043C90.2978 168.668 89.6512 169.12 88.9433 169.447C87.7042 170.017 86.1991 170.236 84.9322 170.277V227.796L86.5468 239.592C86.5509 239.622 86.5523 239.652 86.5509 239.682L85.7456 257.6C87.1287 261.585 87.4437 266.465 87.2616 271.784C87.0963 276.611 86.519 281.843 85.9337 287.146C85.8695 287.729 85.8051 288.312 85.7411 288.896L85.2019 311.997C85.1916 312.44 85.3427 313.064 85.5656 313.703C85.7753 314.303 86.0296 314.866 86.2049 315.21C87.1562 316.418 88.4037 316.751 89.6272 316.669C90.7527 316.593 91.8339 316.162 92.5589 315.743C92.5284 315.251 92.4171 314.558 92.1649 313.846C91.8608 312.988 91.3675 312.145 90.6098 311.579C90.3885 311.414 90.3432 311.1 90.5085 310.879C90.6738 310.658 90.9871 310.613 91.2083 310.778C92.1777 311.502 92.7639 312.542 93.1075 313.512C93.4039 314.349 93.5315 315.165 93.561 315.754C94.8472 316.632 95.4667 316.516 95.7461 316.377C95.9197 316.291 96.0508 316.155 96.1696 316.008C96.1839 315.99 96.2054 315.962 96.229 315.932C96.2558 315.897 96.2853 315.859 96.3108 315.827C96.2011 315.196 95.9647 314.303 95.5684 313.437C95.1106 312.436 94.4711 311.541 93.6355 311.078C93.3939 310.945 93.3064 310.64 93.4401 310.399C93.5739 310.157 93.8781 310.07 94.1197 310.203C95.2271 310.816 95.982 311.937 96.4777 313.021C96.9333 314.016 97.1968 315.038 97.3123 315.753C97.8958 316.204 98.1988 316.126 98.3289 316.059C98.517 315.961 98.6758 315.72 98.7614 315.458C98.624 314.762 98.3704 313.753 98.0317 312.862C97.8525 312.39 97.6559 311.968 97.4499 311.647C97.2342 311.31 97.0522 311.154 96.9309 311.105C96.6744 311.003 96.5493 310.712 96.6516 310.456C96.7538 310.199 97.0446 310.074 97.3011 310.176C97.7196 310.343 98.0436 310.72 98.2918 311.107C98.5496 311.509 98.7747 312.002 98.9665 312.507C99.3134 313.42 99.5727 314.431 99.7219 315.162C100.115 315.352 100.484 315.288 100.836 315.096C101.169 314.913 101.462 314.623 101.667 314.357L99.3632 309.511C99.2446 309.262 99.3506 308.964 99.6 308.845C99.8494 308.726 100.148 308.832 100.266 309.082L102.475 313.728C102.495 313.699 102.515 313.666 102.537 313.627C102.75 313.252 102.989 312.507 103.094 311.14C103.14 310.544 102.997 309.856 102.71 309.112C102.424 308.373 102.006 307.609 101.537 306.871C100.757 305.644 99.8605 304.529 99.2322 303.747C99.1178 303.605 99.0124 303.474 98.9181 303.355C98.2046 302.771 97.369 301.564 96.7176 300.334C96.3786 299.694 96.0776 299.026 95.8602 298.4C95.6457 297.783 95.5 297.172 95.5 296.66C95.5 296.334 95.6053 295.645 95.7732 294.73C95.9452 293.792 96.1935 292.565 96.4998 291.128C97.1127 288.254 97.9604 284.528 98.9004 280.577C100.779 272.68 103.033 263.861 104.523 259.137C104.526 259.127 104.53 259.117 104.533 259.108C106.829 253.126 108.673 242.614 103.523 226.368C103.517 226.346 103.511 226.325 103.508 226.303C103.245 224.803 103.3 222.769 103.525 220.542C103.752 218.305 104.155 215.833 104.611 213.44C105.251 210.083 106.003 206.843 106.516 204.631C106.732 203.701 106.905 202.952 107.011 202.453C109.161 192.276 111.793 164.577 110.502 148.285C110.356 146.443 110.11 145.156 109.808 143.807C109.739 143.498 109.667 143.185 109.592 142.86C109.338 141.765 109.055 140.54 108.768 138.922C108.763 138.893 108.76 138.864 108.76 138.835V131.317L108.001 116.544C107.999 116.51 108.001 116.477 108.006 116.443C108.857 110.888 109.864 107.834 112.538 102.684V100.274C109.129 101.372 104.219 102.383 99.6582 102.298C94.8321 102.208 90.1688 100.878 88.3117 96.831C88.1965 96.5801 88.3066 96.2832 88.5576 96.1681C88.8086 96.0529 89.1054 96.163 89.2206 96.414C90.8179 99.8951 94.9172 101.209 99.6769 101.298C104.397 101.387 109.542 100.259 112.875 99.1075C113.689 98.825 114.944 97.6929 115.567 95.0041C116.187 92.3257 116.16 88.1584 114.446 81.9682C114.372 81.7021 114.528 81.4266 114.794 81.353C115.06 81.2793 115.336 81.4353 115.409 81.7014C117.15 87.9867 117.212 92.3335 116.541 95.2297C115.932 97.8595 114.702 99.3409 113.538 99.9117V102.685C114.717 104.995 115.826 108.792 116.879 112.71C117.154 113.732 117.425 114.764 117.693 115.784C118.475 118.762 119.231 121.639 119.97 123.877L124.289 134.864L134.802 155.275C134.814 155.298 134.824 155.322 134.832 155.346L135.102 156.152C135.13 156.235 135.135 156.324 135.118 156.409L134.848 157.754L134.847 157.759C134.671 158.591 134.46 159.921 134.399 161.195C134.368 161.832 134.375 162.441 134.439 162.961C134.505 163.492 134.623 163.874 134.774 164.099C135.627 165.375 136.554 166.582 136.907 167.022C136.972 167.103 137.011 167.204 137.016 167.308L137.55 177.41C137.686 177.65 137.854 177.9 138.034 178.113C138.247 178.363 138.439 178.515 138.583 178.572C138.648 178.598 138.684 178.597 138.703 178.594C138.717 178.592 138.751 178.583 138.805 178.532C138.927 178.416 139.103 178.126 139.255 177.493V171.099C139.255 171.045 139.264 170.991 139.281 170.94C139.337 170.774 139.421 170.584 139.535 170.412C139.644 170.25 139.816 170.05 140.068 169.949C140.36 169.832 140.671 169.881 140.937 170.072C141.176 170.244 141.375 170.522 141.552 170.874C141.582 170.935 141.6 171 141.604 171.067L142.136 179.559C142.273 179.799 142.441 180.051 142.622 180.264C142.835 180.514 143.027 180.666 143.171 180.723C143.235 180.749 143.272 180.748 143.29 180.745C143.305 180.743 143.339 180.734 143.393 180.683C143.515 180.567 143.691 180.277 143.843 179.644V172.981C143.843 172.72 143.857 172.423 143.896 172.16C143.915 172.029 143.942 171.895 143.981 171.772C144.016 171.661 144.077 171.506 144.194 171.382C144.258 171.314 144.35 171.242 144.475 171.203C144.605 171.162 144.736 171.168 144.852 171.204C145.059 171.27 145.2 171.425 145.289 171.543C145.479 171.795 145.675 172.213 145.892 172.809L148.547 179.951C148.8 180.174 149.09 180.391 149.373 180.551C149.705 180.737 149.957 180.804 150.108 180.791C150.17 180.785 150.205 180.768 150.232 180.744C150.262 180.718 150.314 180.656 150.359 180.513C150.452 180.218 150.484 179.678 150.337 178.77L147.663 172.643C147.643 172.597 147.63 172.548 147.624 172.498C147.577 172.073 147.556 171.583 147.593 171.13C147.628 170.702 147.721 170.213 147.978 169.871C148.117 169.685 148.318 169.526 148.589 169.47C148.853 169.415 149.115 169.472 149.357 169.586C149.82 169.805 150.34 170.293 150.943 171.058C150.951 171.068 150.958 171.079 150.966 171.09L154.17 175.878C154.434 176.115 154.737 176.347 155.023 176.514C155.349 176.705 155.564 176.756 155.659 176.746C155.666 176.745 155.671 176.744 155.674 176.744C155.682 176.734 155.715 176.684 155.735 176.547C155.779 176.246 155.733 175.697 155.481 174.784L150.922 166.5C150.915 166.487 150.908 166.474 150.902 166.46C150.736 166.083 150.572 165.637 150.467 165.207C150.366 164.797 150.298 164.324 150.396 163.934C150.447 163.727 150.555 163.504 150.766 163.345C150.981 163.182 151.239 163.134 151.493 163.154C151.966 163.192 152.551 163.475 153.263 163.965C153.27 163.97 153.276 163.975 153.283 163.98L156.708 166.605C157.203 166.724 157.751 166.821 158.246 166.858C158.8 166.899 159.2 166.857 159.406 166.761C159.45 166.74 159.474 166.722 159.485 166.711C159.49 166.706 159.493 166.703 159.494 166.701C159.496 166.699 159.496 166.697 159.496 166.697C159.496 166.697 159.501 166.685 159.5 166.655C159.498 166.623 159.49 166.571 159.463 166.494C159.342 166.158 158.945 165.596 158.034 164.742C158.025 164.734 158.017 164.725 158.009 164.716L148.869 154.806C148.243 154.371 146.736 153.731 144.699 153.803C143.824 153.834 142.852 153.997 141.81 154.363C141.55 154.455 141.264 154.318 141.173 154.057C141.081 153.797 141.218 153.511 141.479 153.42C142.352 153.113 143.185 152.935 143.965 152.853C142.888 150.106 141.444 146.082 140.326 142.201C139.722 140.105 139.211 138.042 138.906 136.238C138.611 134.5 138.496 132.945 138.708 131.831C138.153 128.055 135.847 118.692 130.965 110.868C130.926 110.806 130.902 110.736 130.893 110.663L128.466 90.5114C128.102 88.4228 127.486 83.2389 127.924 79.0936L127.924 79.0907C128.364 75.1446 127.672 69.3568 124.205 64.8095C120.766 60.2995 114.526 56.9157 103.666 57.8634L97.2177 59.2018C96.9473 59.2579 96.6826 59.0842 96.6265 58.8138C96.5704 58.5435 96.744 58.2788 97.0144 58.2227L102.34 57.1173L93.8654 51.3279C93.729 51.2348 93.6475 51.0802 93.6475 50.9151V44C93.6475 43.7239 93.8713 43.5 94.1475 43.5C94.4236 43.5 94.6475 43.7239 94.6475 44V50.6511L103.728 56.8545C114.763 55.9274 121.328 59.3865 125 64.2032C128.666 69.0119 129.377 75.0803 128.918 79.2002C128.494 83.2195 129.097 88.3102 129.453 90.3526C129.455 90.3613 129.456 90.37 129.457 90.3788L131.873 110.434C136.845 118.448 139.166 127.978 139.711 131.773C139.719 131.831 139.717 131.89 139.705 131.948C139.51 132.871 139.591 134.302 139.891 136.071C140.189 137.823 140.689 139.847 141.287 141.924C142.437 145.917 143.939 150.072 145.018 152.798C147.136 152.798 148.745 153.481 149.494 154.024C149.521 154.044 149.546 154.066 149.568 154.09L158.732 164.025C159.648 164.886 160.198 165.583 160.404 166.156C160.511 166.455 160.543 166.771 160.425 167.066C160.307 167.365 160.072 167.553 159.83 167.667C159.374 167.879 158.749 167.898 158.172 167.855C157.571 167.81 156.925 167.69 156.366 167.551C156.3 167.534 156.238 167.504 156.183 167.463L152.685 164.782C151.999 164.31 151.605 164.166 151.414 164.151C151.396 164.15 151.383 164.15 151.373 164.15C151.371 164.157 151.368 164.165 151.366 164.175C151.33 164.318 151.345 164.589 151.438 164.969C151.525 165.321 151.663 165.703 151.809 166.038L156.386 174.353C156.404 174.386 156.419 174.422 156.429 174.459C156.703 175.437 156.801 176.169 156.725 176.691C156.686 176.959 156.596 177.211 156.422 177.408C156.239 177.614 156.003 177.715 155.764 177.741C155.33 177.786 154.876 177.586 154.519 177.378C154.138 177.156 153.761 176.859 153.452 176.577C153.422 176.55 153.395 176.519 153.373 176.485L150.146 171.662C149.568 170.932 149.171 170.604 148.93 170.491C148.854 170.455 148.812 170.449 148.797 170.449C148.793 170.453 148.786 170.46 148.778 170.471C148.701 170.573 148.622 170.817 148.589 171.212C148.561 171.559 148.574 171.952 148.61 172.314L151.278 178.427C151.295 178.465 151.306 178.504 151.313 178.545C151.479 179.536 151.48 180.283 151.313 180.814C151.227 181.088 151.089 181.325 150.886 181.5C150.68 181.679 150.439 181.765 150.196 181.787C149.738 181.827 149.267 181.639 148.882 181.422C148.482 181.197 148.095 180.896 147.783 180.608C147.725 180.555 147.68 180.488 147.653 180.414L144.953 173.152C144.915 173.048 144.879 172.953 144.844 172.866C144.843 172.904 144.843 172.943 144.843 172.981V179.702C144.843 179.74 144.839 179.778 144.83 179.815C144.662 180.543 144.424 181.084 144.081 181.409C143.9 181.58 143.688 181.693 143.451 181.732C143.217 181.77 142.996 181.729 142.803 181.653C142.432 181.506 142.111 181.207 141.86 180.911C141.6 180.606 141.375 180.255 141.205 179.94C141.17 179.877 141.15 179.806 141.145 179.734L140.612 171.236C140.522 171.069 140.448 170.975 140.399 170.924C140.389 170.936 140.378 170.951 140.367 170.968C140.325 171.031 140.287 171.107 140.255 171.186V177.552C140.255 177.59 140.251 177.627 140.242 177.664C140.074 178.392 139.836 178.933 139.493 179.258C139.313 179.429 139.1 179.543 138.863 179.581C138.629 179.619 138.408 179.578 138.215 179.502C137.844 179.355 137.523 179.056 137.272 178.76C137.012 178.455 136.787 178.104 136.617 177.789C136.582 177.724 136.561 177.652 136.557 177.578L136.026 167.521C135.607 166.989 134.744 165.854 133.942 164.655C133.661 164.235 133.519 163.667 133.447 163.083C133.373 162.487 133.368 161.816 133.4 161.147C133.464 159.809 133.684 158.426 133.868 157.555L133.869 157.552L134.111 156.343L133.896 155.699L123.389 135.299C123.381 135.285 123.374 135.269 123.368 135.253L119.035 124.23C119.031 124.221 119.028 124.213 119.025 124.204C118.274 121.932 117.504 119.003 116.718 116.009C116.452 114.996 116.184 113.975 115.913 112.969C114.972 109.465 114.011 106.164 113.022 103.931C110.705 108.507 109.79 111.421 109.002 116.544L109.759 131.281C109.76 131.289 109.76 131.298 109.76 131.306V138.791C110.04 140.359 110.313 141.54 110.563 142.622C110.639 142.951 110.713 143.27 110.784 143.588C111.093 144.967 111.348 146.302 111.498 148.206C112.798 164.607 110.157 192.403 107.989 202.66C107.878 203.187 107.699 203.957 107.479 204.905C106.967 207.113 106.23 210.289 105.593 213.628C105.14 216.005 104.743 218.446 104.52 220.643C104.299 222.832 104.256 224.741 104.487 226.098C109.684 242.515 107.85 253.247 105.472 259.452C103.994 264.142 101.75 272.919 99.8732 280.808C98.9344 284.754 98.0886 288.472 97.4778 291.337C97.1724 292.769 96.9263 293.986 96.7568 294.91C96.5832 295.856 96.5 296.445 96.5 296.66C96.5 297.008 96.6044 297.495 96.8048 298.072C97.0022 298.64 97.2809 299.261 97.6013 299.866C98.2538 301.098 99.0325 302.174 99.5836 302.607C99.6147 302.631 99.6428 302.659 99.6673 302.69C99.764 302.812 99.8768 302.953 100.002 303.108C100.628 303.887 101.568 305.055 102.381 306.335C102.871 307.105 103.324 307.93 103.642 308.751C103.959 309.57 104.153 310.415 104.091 311.217C103.981 312.646 103.725 313.56 103.407 314.12C103.182 314.517 102.868 314.817 102.514 314.896C102.241 315.265 101.828 315.693 101.316 315.973C100.811 316.25 100.189 316.388 99.5413 316.167C99.3811 316.467 99.1394 316.764 98.7908 316.946C98.2398 317.233 97.5944 317.152 96.9035 316.69C96.7512 316.872 96.5232 317.107 96.192 317.272C95.4534 317.64 94.4504 317.556 93.0491 316.615C92.2199 317.092 90.9977 317.578 89.6946 317.666C88.2087 317.767 86.5901 317.346 85.3858 315.786C85.3673 315.762 85.3511 315.737 85.3373 315.71C85.1425 315.333 84.8567 314.706 84.6214 314.032C84.4846 313.64 84.3574 313.211 84.2796 312.795C84.2706 312.875 84.2585 312.958 84.2434 313.045C84.1177 313.77 83.7594 314.869 82.9959 316.499C82.5743 317.399 81.9808 317.977 81.2698 318.27C80.569 318.559 79.8131 318.548 79.1005 318.388C77.8975 318.118 76.7143 317.399 75.8702 316.731C75.5864 317.035 75.2726 317.24 74.9301 317.34C74.4404 317.483 73.972 317.387 73.5741 317.194C73.0513 316.94 72.5988 316.494 72.2576 316.055C72.1073 316.192 71.9431 316.297 71.765 316.369C71.3791 316.525 70.9937 316.496 70.6597 316.385C70.2391 316.245 69.8637 315.965 69.5717 315.678C69.3739 315.816 69.1476 315.893 68.8944 315.886C68.4741 315.874 68.1249 315.628 67.8715 315.382C67.5024 315.024 67.1809 314.512 66.9423 314.045C66.9304 314.049 66.9185 314.052 66.9064 314.055C66.6557 314.118 66.4152 314.074 66.2114 313.954C65.8543 313.744 65.6446 313.324 65.5113 312.966C65.2268 312.202 65.0882 311.135 65.0423 310.403C65.0399 310.365 65.0419 310.327 65.0482 310.289C65.267 308.982 65.9157 307.671 66.7274 306.409C67.541 305.144 68.5444 303.888 69.5036 302.698L69.6299 302.541C70.5507 301.399 71.4179 300.323 72.0669 299.324C72.7543 298.265 73.1374 297.379 73.1374 296.66C73.1374 296.643 73.1382 296.626 73.1399 296.61C73.1466 296.543 73.1395 296.379 73.0957 296.087C73.0541 295.808 72.9853 295.45 72.8905 295.018C72.7012 294.154 72.4135 293.017 72.0484 291.669C71.3183 288.976 70.2845 285.461 69.1245 281.648C66.8115 274.044 64.0018 265.271 62.1134 259.491C61.2577 257.98 60.8638 255.673 60.7534 253.004C60.6409 250.286 60.8204 247.116 61.1647 243.862C61.8514 237.374 63.199 230.505 64.2358 226.141C64.3316 224.712 64.1017 222.89 63.6667 220.849C63.2291 218.795 62.5916 216.553 61.8995 214.317C61.4316 212.806 60.9363 211.291 60.4626 209.843C59.5448 207.036 58.7077 204.476 58.3064 202.664C57.6969 199.912 56.1276 190.282 55.1228 179.359C54.1192 168.448 53.6703 156.166 55.3365 148.143C55.7556 146.126 56.1743 144.014 56.5612 142.062C56.7928 140.894 57.013 139.783 57.2151 138.785V131.306C57.2151 131.302 57.2152 131.298 57.2153 131.294C57.2153 131.292 57.2154 131.29 57.2155 131.288L57.7541 116.532C57.2169 110.511 55.6598 105.934 54.6067 103.629L54.4208 104.278C54.303 104.77 53.9551 105.871 53.4952 107.31C53.42 107.545 53.3416 107.79 53.2605 108.043C52.8364 109.367 52.3362 110.929 51.8219 112.588C50.5938 116.549 49.2959 121.032 48.7625 124.132C48.7555 124.172 48.7435 124.212 48.7269 124.249C45.5168 131.499 37.6217 149.386 33.9794 157.642C34.8073 159.404 34.5764 161.679 34.0173 163.735C33.4449 165.84 32.4939 167.841 31.7638 169.091L31.4979 177.836C31.4959 177.898 31.4822 177.96 31.4574 178.018C31.1235 178.794 30.7775 179.336 30.4015 179.651C30.2074 179.813 29.9907 179.927 29.753 179.968C29.5111 180.008 29.2841 179.966 29.0854 179.873C28.7113 179.697 28.4424 179.345 28.257 179.022C28.0632 178.684 27.9166 178.299 27.8188 177.958C27.8036 177.905 27.7973 177.85 27.8 177.795L28.0667 172.481C27.9328 171.831 27.799 171.457 27.6926 171.263C27.6883 171.269 27.6839 171.275 27.6794 171.282C27.6193 171.371 27.5555 171.488 27.4912 171.629C27.3698 171.896 27.2613 172.216 27.1779 172.518L26.91 180.258C26.9066 180.356 26.8741 180.451 26.8167 180.532C26.2624 181.305 25.7688 181.819 25.3185 182.108C24.8581 182.403 24.375 182.501 23.9352 182.291C23.5337 182.1 23.3051 181.713 23.1737 181.374C23.0367 181.02 22.9679 180.623 22.943 180.276C22.9405 180.24 22.9417 180.205 22.9468 180.169C23.0339 179.562 23.2668 177.409 23.4824 173.758C23.5231 173.068 23.5092 172.613 23.4705 172.329C23.4253 172.387 23.3775 172.454 23.3277 172.529C23.151 172.795 22.9728 173.127 22.8237 173.443L20.1322 180.683C20.1022 180.764 20.0518 180.836 19.9858 180.891C19.2671 181.497 18.6456 181.849 18.1037 181.908C17.8162 181.939 17.543 181.889 17.306 181.744C17.0741 181.602 16.9171 181.394 16.812 181.178C16.6092 180.76 16.559 180.227 16.5679 179.736C16.577 179.231 16.6507 178.704 16.7456 178.255C16.7524 178.222 16.7624 178.191 16.7754 178.161L19.1934 172.54C19.5631 171.325 19.7039 170.574 19.7127 170.148C19.7133 170.121 19.7132 170.096 19.7128 170.073C19.6082 170.144 19.4845 170.246 19.3466 170.376C19.0488 170.657 18.726 171.032 18.4438 171.4L18.441 171.403L14.6682 176.505C14.6423 176.54 14.6119 176.571 14.5778 176.598C13.7629 177.248 13.0967 177.622 12.5568 177.68C12.2621 177.711 11.9716 177.651 11.7369 177.457C11.5134 177.273 11.4034 177.017 11.3498 176.782C11.2458 176.325 11.3116 175.749 11.4242 175.219C11.5405 174.67 11.7235 174.097 11.9101 173.609C11.9186 173.586 11.9288 173.565 11.9404 173.544C12.1666 173.138 12.5196 172.516 12.8439 171.967C13.0059 171.693 13.1626 171.434 13.2937 171.228C13.3591 171.125 13.4204 171.032 13.4741 170.955C13.5218 170.888 13.5823 170.805 13.6434 170.745C13.6452 170.743 13.6565 170.73 13.6795 170.703C13.7033 170.674 13.7341 170.635 13.7717 170.585C13.8468 170.487 13.944 170.354 14.0595 170.19C14.2902 169.861 14.589 169.415 14.9221 168.884C15.589 167.821 16.3868 166.429 17.0497 164.976C17.3092 164.407 17.3793 164.065 17.3758 163.88C17.375 163.837 17.3703 163.809 17.366 163.792C17.3641 163.784 17.3624 163.779 17.361 163.775C17.3241 163.761 17.213 163.744 17.0029 163.789C16.8291 163.827 16.6385 163.896 16.4619 163.978L14.3694 166.323C14.341 166.355 14.3086 166.383 14.273 166.407C13.6739 166.805 12.0336 167.607 10.0033 167.832C8.93882 167.949 8.20081 167.693 7.8011 167.135C7.42664 166.612 7.46558 165.978 7.57857 165.584C7.60515 165.491 7.65796 165.408 7.73064 165.344L12.0257 161.6L19.022 153.826C19.0978 153.741 19.2 153.685 19.3118 153.667L22.5046 153.137C22.7169 153.051 23.4382 152.651 24.4382 151.655C24.4353 151.658 24.4462 151.647 24.4683 151.611C24.4894 151.577 24.5152 151.529 24.5449 151.464C24.6046 151.334 24.6708 151.157 24.742 150.933C24.8842 150.484 25.0353 149.882 25.1921 149.156C25.5052 147.706 25.8323 145.802 26.1523 143.732C26.6811 140.313 27.1868 136.465 27.5753 133.511C27.6568 132.89 27.7332 132.31 27.8035 131.78C28.381 127.206 29.104 123.713 30.3637 120.42C31.6125 117.156 33.3798 114.111 36.0209 110.414L38.8684 89.0282C38.8722 88.9999 38.8784 88.9719 38.8869 88.9446C39.3075 87.6039 39.9407 83.2599 38.8713 77.0805C38.8665 77.0523 38.864 77.0238 38.864 76.9952C38.864 67.7672 43.2019 62.3616 48.6374 59.3958C53.9671 56.4879 60.3222 55.9365 64.6154 56.3173L74 50.7161V44C74 43.7239 74.2239 43.5 74.5 43.5ZM84.2034 311.921L84.7419 288.851C84.7423 288.837 84.7432 288.822 84.7448 288.808C84.8094 288.218 84.8745 287.628 84.9393 287.04C85.5253 281.729 86.0983 276.536 86.2622 271.75C86.4444 266.429 86.118 261.664 84.7702 257.84C84.7489 257.78 84.7394 257.716 84.7423 257.652L85.5499 239.683L84.044 228.681L83.0015 239.668L84.1216 257.643C84.125 257.697 84.1195 257.752 84.1054 257.804C82.6438 263.231 82.6377 270.824 83.0085 277.171C83.1934 280.336 83.4708 283.175 83.7021 285.257C83.8177 286.298 83.9218 287.15 83.997 287.759L84.0226 287.966C84.0486 288.176 84.0703 288.35 84.0864 288.486C84.105 288.641 84.1226 288.791 84.1226 288.863V311.772C84.1553 311.82 84.1819 311.871 84.2034 311.921ZM102.291 313.916C102.291 313.916 102.294 313.914 102.3 313.913C102.294 313.916 102.291 313.916 102.291 313.916ZM83.6226 130C83.8987 130 84.1226 130.224 84.1226 130.5C84.1226 130.733 84.0228 130.948 83.9415 131.097C83.8526 131.26 83.7364 131.43 83.6264 131.586C83.5916 131.635 83.5574 131.684 83.5241 131.73C83.3281 132.006 83.1606 132.242 83.0672 132.451C83.0426 132.506 83.0282 132.549 83.0206 132.582C83.0192 132.587 83.0182 132.592 83.0173 132.597C83.0634 132.622 83.1679 132.661 83.374 132.687C83.6105 132.716 83.9423 132.722 84.3967 132.69C84.6721 132.67 84.9113 132.878 84.9309 133.153C84.9505 133.428 84.7431 133.668 84.4677 133.687C83.9775 133.722 83.5756 133.719 83.2513 133.679C82.934 133.64 82.6477 133.56 82.4258 133.405C82.1802 133.234 82.0406 132.989 82.0174 132.71C81.9968 132.461 82.072 132.227 82.1539 132.044C82.292 131.734 82.5296 131.402 82.7202 131.135C82.7513 131.091 82.7812 131.049 82.8092 131.01C82.9185 130.855 83.0047 130.726 83.0633 130.619C83.1135 130.527 83.1227 130.488 83.1227 130.488C83.1289 130.217 83.3503 130 83.6226 130ZM27.6715 157.733C27.9259 157.84 28.0449 158.133 27.9374 158.388C27.5539 159.295 26.7571 160.601 25.5899 161.604C24.4145 162.614 22.8266 163.345 20.9082 162.986C20.6368 162.936 20.4578 162.675 20.5085 162.403C20.5592 162.132 20.8204 161.953 21.0918 162.003C22.6278 162.29 23.9185 161.722 24.9381 160.845C25.9658 159.962 26.6802 158.794 27.0163 157.998C27.1238 157.744 27.4172 157.625 27.6715 157.733ZM140.91 157.733C141.164 157.625 141.458 157.744 141.565 157.998C141.901 158.794 142.616 159.962 143.644 160.845C144.663 161.722 145.954 162.29 147.49 162.003C147.761 161.953 148.022 162.132 148.073 162.403C148.124 162.675 147.945 162.936 147.673 162.986C145.755 163.345 144.167 162.614 142.992 161.604C141.825 160.601 141.028 159.295 140.644 158.388C140.537 158.133 140.656 157.84 140.91 157.733ZM68.032 222.222C68.3076 222.24 68.5167 222.478 68.499 222.753C68.3404 225.23 68.6684 226.937 69.2557 228.086C69.8346 229.219 70.68 229.84 71.6469 230.134C72.6307 230.433 73.7663 230.399 74.9016 230.157C76.0334 229.916 77.1317 229.477 78.0193 229.002C78.2629 228.872 78.5658 228.964 78.696 229.207C78.8262 229.451 78.7343 229.754 78.4908 229.884C77.5343 230.395 76.3477 230.872 75.1097 231.135C73.8753 231.398 72.5562 231.455 71.3563 231.091C70.1394 230.721 69.0722 229.925 68.3652 228.541C67.6668 227.174 67.3359 225.268 67.5011 222.689C67.5187 222.414 67.7564 222.205 68.032 222.222ZM100.592 222.222C100.868 222.205 101.106 222.414 101.123 222.689C101.288 225.268 100.958 227.174 100.259 228.541C99.5521 229.925 98.4849 230.721 97.2681 231.091C96.0682 231.455 94.7491 231.398 93.5147 231.135C92.2766 230.872 91.09 230.395 90.1336 229.884C89.89 229.754 89.7982 229.451 89.9284 229.207C90.0585 228.964 90.3615 228.872 90.605 229.002C91.4927 229.477 92.591 229.916 93.7227 230.157C94.8581 230.399 95.9937 230.433 96.9775 230.134C97.9443 229.84 98.7898 229.219 99.3686 228.086C99.956 226.937 100.284 225.23 100.125 222.753C100.108 222.478 100.317 222.24 100.592 222.222Z" fill="black"/>
<path d="M86 27C86.2424 26.7447 89.1515 23.1703 94 26.2341C92.0606 25.4681 87.2121 25.9788 86 27Z" fill="black"/>
<path fill-rule="evenodd" clip-rule="evenodd" d="M87.404 26.1058C87.4102 26.1041 87.4164 26.1024 87.4226 26.1007C88.0942 25.9167 88.8888 25.7789 89.7026 25.6981C90.5166 25.6172 91.3557 25.5926 92.1169 25.6374C92.175 25.6408 92.2327 25.6446 92.2899 25.6489C90.669 25.0404 89.351 25.2124 88.3651 25.6046C88.0013 25.7494 87.6804 25.925 87.404 26.1058ZM88.1803 25.1401C89.6193 24.5675 91.6426 24.4487 94.1335 26.0227C94.2426 26.0916 94.2813 26.2322 94.2229 26.3472C94.1645 26.4623 94.0282 26.514 93.9082 26.4666C93.4591 26.2892 92.8227 26.1798 92.0876 26.1366C91.3564 26.0936 90.544 26.1169 89.752 26.1956C88.9597 26.2743 88.1936 26.4078 87.5547 26.5829C86.9067 26.7604 86.4207 26.9724 86.1611 27.1912C86.0596 27.2767 85.909 27.268 85.8181 27.1715C85.7271 27.0749 85.7273 26.9241 85.8187 26.8279C85.8275 26.8186 85.8403 26.8043 85.8572 26.7855C86.0625 26.557 86.8657 25.6631 88.1803 25.1401Z" fill="black"/>
<path d="M82 27C81.7576 26.7447 78.8485 23.1703 74 26.2341C75.9394 25.4681 80.7879 25.9788 82 27Z" fill="black"/>
<path fill-rule="evenodd" clip-rule="evenodd" d="M80.596 26.1058C80.5898 26.1041 80.5836 26.1024 80.5774 26.1007C79.9058 25.9167 79.1112 25.7789 78.2974 25.6981C77.4834 25.6172 76.6443 25.5926 75.8831 25.6374C75.825 25.6408 75.7673 25.6446 75.7101 25.6489C77.331 25.0404 78.649 25.2124 79.6349 25.6046C79.9987 25.7494 80.3196 25.925 80.596 26.1058ZM79.8197 25.1401C78.3807 24.5675 76.3574 24.4487 73.8665 26.0227C73.7574 26.0916 73.7187 26.2322 73.7771 26.3472C73.8355 26.4623 73.9718 26.514 74.0918 26.4666C74.5409 26.2892 75.1773 26.1798 75.9124 26.1366C76.6436 26.0936 77.456 26.1169 78.248 26.1956C79.0403 26.2743 79.8064 26.4078 80.4453 26.5829C81.0933 26.7604 81.5793 26.9724 81.8389 27.1912C81.9404 27.2767 82.091 27.268 82.1819 27.1715C82.2729 27.0749 82.2727 26.9241 82.1813 26.8279C82.1725 26.8186 82.1597 26.8043 82.1428 26.7855C81.9375 26.557 81.1343 25.6631 79.8197 25.1401Z" fill="black"/>
<path fill-rule="evenodd" clip-rule="evenodd" d="M81.8383 3.51259C79.3472 3.58627 76.7925 3.99496 74.9399 5.02221C70.1025 7.70445 68.771 10.1917 68.6186 11.5057C68.5946 11.7119 68.6119 12.2839 68.6742 13.1465C68.7349 13.9864 68.8336 15.0507 68.9556 16.2027C69.1968 18.4801 69.5269 21.0846 69.8279 22.9517L70.9807 25.4442C70.9864 24.3088 71.0596 22.8087 71.2624 21.3582C71.3863 20.4717 71.5603 19.5918 71.8017 18.8198C72.0403 18.0567 72.3581 17.3552 72.7937 16.8626C74.4273 15.0155 76.7416 15.1382 77.7278 15.4324C78.5728 15.6127 79.8879 15.8082 81.1138 15.9595C82.3581 16.1131 83.4617 16.2151 83.8726 16.2151C84.3709 16.2151 85.3531 16.0685 86.5293 15.7352C87.6971 15.4044 89.0174 14.9004 90.195 14.209C90.8671 13.8144 92.007 13.6528 93.0159 13.8269C94.029 14.0018 95.1224 14.5635 95.3732 15.8191L95.3778 15.8425L95.3803 15.8662C95.4272 16.3257 95.5761 16.9536 95.7867 17.7233C95.8908 18.1033 96.0075 18.5098 96.1309 18.9395L96.1316 18.9419C96.2549 19.3714 96.3846 19.823 96.5127 20.2877C96.9864 22.0052 97.4525 23.9444 97.5163 25.7262L98.9642 22.9872C98.5952 15.7358 97.6102 11.5493 97.176 10.3703C96.3159 8.65179 94.6439 7.21776 92.8442 6.11672C91.0564 5.02297 89.1995 4.29242 88.0389 3.95479C86.6406 3.69619 84.3034 3.43967 81.8383 3.51259ZM99.3836 23.3864C99.3837 23.386 99.3856 23.3888 99.3889 23.3958C99.3851 23.3902 99.3834 23.3867 99.3836 23.3864ZM99.9444 22.5844C99.5571 15.456 98.578 11.2612 98.1036 9.99565L98.0947 9.9719L98.0834 9.94916C97.105 7.97494 95.2412 6.41089 93.3661 5.2637C91.483 4.11165 89.5298 3.34433 88.2931 2.9873L88.2698 2.98059L88.246 2.97615C86.7869 2.70421 84.3656 2.43739 81.8087 2.51302C79.2637 2.5883 76.5171 3.00426 74.455 4.14766C69.5055 6.89206 67.8327 9.60263 67.6252 11.3904C67.5881 11.7101 67.6167 12.3867 67.6768 13.2186C67.7385 14.0733 67.8385 15.1496 67.9612 16.308C68.1888 18.4579 68.496 20.904 68.7851 22.7603C68.6996 22.8515 68.6459 22.9516 68.614 23.0162C68.4972 23.2527 68.4093 23.5883 68.3422 23.9106C68.204 24.5742 68.1143 25.3849 68.0949 25.7887L68.093 25.8291L68.0976 25.8693C68.4833 29.2513 69.1376 31.0955 69.7849 32.1073C70.2396 32.818 70.7015 33.1313 71.0625 33.2581L71.4551 35.1704L71.458 35.1836C71.5291 35.4882 71.6177 35.8902 71.7203 36.3554C71.9393 37.3486 72.2218 38.63 72.533 39.8661C72.7625 40.7782 73.0114 41.6813 73.268 42.4486C73.5191 43.1996 73.7949 43.8749 74.0934 44.2913C76.2756 47.3354 78.4565 49.1365 80.5744 50.0323C82.7013 50.9319 84.7246 50.9011 86.5469 50.3529C90.1525 49.2683 92.9625 46.1621 94.3958 44.3055L94.4437 44.2435L94.4703 44.1698C95.7849 40.5295 96.293 38.9323 97.0223 35.1711L97.4895 33.0456C97.9414 32.4208 98.5888 31.3793 99.1627 30.15C99.7628 28.8648 100.298 27.3418 100.427 25.8561C100.55 24.4517 100.51 23.6172 100.364 23.1528C100.306 22.9666 100.19 22.7118 99.9444 22.5844ZM97.5237 31.1365C97.7661 30.7146 98.0178 30.2384 98.2566 29.727C98.8315 28.4958 99.3158 27.0926 99.4311 25.7693C99.4955 25.0299 99.5087 24.4982 99.4949 24.1229L97.5237 27.852V31.1365ZM96.5237 32.7811V26.1319C96.5237 24.3897 96.0576 22.3988 95.5487 20.5536C95.4222 20.0947 95.2939 19.648 95.1704 19.2179L95.1687 19.2119C95.0461 18.7849 94.9279 18.3734 94.8222 17.9873C94.6154 17.2317 94.4471 16.5413 94.3882 15.994C94.2481 15.3452 93.6728 14.9551 92.8458 14.8124C92.0056 14.6673 91.1197 14.8258 90.7013 15.0714C89.4322 15.8165 88.0284 16.3499 86.8019 16.6974C85.5839 17.0425 84.5016 17.2151 83.8726 17.2151C83.3899 17.2151 82.2252 17.1043 80.9913 16.9519C79.7486 16.7985 78.3868 16.5969 77.4979 16.4059L77.4768 16.4013L77.4562 16.395C76.6966 16.1619 74.833 16.0662 73.5428 17.5251C73.2444 17.8625 72.9785 18.4073 72.7561 19.1183C72.5366 19.8203 72.3722 20.6422 72.2527 21.4967C72.0138 23.2058 71.961 24.9978 71.986 26.1207L71.9862 26.1319L71.9861 32.7846L72.4333 34.9628C72.5088 35.2864 72.5997 35.6986 72.7034 36.1693C72.9208 37.1555 73.1947 38.3984 73.5027 39.6221C73.7296 40.5234 73.9713 41.3988 74.2163 42.1314C74.4668 42.8803 74.7038 43.4263 74.9062 43.7087C77.0174 46.6538 79.0651 48.3081 80.9639 49.1113C82.8537 49.9105 84.6352 49.8837 86.2589 49.3953C89.5087 48.4178 92.1328 45.5879 93.5565 43.7561C94.8402 40.1989 95.3294 38.6495 96.0417 34.9747L96.0441 34.9625L96.5237 32.7811ZM71.4861 32.3354C71.4891 32.3355 71.4892 32.3354 71.4861 32.3354V32.3354ZM70.9861 32.0292V27.838L69.3037 24.2006C69.1909 24.7718 69.1157 25.4465 69.0958 25.7972C69.4752 29.0913 70.1025 30.7481 70.6273 31.5684C70.7566 31.7705 70.8778 31.9195 70.9861 32.0292Z" fill="black"/>
<path d="M78.1517 28.7338C78.5646 29.0893 78.8399 28.7338 78.9259 28.5116C78.636 28.3449 78.429 28.0778 78.0404 27.7847C77.8115 27.9697 77.8162 28.4448 78.1517 28.7338Z" fill="black"/>
<path d="M90.4911 28.7338C90.0782 29.0893 89.8029 28.7338 89.7169 28.5116C90.0068 28.3449 90.2138 28.0778 90.6024 27.7847C90.8313 27.9697 90.8266 28.4448 90.4911 28.7338Z" fill="black"/>
<path fill-rule="evenodd" clip-rule="evenodd" d="M75.5606 26.8517C75.7898 26.7753 76.0235 26.75 76.1751 26.75C76.3132 26.75 76.4251 26.8619 76.4251 27C76.4251 27.1381 76.3132 27.25 76.1751 27.25C76.0687 27.25 75.8894 27.2691 75.7187 27.3261C75.543 27.3846 75.4177 27.469 75.3591 27.57C75.2897 27.6894 75.1367 27.73 75.0173 27.6606C74.8979 27.5913 74.8573 27.4383 74.9267 27.3189C75.0745 27.0643 75.3363 26.9265 75.5606 26.8517ZM92.2178 27C92.2178 26.8619 92.3297 26.75 92.4678 26.75C92.6194 26.75 92.8531 26.7753 93.0823 26.8517C93.3066 26.9265 93.5684 27.0643 93.7162 27.3189C93.7856 27.4383 93.745 27.5913 93.6256 27.6606C93.5062 27.73 93.3532 27.6894 93.2838 27.57C93.2252 27.469 93.0999 27.3846 92.9242 27.3261C92.7535 27.2691 92.5742 27.25 92.4678 27.25C92.3297 27.25 92.2178 27.1381 92.2178 27ZM78.5756 27.0046C79.1434 27.0067 79.7089 27.0726 80.0854 27.2095C80.7575 27.4538 81.3152 27.6648 81.6812 28.05C81.7763 28.1501 81.7723 28.3084 81.6722 28.4035C81.5721 28.4986 81.4139 28.4945 81.3188 28.3944C81.1158 28.1808 80.8199 28.028 80.3854 27.8562C80.3842 27.9164 80.3782 27.9766 80.3682 28.0355C80.3239 28.2965 80.1987 28.5661 80.0291 28.8074C79.6958 29.2815 79.1334 29.7225 78.5109 29.7498C77.8709 29.7778 77.3004 29.3222 76.9692 28.8388C76.7994 28.5912 76.6754 28.3134 76.6316 28.0469C76.6222 27.9898 76.6163 27.9315 76.6148 27.873C76.3545 28.0044 76.078 28.1771 75.818 28.3603C75.7052 28.4398 75.5492 28.4128 75.4697 28.2999C75.3902 28.187 75.4172 28.0311 75.5301 27.9516C75.9628 27.6466 76.4806 27.3392 76.9282 27.205C77.3961 27.0647 78.0044 27.0024 78.5756 27.0046ZM77.152 27.6612C77.118 27.7271 77.1019 27.8258 77.125 27.9658C77.1542 28.1438 77.2429 28.3537 77.3816 28.5562C77.6673 28.973 78.0968 29.2674 78.489 29.2502C78.8989 29.2323 79.3364 28.9233 79.6201 28.5198C79.7589 28.3223 79.8465 28.1213 79.8752 27.9518C79.8982 27.8166 79.8817 27.7212 79.8458 27.6563C79.5442 27.5623 79.0794 27.5065 78.5737 27.5046C78.4164 27.504 78.258 27.5086 78.1026 27.5185L78.191 27.5851C78.373 27.7224 78.5181 27.855 78.6416 27.9678C78.6575 27.9825 78.6732 27.9967 78.6884 28.0106C78.8252 28.1351 78.9317 28.2265 79.0505 28.2948L79.2365 28.4017L79.1591 28.6018C79.1053 28.7408 78.9853 28.9464 78.782 29.0583C78.6737 29.118 78.5424 29.1499 78.3966 29.1274C78.2536 29.1052 78.1173 29.034 77.9886 28.9232C77.7692 28.7343 77.6549 28.4816 77.6353 28.2406C77.6162 28.0063 77.6865 27.7493 77.8833 27.5903L77.9589 27.5291C77.6654 27.5541 77.3871 27.5982 77.152 27.6612ZM88.7971 27.6563C88.7612 27.7212 88.7447 27.8166 88.7677 27.9518C88.7964 28.1213 88.884 28.3223 89.0228 28.5198C89.3065 28.9233 89.744 29.2323 90.1539 29.2502C90.5461 29.2674 90.9756 28.973 91.2613 28.5562C91.4 28.3537 91.4887 28.1438 91.5179 27.9658C91.541 27.8258 91.5249 27.7271 91.4909 27.6612C91.2558 27.5982 90.9775 27.5541 90.684 27.5291L90.7596 27.5903C90.9564 27.7493 91.0267 28.0063 91.0077 28.2406C90.988 28.4816 90.8737 28.7343 90.6543 28.9232C90.5257 29.034 90.3893 29.1052 90.2463 29.1274C90.1005 29.1499 89.9692 29.118 89.8609 29.0583C89.6576 28.9464 89.5376 28.7408 89.4838 28.6018L89.4064 28.4017L89.5924 28.2948C89.7112 28.2265 89.8177 28.1351 89.9545 28.0106C89.9697 27.9967 89.9854 27.9824 90.0013 27.9678C90.1249 27.855 90.2699 27.7224 90.452 27.5851L90.5403 27.5185C90.3849 27.5086 90.2265 27.504 90.0692 27.5046C89.5636 27.5065 89.0987 27.5623 88.7971 27.6563ZM92.0281 27.873C92.2884 28.0044 92.5649 28.1771 92.8249 28.3603C92.9377 28.4398 93.0937 28.4128 93.1732 28.2999C93.2527 28.187 93.2257 28.0311 93.1128 27.9516C92.6801 27.6466 92.1623 27.3392 91.7147 27.205C91.2468 27.0647 90.6385 27.0024 90.0673 27.0046C89.4995 27.0067 88.934 27.0726 88.5575 27.2095C87.8854 27.4538 87.3277 27.6648 86.9617 28.05C86.8666 28.1501 86.8706 28.3084 86.9707 28.4035C87.0708 28.4986 87.229 28.4945 87.3241 28.3944C87.5271 28.1808 87.823 28.028 88.2575 27.8562C88.2587 27.9164 88.2647 27.9766 88.2747 28.0355C88.319 28.2965 88.4442 28.5661 88.6138 28.8074C88.9471 29.2815 89.5095 29.7225 90.132 29.7498C90.772 29.7778 91.3425 29.3222 91.6737 28.8388C91.8435 28.5912 91.9675 28.3134 92.0113 28.0469C92.0207 27.9898 92.0266 27.9315 92.0281 27.873ZM78.1325 28.1824C78.1328 28.1881 78.1331 28.194 78.1336 28.2C78.143 28.315 78.1988 28.4443 78.3149 28.5443C78.3927 28.6113 78.4456 28.629 78.4731 28.6332C78.4976 28.637 78.518 28.6329 78.5409 28.6203C78.5569 28.6115 78.573 28.599 78.5886 28.5837C78.5053 28.5188 78.4278 28.4494 78.352 28.3805C78.336 28.3659 78.32 28.3513 78.3039 28.3366C78.2484 28.286 78.1922 28.2346 78.1325 28.1824ZM90.0543 28.5837C90.0699 28.599 90.086 28.6115 90.102 28.6203C90.1249 28.6329 90.1453 28.637 90.1698 28.6332C90.1973 28.629 90.2502 28.6113 90.328 28.5443C90.4441 28.4443 90.4999 28.315 90.5093 28.2C90.5098 28.194 90.5101 28.1882 90.5104 28.1824C90.4507 28.2346 90.3945 28.286 90.339 28.3366C90.3229 28.3513 90.3069 28.3659 90.2909 28.3805C90.2151 28.4494 90.1376 28.5188 90.0543 28.5837ZM75.6548 29.1357C75.764 29.0511 75.921 29.0711 76.0055 29.1803C76.1484 29.3649 76.5519 29.6745 77.0292 29.5375C77.1619 29.4994 77.3004 29.5761 77.3384 29.7088C77.3765 29.8415 77.2998 29.98 77.1671 30.0181C76.4057 30.2366 75.8113 29.7463 75.6101 29.4864C75.5256 29.3772 75.5456 29.2202 75.6548 29.1357ZM92.9881 29.1357C93.0973 29.2202 93.1173 29.3772 93.0328 29.4864C92.8316 29.7463 92.2372 30.2366 91.4758 30.0181C91.3431 29.98 91.2664 29.8415 91.3045 29.7088C91.3426 29.5761 91.481 29.4994 91.6137 29.5375C92.091 29.6745 92.4945 29.3649 92.6374 29.1803C92.7219 29.0711 92.8789 29.0511 92.9881 29.1357ZM80.5574 29.8408C80.1061 29.9103 79.5908 30.0508 79.2542 30.1594C79.1229 30.2018 78.9819 30.1297 78.9395 29.9983C78.8971 29.8669 78.9692 29.726 79.1006 29.6836C79.4523 29.5701 79.9949 29.4216 80.4813 29.3467C80.7229 29.3094 80.964 29.2882 81.1657 29.3035C81.2665 29.3111 81.3692 29.3287 81.4614 29.3653C81.5537 29.4019 81.6531 29.465 81.7162 29.5738C81.7855 29.6932 81.7449 29.8462 81.6255 29.9155C81.5101 29.9825 81.3632 29.9468 81.291 29.8364C81.2881 29.8348 81.2836 29.8326 81.2769 29.83C81.2488 29.8188 81.2007 29.8076 81.1278 29.802C80.9822 29.791 80.7847 29.8058 80.5574 29.8408ZM88.1616 29.3467C88.648 29.4216 89.1906 29.5701 89.5423 29.6836C89.6737 29.726 89.7458 29.8669 89.7034 29.9983C89.661 30.1297 89.5201 30.2018 89.3887 30.1594C89.0521 30.0508 88.5368 29.9103 88.0855 29.8408C87.8582 29.8058 87.6607 29.791 87.5151 29.802C87.4422 29.8076 87.3941 29.8188 87.366 29.83C87.3593 29.8326 87.3548 29.8348 87.3519 29.8364C87.2797 29.9468 87.1328 29.9825 87.0174 29.9155C86.898 29.8462 86.8574 29.6932 86.9267 29.5738C86.9898 29.465 87.0892 29.4019 87.1815 29.3653C87.2737 29.3287 87.3764 29.3111 87.4772 29.3035C87.6789 29.2882 87.9201 29.3094 88.1616 29.3467Z" fill="black"/>
<path fill-rule="evenodd" clip-rule="evenodd" d="M84.9013 27.7511C85.0388 27.7383 85.1606 27.8395 85.1733 27.977L85.6639 33.2711C85.6766 33.4086 85.5755 33.5303 85.438 33.5431C85.3005 33.5558 85.1787 33.4547 85.166 33.3172L84.6754 28.0231C84.6627 27.8856 84.7638 27.7638 84.9013 27.7511ZM86.7997 34.9127C86.9291 34.8647 87.073 34.9307 87.121 35.0602C87.3433 35.6601 87.2546 36.1577 87.0345 36.5313C86.8211 36.8936 86.4939 37.1242 86.2498 37.2295C86.1231 37.2843 85.9759 37.2259 85.9212 37.0991C85.8665 36.9723 85.9249 36.8252 86.0517 36.7705C86.2164 36.6994 86.4533 36.5329 86.6037 36.2775C86.7475 36.0335 86.8222 35.6929 86.6521 35.234C86.6042 35.1045 86.6702 34.9606 86.7997 34.9127ZM81 34.8971C81.1381 34.8971 81.25 35.009 81.25 35.1471C81.25 35.4372 81.297 35.8678 81.4298 36.2161C81.5673 36.5767 81.7521 36.75 81.9811 36.75C82.1192 36.75 82.2311 36.8619 82.2311 37C82.2311 37.1381 82.1192 37.25 81.9811 37.25C81.4252 37.25 81.1195 36.8057 80.9626 36.3942C80.8011 35.9705 80.75 35.4746 80.75 35.1471C80.75 35.009 80.8619 34.8971 81 34.8971ZM85.439 36.5694C85.322 36.6267 85.2058 36.7554 85.1371 36.8667C85.0645 36.9842 84.9105 37.0206 84.793 36.948C84.6755 36.8754 84.6391 36.7214 84.7117 36.6039C84.8065 36.4505 84.9846 36.2351 85.2192 36.1203C85.341 36.0607 85.4886 36.0234 85.6494 36.0492C85.812 36.0754 85.9603 36.1619 86.0889 36.3007C86.1827 36.402 86.1767 36.5601 86.0754 36.654C85.9741 36.7478 85.8159 36.7418 85.7221 36.6405C85.6545 36.5675 85.6024 36.5481 85.5699 36.5429C85.5354 36.5373 85.4929 36.543 85.439 36.5694ZM82.8016 36.1171C83.0354 36.2229 83.2583 36.4223 83.3908 36.5654C83.4847 36.6667 83.4787 36.8248 83.3774 36.9187C83.2761 37.0125 83.1179 37.0065 83.0241 36.9052C82.9114 36.7836 82.7418 36.6389 82.5954 36.5726C82.5215 36.5392 82.4842 36.5398 82.475 36.5416C82.4749 36.5416 82.4749 36.5416 82.4748 36.5416C82.4728 36.5434 82.4642 36.5519 82.4532 36.5757C82.3952 36.701 82.2466 36.7555 82.1213 36.6974C81.996 36.6394 81.9415 36.4908 81.9995 36.3655C82.077 36.1982 82.208 36.0837 82.3809 36.0505C82.5357 36.0209 82.6854 36.0645 82.8016 36.1171Z" fill="black"/>
<path fill-rule="evenodd" clip-rule="evenodd" d="M84.4136 42.0887C84.6134 42.0315 84.8785 41.9581 85.1254 41.8951C85.2719 41.8578 85.4141 41.8236 85.5333 41.7985C85.6435 41.7753 85.759 41.7544 85.8378 41.7544C85.8927 41.7544 85.9795 41.7673 86.0636 41.7809C86.1568 41.796 86.2758 41.8172 86.4105 41.8415C86.4452 41.8477 86.4811 41.8542 86.5179 41.8609C86.7686 41.9062 87.0653 41.9599 87.3677 42.0089C87.7153 42.0652 88.0647 42.1144 88.3548 42.1376C88.5 42.1492 88.6256 42.1539 88.7261 42.1506C88.8332 42.147 88.8878 42.1348 88.9061 42.1274C89.0341 42.0756 89.1799 42.1373 89.2317 42.2652C89.2836 42.3932 89.2218 42.539 89.0939 42.5908C88.9906 42.6327 88.8628 42.6463 88.7427 42.6503C88.6161 42.6545 88.47 42.6484 88.3149 42.636C88.0045 42.6112 87.6394 42.5594 87.2877 42.5024C86.9804 42.4526 86.6789 42.3981 86.4286 42.3528C86.3918 42.3462 86.3562 42.3397 86.3218 42.3335C86.1866 42.3092 86.0718 42.2888 85.9836 42.2745C85.9395 42.2673 85.9037 42.262 85.8764 42.2585C85.8529 42.2555 85.8415 42.2547 85.8385 42.2544C85.8375 42.2544 85.8374 42.2544 85.8378 42.2544C85.8379 42.2544 85.8364 42.2544 85.833 42.2546C85.8297 42.2548 85.8252 42.2551 85.8195 42.2557C85.8078 42.2569 85.7929 42.2589 85.7744 42.2618C85.7374 42.2676 85.6909 42.2763 85.6361 42.2878C85.5268 42.3108 85.3923 42.3431 85.2489 42.3796C84.9626 42.4527 84.6492 42.5405 84.4484 42.5991L84.3227 42.6358L84.221 42.5533C84.221 42.5533 84.221 42.5533 84.2209 42.5533C84.2199 42.5526 84.2048 42.5421 84.1656 42.524C84.1282 42.5068 84.0799 42.4876 84.0224 42.4673C83.9075 42.4267 83.7678 42.3856 83.63 42.3498C83.4923 42.3139 83.3613 42.2846 83.2648 42.2668C83.2267 42.2598 83.1969 42.2552 83.1757 42.2525C83.1689 42.2544 83.1626 42.2561 83.157 42.2574C83.1325 42.2635 83.102 42.2699 83.0683 42.2764C83.0001 42.2896 82.906 42.3056 82.7938 42.3234C82.5688 42.3589 82.2637 42.4024 81.9311 42.4446C81.2705 42.5282 80.4831 42.6091 80 42.6091C79.8619 42.6091 79.75 42.4972 79.75 42.3591C79.75 42.221 79.8619 42.1091 80 42.1091C80.4479 42.1091 81.2067 42.0323 81.8682 41.9485C82.1967 41.9069 82.4966 41.8641 82.7157 41.8295C82.8256 41.8121 82.9134 41.7971 82.9736 41.7855C82.9982 41.7807 83.0162 41.7769 83.0283 41.7741C83.0506 41.7642 83.0683 41.76 83.0753 41.7583L83.0755 41.7582C83.1003 41.7523 83.1219 41.7509 83.1344 41.7503C83.1606 41.7492 83.1865 41.751 83.2066 41.7529C83.2489 41.7569 83.3007 41.765 83.3553 41.7751C83.4663 41.7955 83.6094 41.8278 83.7559 41.8659C83.9022 41.9039 84.0565 41.9491 84.189 41.9959C84.2619 42.0217 84.3423 42.0526 84.4136 42.0887ZM86.8068 43.6661C86.8469 43.7982 86.7724 43.9379 86.6403 43.978C85.0204 44.4702 83.1194 44.1833 82.3672 43.9802C82.2339 43.9442 82.1551 43.8069 82.1911 43.6736C82.2271 43.5403 82.3643 43.4615 82.4976 43.4975C83.205 43.6885 85.0012 43.9535 86.4949 43.4996C86.627 43.4595 86.7666 43.534 86.8068 43.6661Z" fill="black"/>
</svg>
