<svg width="168" height="320" viewBox="0 0 168 320" fill="none" xmlns="http://www.w3.org/2000/svg">
<path fill-rule="evenodd" clip-rule="evenodd" d="M71 32.3816L71.8334 33.1273C74.8816 35.8546 83.2499 39.7152 92.2028 33.0978L93 32.5086V43.2431C94.0158 43.9476 95.8506 44.9145 97.8094 45.9429L97.9014 45.9912C99.8593 47.0191 101.913 48.0974 103.24 48.9809C108.258 48.3991 115.464 50.0839 120.893 55.1393C126.405 60.2716 130.031 68.8241 127.785 81.8423C128.548 85.0454 129.625 90.069 130.41 94.8686C130.807 97.2933 131.13 99.6674 131.3 101.724C131.46 103.667 131.487 105.367 131.293 106.564C134.23 111.848 136.369 116.85 136.912 126.508L143.775 148.997C145.593 149.029 149.1 149.901 151.603 153.247C154.16 156.664 157.829 160.378 159.343 161.807C159.443 161.901 159.5 162.033 159.5 162.17C159.5 162.688 159.335 163.481 158.7 163.937C158.022 164.425 157.049 164.368 155.803 163.687C153.43 162.389 152.096 161.514 151.709 161.222C151.69 161.208 151.672 161.193 151.656 161.176C151.378 160.897 151.057 160.615 150.757 160.405C150.606 160.3 150.471 160.22 150.356 160.168C150.299 160.142 150.254 160.127 150.22 160.117C150.217 160.136 150.214 160.16 150.213 160.189C150.194 160.481 150.279 161.031 150.585 161.96L155.126 169.457C155.137 169.476 155.147 169.495 155.156 169.515C155.409 170.092 155.663 170.76 155.835 171.383C155.999 171.98 156.116 172.627 156.014 173.114C155.96 173.371 155.828 173.664 155.526 173.831C155.231 173.994 154.898 173.968 154.599 173.875C154.015 173.695 153.237 173.163 152.214 172.245C152.184 172.218 152.158 172.188 152.135 172.155L149.17 167.832C148.932 167.463 148.653 167.08 148.386 166.781C148.253 166.631 148.13 166.512 148.024 166.428C148.015 166.421 148.005 166.414 147.997 166.407C147.996 166.409 147.996 166.411 147.996 166.413C147.949 166.753 147.984 167.395 148.187 168.483L150.58 173.545C150.594 173.576 150.605 173.607 150.613 173.64C150.615 173.645 150.616 173.651 150.617 173.656C150.782 174.444 150.869 175.064 150.882 175.531C150.888 175.765 150.876 175.977 150.84 176.16C150.804 176.339 150.736 176.532 150.6 176.688C150.448 176.861 150.241 176.952 150.02 176.953C149.821 176.954 149.642 176.885 149.5 176.808C149.218 176.656 148.924 176.389 148.639 176.084C147.492 174.854 145.931 172.379 144.855 170.504C144.846 170.489 144.838 170.473 144.831 170.457C144.824 170.442 144.819 170.428 144.814 170.413C144.661 169.954 144.472 169.459 144.278 169.049C144.193 168.871 144.111 168.715 144.033 168.589C143.959 168.952 143.907 169.561 143.906 170.511L144.174 175.348C144.175 175.367 144.175 175.385 144.174 175.403C144.174 175.412 144.173 175.42 144.172 175.428C144.125 175.876 144.037 176.379 143.897 176.813C143.827 177.031 143.74 177.245 143.63 177.432C143.523 177.614 143.374 177.804 143.164 177.928C142.935 178.064 142.665 178.102 142.391 178.012C142.139 177.93 141.922 177.754 141.733 177.539C141.355 177.111 140.957 176.382 140.522 175.292C140.502 175.241 140.49 175.186 140.487 175.131L140.22 169.772C140.133 169.277 140.014 168.744 139.874 168.296C139.803 168.068 139.729 167.871 139.655 167.716C139.643 167.689 139.63 167.665 139.619 167.643C139.458 167.978 139.266 168.627 139.07 169.741L139.334 173.182C139.336 173.204 139.336 173.227 139.335 173.249C139.311 173.653 139.253 174.109 139.145 174.51C139.09 174.711 139.02 174.911 138.928 175.088C138.838 175.261 138.711 175.445 138.526 175.576C138.324 175.718 138.074 175.781 137.806 175.722C137.56 175.667 137.345 175.52 137.16 175.34C136.791 174.983 136.399 174.361 135.963 173.432C135.936 173.374 135.92 173.312 135.917 173.248L135.385 163.642C134.924 162.653 134.305 160.99 133.872 159.066C133.435 157.131 133.178 154.898 133.481 152.805L120.042 121.944C120.014 121.881 120 121.813 120 121.745C120 117.711 118.572 112.184 116.886 107.643C116.044 105.377 115.147 103.38 114.347 101.957C113.946 101.243 113.579 100.691 113.265 100.324C113.169 100.211 113.082 100.121 113.006 100.052L109.224 108.644V128.696C111.381 138.314 112.498 161.03 111.374 177.823C111.264 183.27 109.909 189.861 108.492 195.893C108.114 197.503 107.732 199.072 107.368 200.568C106.362 204.699 105.489 208.284 105.191 210.711V229.238C105.291 229.887 105.412 230.611 105.542 231.398C106.062 234.523 106.746 238.64 106.99 243.006C107.297 248.489 106.917 254.441 104.607 259.403C100.124 269.031 96.0264 286.635 94.4955 293.762C94.0403 299.189 96.8584 302.065 98.9926 304.244L99.1337 304.388C100.027 305.302 100.951 306.529 101.642 307.785C102.324 309.026 102.822 310.369 102.771 311.498C102.77 311.523 102.767 311.549 102.762 311.573C102.507 312.851 100.735 314.473 96.4631 313.883C94.1205 315.271 88.518 316.961 83.4727 313.262C83.4521 313.283 83.4323 313.303 83.4145 313.319C83.3379 313.392 83.2438 313.469 83.1376 313.547C82.9243 313.704 82.6399 313.884 82.2975 314.068C81.6123 314.436 80.6731 314.831 79.5684 315.095C77.396 315.613 74.5551 315.626 71.771 313.879C70.6244 314.003 68.9671 314.055 67.5037 313.822C66.7346 313.7 65.9844 313.493 65.3851 313.152C64.7799 312.808 64.2862 312.3 64.1413 311.573C63.8845 310.286 64.527 308.879 65.2983 307.727C66.0769 306.565 67.0735 305.534 67.7703 304.924C68.8268 303.685 70.3351 301.642 71.448 299.52C72.0086 298.451 72.4605 297.378 72.708 296.388C72.957 295.392 72.9873 294.528 72.7606 293.846C72.0815 291.804 69.8959 283.471 67.835 275.523C67.2659 273.329 66.7047 271.157 66.1864 269.152C65.7655 267.523 65.373 266.004 65.0276 264.672C64.2704 261.75 63.7443 259.744 63.6278 259.375C61.3293 254.419 60.9508 248.479 61.2571 243.006C61.5014 238.64 62.1857 234.523 62.705 231.398C62.8358 230.611 62.9561 229.887 63.0563 229.238C63.0568 228.56 63.0707 227.707 63.0867 226.732C63.1162 224.934 63.1524 222.719 63.1235 220.422C63.0787 216.866 62.8767 213.222 62.2679 210.815C60.2929 204.333 56.2825 188.658 56.0661 177.811C55.9949 174.246 55.7329 171.03 55.4628 167.715C54.7187 158.583 53.9137 148.704 56.8725 128.715V108.6C56.4423 106.875 55.7425 104.915 55.1284 103.222C55.0907 103.118 55.0533 103.015 55.0163 102.914C54.7506 102.182 54.5055 101.507 54.3163 100.943C54.2914 100.869 54.2672 100.796 54.2438 100.724C53.107 102.866 51.6751 105.974 50.5129 109.394C49.1296 113.465 48.1467 117.924 48.4609 121.703C48.4682 121.792 48.452 121.88 48.4139 121.96L33.715 152.768C34.1128 153.967 34.4646 155.851 34.3264 157.899C34.1833 160.018 33.5116 162.349 31.7819 164.265L31.2549 172.981C31.2528 173.017 31.2466 173.053 31.2367 173.087C31.0972 173.577 30.9068 174.123 30.6815 174.598C30.4691 175.045 30.182 175.525 29.8091 175.772C29.603 175.909 29.3305 176 29.028 175.921C28.7412 175.846 28.5257 175.643 28.3644 175.412C28.0492 174.959 27.7927 174.184 27.5761 173.044C27.5702 173.013 27.5673 172.982 27.5673 172.95V168.908C27.5673 168.59 27.5448 168.252 27.4934 167.976C27.4764 167.885 27.4574 167.807 27.4373 167.741C27.2601 167.942 27.0103 168.334 26.6853 169.019V175.106C26.6853 175.153 26.6789 175.199 26.6662 175.244C26.5267 175.733 26.3363 176.279 26.111 176.754C25.8985 177.201 25.6114 177.681 25.2385 177.928C25.0325 178.065 24.76 178.156 24.4575 178.077C24.1706 178.003 23.9551 177.799 23.7938 177.568C23.4786 177.115 23.2221 176.34 23.0055 175.2C22.998 175.16 22.9953 175.119 22.9975 175.079L23.2664 170.228C23.2666 170.223 23.267 170.218 23.2674 170.214C23.2676 170.211 23.2678 170.208 23.2681 170.206C23.3115 169.77 23.3353 169.301 23.3198 168.911C23.3158 168.812 23.3094 168.721 23.3008 168.639C23.0715 168.963 22.7576 169.531 22.3458 170.447L20.2002 176.093C20.1836 176.136 20.161 176.177 20.1331 176.215C19.7856 176.679 19.3624 177.178 18.9346 177.575C18.7207 177.774 18.4967 177.955 18.2725 178.095C18.0541 178.231 17.8019 178.349 17.537 178.379C17.2497 178.412 16.9496 178.337 16.7131 178.099C16.4978 177.882 16.3857 177.58 16.329 177.254C16.2159 176.605 16.2824 175.615 16.5532 174.204C16.5605 174.166 16.5722 174.129 16.5881 174.093L18.9946 168.732C19.1435 168.238 19.2784 167.693 19.352 167.216C19.3896 166.972 19.4096 166.755 19.4097 166.578C19.4098 166.498 19.4057 166.433 19.3996 166.382C19.3887 166.388 19.3769 166.395 19.3644 166.403C19.0427 166.605 18.5136 167.115 17.7141 168.129L14.4956 172.699C14.4645 172.743 14.4265 172.782 14.383 172.814C14.0293 173.074 13.605 173.344 13.1859 173.543C12.7896 173.731 12.3101 173.898 11.8808 173.844C11.6464 173.815 11.4047 173.716 11.2214 173.503C11.0434 173.297 10.9664 173.035 10.9489 172.765C10.915 172.244 11.0917 171.534 11.4735 170.604C11.4805 170.587 11.4885 170.571 11.4973 170.554L16.0633 162.208C16.28 161.773 16.4989 161.281 16.6573 160.837C16.7666 160.53 16.834 160.281 16.8644 160.099C16.5912 160.252 16.1541 160.58 15.5039 161.188C15.4908 161.2 15.4771 161.212 15.4627 161.222L12.2364 163.648C12.2037 163.673 12.1681 163.693 12.1304 163.709C11.6821 163.898 11.1546 164.075 10.6511 164.168C10.1721 164.256 9.61284 164.288 9.17225 164.076C8.93335 163.962 8.72802 163.774 8.60847 163.502C8.49298 163.239 8.47728 162.942 8.52589 162.635C8.62084 162.034 8.98237 161.262 9.63768 160.276C9.65189 160.255 9.66772 160.235 9.68503 160.216L18.5573 150.514C18.5708 150.499 18.5853 150.485 18.6005 150.472C19.5157 149.686 20.8081 149.489 21.7348 149.364C21.8046 149.354 21.8719 149.345 21.9367 149.337C22.3358 149.284 22.643 149.243 22.8678 149.18C22.9279 149.163 22.9726 149.146 23.0049 149.132C23.0058 149.131 23.0067 149.131 23.0076 149.131C23.019 149.077 23.0393 149.025 23.0677 148.977C24.6312 146.365 27.8915 138.152 28.1051 126.587C28.1057 126.557 28.1089 126.527 28.1147 126.498C28.9191 122.466 31.5911 112.947 35.9041 107.025C35.9536 103.595 36.1702 98.3052 36.6638 93.3701C36.9145 90.8643 37.2374 88.441 37.6483 86.3952C38.0338 84.4752 38.5068 82.833 39.1 81.7713C38.0465 76.5176 37.99 68.0009 41.2788 60.9468C42.9478 57.367 45.4846 54.1519 49.1991 51.9455C52.8757 49.7617 57.6682 48.5888 63.8395 48.988L71 43.2596V33.5009L71.5 33.4999H71V32.3816ZM72 34.5491V43.4999C72 43.6518 71.9309 43.7954 71.8123 43.8903L64.3123 49.8903C64.2143 49.9687 64.0904 50.0074 63.9652 49.9987C57.8634 49.5732 53.2192 50.7208 49.7098 52.8053C46.1997 54.8902 43.7861 57.9354 42.1851 61.3694C38.9736 68.2578 39.057 76.6619 40.1176 81.7562C40.1435 81.8805 40.1211 82.01 40.055 82.1184C39.5131 83.0074 39.0342 84.5728 38.6287 86.5921C38.2268 88.5932 37.9078 90.9807 37.6589 93.4696C37.161 98.4466 36.9465 103.795 36.9018 107.198C36.9004 107.303 36.8662 107.404 36.804 107.489C32.5849 113.198 29.9174 122.602 29.1041 126.65C28.8824 138.218 25.6583 146.533 23.9809 149.398C23.9405 149.602 23.8262 149.766 23.6796 149.884C23.5164 150.017 23.3163 150.092 23.14 150.142C22.8394 150.227 22.4463 150.279 22.0579 150.33C21.9945 150.338 21.9312 150.346 21.8685 150.355C20.9139 150.484 19.9323 150.661 19.2738 151.212L10.4492 160.862C9.82935 161.799 9.57316 162.414 9.51363 162.791C9.48466 162.974 9.50831 163.064 9.52409 163.1C9.53581 163.127 9.55368 163.15 9.60492 163.175C9.74461 163.242 10.0333 163.265 10.4702 163.184C10.8635 163.112 11.2966 162.971 11.6856 162.811L14.8404 160.439C15.6357 159.697 16.237 159.249 16.6838 159.081C16.9051 158.998 17.217 158.936 17.4994 159.106C17.79 159.28 17.8627 159.586 17.8787 159.786C17.9106 160.182 17.7667 160.703 17.5993 161.172C17.4226 161.668 17.184 162.202 16.954 162.663C16.9525 162.666 16.9511 162.669 16.9496 162.672C16.9481 162.674 16.9467 162.677 16.9452 162.68L12.3881 171.01C12.0256 171.897 11.9287 172.422 11.9468 172.7C11.9527 172.791 11.9695 172.832 11.9769 172.846C11.9822 172.848 11.991 172.85 12.0046 172.852C12.1331 172.868 12.3897 172.814 12.7579 172.639C13.0802 172.487 13.4227 172.274 13.7257 172.056L16.9043 167.542C16.9094 167.535 16.9148 167.528 16.9203 167.52C17.7294 166.493 18.3515 165.858 18.8325 165.556C19.0672 165.409 19.353 165.286 19.6526 165.332C20.0019 165.385 20.2014 165.635 20.2968 165.869C20.3859 166.089 20.4099 166.343 20.4097 166.579C20.4095 166.824 20.3826 167.094 20.3404 167.368C20.2558 167.916 20.1036 168.522 19.9424 169.053C19.9362 169.073 19.9288 169.093 19.9201 169.113L17.5244 174.449C17.2674 175.807 17.2351 176.629 17.3142 177.082C17.3486 177.28 17.3965 177.361 17.4158 177.386C17.4184 177.386 17.4216 177.386 17.4252 177.385C17.4796 177.379 17.5845 177.346 17.7431 177.247C17.896 177.151 18.0689 177.014 18.2541 176.842C18.6086 176.513 18.9751 176.087 19.2906 175.671L21.4162 170.078C21.4197 170.069 21.4235 170.06 21.4275 170.051C21.9135 168.968 22.3067 168.264 22.6331 167.866C22.7883 167.677 22.9832 167.488 23.2247 167.41C23.3599 167.367 23.5155 167.358 23.6718 167.411C23.8239 167.463 23.9336 167.559 24.0085 167.653C24.1468 167.826 24.2121 168.048 24.2491 168.229C24.2892 168.424 24.31 168.646 24.319 168.871C24.3369 169.32 24.3098 169.834 24.2642 170.294L23.9994 175.073C24.2096 176.158 24.4323 176.734 24.6145 176.996C24.6479 177.044 24.6742 177.073 24.6924 177.09C24.817 177.003 25.0039 176.754 25.2077 176.324C25.3931 175.934 25.5583 175.471 25.6853 175.036V168.908C25.6853 168.835 25.7013 168.763 25.732 168.697C26.1127 167.879 26.4468 167.327 26.7541 167.007C26.9069 166.849 27.095 166.702 27.3221 166.646C27.5834 166.581 27.8274 166.652 28.0115 166.806C28.1722 166.94 28.2696 167.121 28.3321 167.275C28.3975 167.436 28.4434 167.615 28.4765 167.793C28.5428 168.149 28.5673 168.552 28.5673 168.908V172.903C28.7783 173.997 29.0021 174.577 29.1851 174.84C29.2184 174.888 29.2448 174.917 29.263 174.934C29.3875 174.847 29.5745 174.598 29.7783 174.168C29.9657 173.774 30.1325 173.304 30.2601 172.865L30.7945 164.027C30.8015 163.91 30.8491 163.8 30.9291 163.715C32.5488 161.989 33.1928 159.843 33.3287 157.831C33.4648 155.815 33.0869 153.97 32.705 152.907C32.6599 152.781 32.6668 152.643 32.7243 152.522L47.4536 121.65C47.1567 117.699 48.1827 113.143 49.5661 109.072C50.9386 105.033 52.6807 101.421 53.9024 99.2658C53.8588 98.8609 53.7341 97.9201 53.5679 96.6663C53.392 95.3393 53.1696 93.6617 52.9477 91.8978C52.4889 88.2502 52.0332 84.2372 52.0332 82.3971H53.0332C53.0332 84.1598 53.4779 88.1 53.9399 91.773C54.1535 93.4711 54.371 95.1133 54.5463 96.4375C54.7463 97.9476 54.8915 99.0441 54.9137 99.3383C54.9294 99.5455 55.0468 99.9763 55.2644 100.625C55.4493 101.176 55.6895 101.838 55.9561 102.572C55.993 102.673 56.0305 102.777 56.0685 102.881C56.6868 104.585 57.4143 106.62 57.858 108.419C57.8677 108.459 57.8725 108.499 57.8725 108.539V128.752C57.8725 128.776 57.8707 128.801 57.8671 128.825C54.92 148.717 55.7143 158.464 56.4571 167.58C56.7287 170.913 56.9935 174.162 57.0659 177.792C57.2795 188.499 61.2585 204.074 63.2279 210.535C63.2302 210.543 63.2323 210.55 63.2343 210.558C63.8779 213.093 64.0786 216.852 64.1234 220.409C64.1524 222.712 64.1156 224.977 64.0861 226.791C64.0701 227.774 64.0562 228.625 64.0562 229.277C64.0562 229.302 64.0543 229.328 64.0504 229.353C63.9466 230.028 63.8222 230.776 63.6875 231.587C63.1686 234.711 62.4964 238.757 62.2555 243.061C61.9521 248.485 62.3404 254.24 64.5472 258.981C64.5552 258.998 64.5621 259.015 64.5681 259.033C64.6811 259.37 65.2282 261.46 65.9956 264.421C66.342 265.757 66.7343 267.275 67.1548 268.902C67.6725 270.905 68.2329 273.074 68.803 275.272C70.8708 283.246 73.0443 291.53 73.7095 293.53C74.0205 294.466 73.95 295.544 73.6781 296.631C73.4047 297.724 72.9156 298.875 72.3336 299.984C71.1695 302.204 69.6002 304.323 68.5068 305.602C68.4907 305.621 68.4733 305.638 68.4547 305.654C67.8084 306.216 66.8591 307.194 66.1292 308.284C65.3816 309.4 64.9487 310.509 65.122 311.378C65.1921 311.729 65.4334 312.029 65.8795 312.283C66.3315 312.54 66.9491 312.721 67.661 312.835C69.0812 313.061 70.7389 312.997 71.831 312.866C71.9476 312.852 72.0654 312.879 72.1637 312.943C74.708 314.601 77.314 314.605 79.3362 314.122C80.3488 313.881 81.2075 313.518 81.8246 313.187C82.1334 313.021 82.3761 312.866 82.5441 312.742C82.6152 312.69 82.669 312.646 82.707 312.612C82.7092 312.576 82.7114 312.531 82.7133 312.477C82.7199 312.296 82.7236 312.037 82.7245 311.704C82.7262 311.038 82.7166 310.096 82.6979 308.939C82.6604 306.627 82.5865 303.467 82.4947 299.974C82.311 292.989 82.0556 284.676 81.8764 279.151C81.8393 278.009 81.6086 250.905 81.8738 237.204C80.6823 234.741 80.5315 231.942 80.7887 229.468C81.0443 227.008 81.708 224.825 82.2097 223.523C82.2123 220.707 82.3295 216.596 82.4464 212.972C82.4809 211.904 82.5153 210.879 82.5467 209.942C82.6235 207.654 82.6827 205.889 82.6827 205.291L82.6827 205.286L83.0623 166.853C80.7923 168.207 77.3811 169.669 73.6152 170.079C69.3702 170.54 64.6526 169.662 60.651 165.762L61.3489 165.046C65.0904 168.693 69.4877 169.521 73.5072 169.085C77.4051 168.661 80.927 167.046 83.074 165.671L83.2204 150.846C83.2231 150.573 83.4454 150.352 83.7192 150.351C83.9929 150.351 84.2163 150.57 84.2203 150.844L84.2204 150.856L84.4397 165.651C86.8865 167.031 90.7742 168.603 94.7696 169.003C98.8963 169.416 103.053 168.575 105.918 165.087L106.691 165.722C103.534 169.564 98.9818 170.43 94.67 169.998C90.7737 169.608 87.0038 168.157 84.4567 166.8L85.027 205.291C85.027 205.889 85.0862 207.654 85.1629 209.942C85.1944 210.879 85.2287 211.904 85.2632 212.972C85.3798 216.586 85.4967 220.683 85.4999 223.498C86.5126 225.542 86.7166 228.159 86.618 230.618C86.5223 233.005 86.137 235.315 85.869 236.921C85.8568 236.994 85.8447 237.066 85.833 237.137L85.2958 279.141C85.2957 279.151 85.2953 279.16 85.2946 279.17C84.5089 290.389 83.966 306.058 84.2104 312.561C88.879 315.871 94.0637 314.209 96.0911 312.938C96.1923 312.875 96.3129 312.85 96.4309 312.868C100.543 313.486 101.636 311.946 101.773 311.411C101.798 310.568 101.412 309.442 100.766 308.267C100.118 307.09 99.2489 305.936 98.4189 305.088C98.3658 305.033 98.3121 304.979 98.2578 304.923C96.1046 302.726 92.9936 299.552 93.5018 293.645C93.5036 293.625 93.5067 293.604 93.5111 293.583C95.0325 286.496 99.1555 268.743 103.7 258.981C105.907 254.24 106.295 248.485 105.992 243.061C105.751 238.757 105.079 234.711 104.56 231.587C104.425 230.776 104.301 230.028 104.197 229.353C104.193 229.328 104.191 229.302 104.191 229.277V210.681C104.191 210.661 104.192 210.641 104.195 210.621C104.496 208.129 105.395 204.439 106.412 200.265C106.773 198.782 107.149 197.238 107.519 195.664C108.937 189.626 110.269 183.123 110.375 177.792C110.375 177.784 110.375 177.776 110.376 177.768C111.499 160.991 110.372 138.319 108.236 128.862C108.228 128.826 108.224 128.789 108.224 128.752V108.539C108.224 108.47 108.238 108.401 108.266 108.338L112.268 99.2454L114.142 81.8047L115.136 81.9115L113.297 99.0301C113.352 99.0608 113.403 99.0942 113.452 99.1285C113.647 99.2665 113.838 99.4555 114.025 99.6739C114.4 100.112 114.804 100.727 115.219 101.467C116.053 102.949 116.97 104.998 117.823 107.294C119.51 111.838 120.976 117.44 121 121.64L134.455 152.538C134.493 152.625 134.505 152.722 134.49 152.815C134.181 154.778 134.415 156.932 134.847 158.846C135.278 160.758 135.898 162.394 136.33 163.303C136.358 163.362 136.374 163.425 136.378 163.49L136.91 173.095C137.315 173.943 137.63 174.404 137.855 174.622C137.911 174.676 137.953 174.707 137.981 174.724C137.998 174.702 138.018 174.67 138.041 174.627C138.089 174.534 138.137 174.407 138.179 174.249C138.261 173.944 138.312 173.574 138.335 173.224L138.068 169.755C138.065 169.713 138.067 169.672 138.074 169.631C138.29 168.389 138.52 167.567 138.776 167.095C138.899 166.87 139.081 166.621 139.365 166.521C139.709 166.399 139.999 166.554 140.173 166.717C140.337 166.871 140.461 167.083 140.558 167.286C140.659 167.498 140.749 167.743 140.829 167.998C140.988 168.51 141.118 169.101 141.21 169.631C141.214 169.651 141.216 169.671 141.217 169.691L141.482 174.998C141.893 176.016 142.229 176.59 142.482 176.877C142.576 176.983 142.642 177.03 142.676 177.049C142.697 177.029 142.729 176.991 142.769 176.924C142.829 176.821 142.889 176.681 142.945 176.507C143.054 176.17 143.13 175.757 143.174 175.363L142.907 170.553C142.907 170.543 142.906 170.534 142.906 170.525C142.906 169.338 142.982 168.54 143.136 168.063C143.208 167.841 143.334 167.565 143.594 167.42C143.922 167.239 144.233 167.371 144.409 167.502C144.58 167.628 144.722 167.812 144.836 167.989C144.957 168.174 145.073 168.392 145.181 168.62C145.391 169.063 145.588 169.579 145.747 170.05C146.824 171.922 148.319 174.275 149.37 175.402C149.577 175.623 149.746 175.774 149.874 175.865C149.882 175.786 149.886 175.685 149.882 175.558C149.872 175.187 149.802 174.653 149.65 173.919L147.256 168.852C147.238 168.814 147.225 168.773 147.217 168.732C147 167.593 146.934 166.796 147.005 166.277C147.04 166.024 147.117 165.754 147.305 165.559C147.528 165.326 147.82 165.284 148.07 165.342C148.289 165.393 148.487 165.519 148.645 165.644C148.811 165.776 148.976 165.94 149.132 166.115C149.443 166.463 149.752 166.89 150.006 167.283C150.008 167.285 150.009 167.287 150.01 167.289L152.926 171.54C153.919 172.426 154.542 172.811 154.894 172.92C154.957 172.939 154.999 172.946 155.026 172.948C155.029 172.938 155.032 172.925 155.036 172.909C155.084 172.679 155.034 172.24 154.871 171.649C154.718 171.095 154.489 170.486 154.253 169.947L149.7 162.429C149.693 162.418 149.686 162.405 149.68 162.393C149.67 162.372 149.661 162.35 149.653 162.328C149.328 161.348 149.183 160.629 149.214 160.127C149.23 159.874 149.294 159.612 149.467 159.408C149.656 159.184 149.911 159.102 150.15 159.103C150.371 159.104 150.586 159.174 150.768 159.257C150.957 159.343 151.147 159.458 151.329 159.585C151.682 159.831 152.038 160.145 152.337 160.443C152.706 160.715 153.984 161.553 156.282 162.81C157.402 163.422 157.908 163.276 158.117 163.125C158.324 162.976 158.45 162.684 158.488 162.373C156.864 160.824 153.317 157.206 150.803 153.846C148.342 150.557 144.827 149.921 143.436 150.003C143.205 150.016 142.995 149.87 142.928 149.65L135.938 126.742C135.926 126.703 135.919 126.664 135.917 126.623C135.384 117.011 133.261 112.144 130.333 106.896C130.276 106.794 130.257 106.674 130.279 106.559C130.48 105.499 130.471 103.84 130.303 101.806C130.136 99.7862 129.817 97.4407 129.423 95.03C128.635 90.2092 127.548 85.1547 126.789 81.9743C126.773 81.908 126.771 81.8393 126.782 81.7722C129.017 68.9752 125.452 60.7509 120.212 55.8712C114.942 50.9649 107.924 49.385 103.18 49.9958C103.058 50.0115 102.935 49.9818 102.833 49.9125C101.564 49.0434 99.4613 47.9396 97.3851 46.8495L97.3445 46.8283C95.2871 45.7481 93.2414 44.6736 92.2018 43.9012C92.0748 43.8069 92 43.6581 92 43.4999V34.4662C83.5602 40.1774 75.6764 37.2757 72 34.5491ZM83.8204 191.352L84.027 205.291C84.027 205.292 84.027 205.293 84.027 205.295C84.0272 205.915 84.0875 207.711 84.1647 210.012C84.1959 210.942 84.2298 211.954 84.2637 213.005C84.382 216.671 84.5 220.818 84.5 223.617C84.5 223.697 84.519 223.775 84.5555 223.846C85.4948 225.67 85.7172 228.123 85.6188 230.578C85.5257 232.901 85.1497 235.155 84.881 236.766C84.8671 236.849 84.8536 236.931 84.8403 237.01C84.8361 237.035 84.8339 237.061 84.8336 237.086L84.296 279.114C83.9255 284.409 83.6084 290.698 83.4025 296.555C83.2318 290.403 83.0268 283.772 82.8759 279.119C82.8394 277.994 82.6073 250.751 82.876 237.102C82.8776 237.021 82.8596 236.942 82.8235 236.869C81.6993 234.615 81.5326 231.983 81.7833 229.571C82.0335 227.164 82.6947 225.026 83.1752 223.8C83.198 223.742 83.2097 223.68 83.2097 223.617C83.2097 220.818 83.3276 216.671 83.4459 213.005C83.4798 211.954 83.5138 210.942 83.545 210.012C83.6222 207.71 83.6825 205.913 83.6827 205.294C83.6827 205.293 83.6827 205.292 83.6827 205.291L83.8204 191.352ZM77.3813 80.705C78.6544 75.6596 77.8907 70.5865 76.7962 67.4706L77.7396 67.1392C78.8856 70.4016 79.6812 75.6775 78.3509 80.9496C77.0142 86.247 73.5333 91.5214 66.175 94.714L65.7769 93.7966C72.8292 90.7368 76.1146 85.7251 77.3813 80.705ZM88.9502 81.6423C87.5329 76.2826 88.1502 70.6909 89.1544 67.1679L90.1161 67.442C89.1487 70.8362 88.5561 76.2403 89.917 81.3867C91.2714 86.5086 94.5545 91.3691 101.363 93.7841L101.029 94.7266C93.8571 92.1827 90.374 87.0266 88.9502 81.6423ZM82.9516 128.213V95.0638H83.9516V128.213H82.9516ZM41.9615 118.154C40.7481 118.222 39.5595 117.759 38.8327 117.322L39.3481 116.465C39.9656 116.837 40.9548 117.209 41.9056 117.156C42.3724 117.13 42.82 117.002 43.2169 116.731C43.6124 116.461 43.9861 116.029 44.2766 115.35L45.1961 115.743C44.8414 116.572 44.3547 117.165 43.7807 117.557C43.208 117.948 42.5769 118.12 41.9615 118.154ZM125.229 117.427C124.177 117.015 123.638 116.285 123.51 115.644L124.49 115.448C124.542 115.706 124.809 116.188 125.594 116.495C126.382 116.804 127.702 116.933 129.793 116.409L130.036 117.379C127.826 117.933 126.278 117.837 125.229 117.427ZM75.6817 222.151C72.8907 220.352 70.5918 221.419 69.8349 222.102L69.165 221.359C70.2005 220.425 72.992 219.228 76.2234 221.31L75.6817 222.151ZM96.8924 222.151C94.1014 220.352 91.8025 221.419 91.0456 222.102L90.3757 221.359C91.4112 220.425 94.2027 219.228 97.4341 221.31L96.8924 222.151Z" fill="black"/>
<path fill-rule="evenodd" clip-rule="evenodd" d="M80.5417 6.51098C78.2852 6.57531 75.9763 6.93226 74.3051 7.82537C72.1369 8.98413 70.8391 10.13 70.0199 11.119C69.2356 12.0657 68.8742 12.8859 68.6025 13.5023C68.5908 13.529 68.5792 13.5553 68.5677 13.5812C68.4866 13.7648 68.3661 14.2583 68.2434 15.0105C68.1245 15.7398 68.0116 16.6588 67.9293 17.6514C67.7666 19.6129 67.7277 21.8134 67.9795 23.3908L70.2091 27.4562L70.487 31.7839C72.3709 33.6961 75.7178 35.9427 79.7682 36.6066C83.8417 37.2742 88.6723 36.3503 93.5144 31.7719L93.8115 27.4551L96.0133 23.4404C95.6786 17.1312 94.79 13.492 94.4003 12.4691C93.6286 10.9856 92.1256 9.74054 90.4975 8.78052C88.8816 7.82768 87.2028 7.1909 86.1533 6.89649C84.8879 6.67105 82.7727 6.44738 80.5417 6.51098ZM96.4038 23.843C96.4039 23.8427 96.4056 23.8454 96.4087 23.8522C96.4052 23.8467 96.4037 23.8434 96.4038 23.843ZM96.9941 23.0626C96.6414 16.8564 95.7562 13.1962 95.323 12.0826L95.3136 12.0583L95.3017 12.0352C94.4068 10.2946 92.7064 8.9221 91.0055 7.91912C89.2954 6.91076 87.5221 6.23935 86.3989 5.92681L86.3763 5.92053L86.3533 5.91639C85.0291 5.67851 82.8327 5.44526 80.5132 5.51139C78.2057 5.57717 75.7104 5.94053 73.8338 6.94342C71.5674 8.15467 70.1628 9.37882 69.2498 10.481C68.3757 11.5362 67.9678 12.4624 67.6903 13.0925C67.6776 13.1213 67.6652 13.1495 67.653 13.1771C67.5124 13.4953 67.3765 14.1136 67.2565 14.8495C67.1328 15.6083 67.0169 16.5538 66.9327 17.5687C66.7815 19.3924 66.7292 21.4808 66.9326 23.1266C66.7757 23.255 66.6925 23.4393 66.647 23.5788C66.5092 24.001 66.4754 24.7444 66.5862 25.9712C66.7063 27.2993 67.2767 28.6339 67.8937 29.7429C68.5146 30.859 69.2056 31.7868 69.6033 32.3046C69.6144 32.319 69.6263 32.3328 69.6389 32.346C71.6139 34.4068 75.2073 36.8724 79.6065 37.5934C84.0356 38.3194 89.2348 37.2676 94.3461 32.3607C94.3643 32.3433 94.3811 32.3245 94.3964 32.3046C94.793 31.7882 95.4892 30.8604 96.1152 29.7445C96.7373 28.6356 97.3137 27.3005 97.4338 25.9712C97.5447 24.7444 97.5109 24.0009 97.373 23.5788C97.3192 23.4139 97.2127 23.1863 96.9941 23.0626ZM67.5205 24.6335C67.5178 24.9402 67.5339 25.3473 67.5822 25.8812C67.6839 27.0067 68.1786 28.1979 68.7676 29.2568C68.9708 29.622 69.1825 29.9667 69.3885 30.2823L69.2254 27.7421L67.5205 24.6335ZM96.4995 24.6334L94.794 27.7432L94.6196 30.2772C94.8264 29.9625 95.039 29.619 95.2431 29.2552C95.8373 28.1961 96.3362 27.0056 96.4379 25.8812C96.4861 25.3473 96.5023 24.9402 96.4995 24.6334ZM67.6162 23.843C67.6164 23.8433 67.6148 23.8467 67.6114 23.8522C67.6144 23.8455 67.6161 23.8427 67.6162 23.843Z" fill="black"/>
</svg>
