<svg width="168" height="320" viewBox="0 0 168 320" fill="none" xmlns="http://www.w3.org/2000/svg">
<path fill-rule="evenodd" clip-rule="evenodd" d="M77.1982 50.9075C77.2263 51.1053 77.2254 51.3097 77.2111 51.5001C77.1781 51.9384 77.0672 52.3797 76.9744 52.6582L76.8543 53.0184L76.4751 52.9994C75.2372 52.9376 72.8128 53.3286 69.8637 54.323C66.9297 55.3124 63.5242 56.8832 60.3271 59.1399C53.9399 63.6485 48.4119 70.8681 49.0635 81.6803L49.0665 81.73L46.4038 100.892C46.3561 102.61 46.0582 105.259 45.3121 107.683C44.9369 108.903 44.4426 110.084 43.7964 111.065C43.1509 112.045 42.3348 112.853 41.3076 113.276C40.9993 113.402 40.5817 113.79 40.0785 114.523C39.5894 115.235 39.0672 116.201 38.524 117.373C37.4385 119.715 36.2953 122.82 35.1827 126.221C32.9587 133.017 30.8744 140.938 29.6352 146.158L29.5851 146.369L29.3967 146.477C28.8626 146.782 28.1472 146.979 27.4226 147.163C27.3023 147.193 27.1808 147.224 27.0583 147.254C26.4184 147.415 25.7524 147.581 25.0903 147.811C23.5253 148.354 22.0888 149.212 21.3679 151.013C20.0372 154.339 16.9802 155.927 15.5213 156.341C15.0926 156.611 14.6396 156.941 14.2665 157.284C13.8617 157.657 13.6084 157.993 13.5267 158.246C13.4898 158.36 13.4976 158.426 13.5119 158.466C13.5257 158.505 13.5665 158.579 13.7083 158.669C14.0003 158.853 14.5981 159.029 15.6861 159.091L18.234 157.054L18.2748 157.032C18.6251 156.846 19.0388 156.657 19.4366 156.529C19.8087 156.409 20.2623 156.31 20.6433 156.403C20.8543 156.454 21.0752 156.574 21.2186 156.806C21.3567 157.03 21.3781 157.287 21.3473 157.527C21.2882 157.989 21.0111 158.585 20.5264 159.339L15.7536 166.76C15.5211 167.227 15.2919 167.753 15.134 168.231C15.0537 168.474 14.9946 168.695 14.9617 168.884C14.9337 169.045 14.9283 169.161 14.9343 169.238C14.9512 169.234 14.9712 169.229 14.9945 169.223C15.3113 169.129 15.8825 168.797 16.8047 168.035L19.4199 164.114C19.6467 163.752 19.9139 163.36 20.1703 163.041C20.2988 162.882 20.4322 162.732 20.5628 162.611C20.6786 162.503 20.8476 162.365 21.0475 162.309C21.1589 162.278 21.3164 162.262 21.4811 162.331C21.6501 162.402 21.7535 162.531 21.8114 162.65C21.9118 162.856 21.915 163.108 21.8995 163.324C21.8659 163.793 21.7029 164.525 21.3826 165.592L21.364 165.654L18.4425 170.433C18.2983 170.977 18.1677 171.58 18.0955 172.119C18.0235 172.657 18.0212 173.056 18.0713 173.275C18.0771 173.272 18.0831 173.269 18.0894 173.265C18.3861 173.093 18.895 172.604 19.6757 171.569L22.056 166.546L22.0655 166.53C22.3366 166.055 22.6554 165.541 22.9602 165.119C23.1122 164.908 23.2669 164.712 23.4153 164.553C23.5515 164.408 23.7269 164.244 23.9241 164.159C24.0284 164.114 24.1891 164.069 24.3715 164.114C24.5704 164.164 24.7031 164.297 24.7793 164.432C24.9055 164.656 24.9132 164.947 24.8988 165.199C24.8671 165.752 24.6839 166.645 24.3109 167.976L24.3051 167.997L22.7027 172.267C22.7026 172.268 22.7024 172.268 22.7023 172.269C22.5536 172.672 22.4192 173.119 22.3471 173.51C22.311 173.706 22.2927 173.876 22.2926 174.012C22.2925 174.072 22.296 174.119 22.3007 174.155C22.3243 174.146 22.3531 174.135 22.3876 174.119C22.6889 173.982 23.1844 173.619 23.9355 172.876L26.0367 167.626L26.0521 167.598C26.2779 167.192 26.5427 166.747 26.7944 166.374C26.92 166.187 27.0467 166.013 27.1672 165.868C27.2792 165.733 27.4161 165.586 27.5647 165.491C27.6365 165.446 27.7654 165.377 27.9303 165.375C28.1352 165.372 28.3124 165.473 28.421 165.629C28.5094 165.755 28.5365 165.893 28.5472 165.987C28.559 166.089 28.5572 166.199 28.5485 166.31C28.5149 166.737 28.3554 167.434 28.0449 168.473L27.7854 170.808C27.765 171.163 27.7651 171.551 27.7986 171.882C27.8155 172.05 27.8401 172.193 27.8707 172.305C27.8725 172.312 27.8743 172.318 27.876 172.324C28.0555 172.145 28.3219 171.778 28.6813 171.111C29.0818 169.645 29.7005 167.477 30.2745 165.663C30.5647 164.747 30.8462 163.912 31.0842 163.302C31.2023 163 31.3154 162.738 31.4186 162.545C31.469 162.451 31.5278 162.353 31.595 162.272C31.6285 162.232 31.677 162.179 31.7416 162.133C31.7755 162.109 31.8257 162.079 31.8902 162.056C31.9134 162.031 31.9459 161.992 31.9879 161.936C32.109 161.776 32.2661 161.532 32.4497 161.22C32.8148 160.6 33.2575 159.756 33.6868 158.882C34.1157 158.008 34.5269 157.111 34.8297 156.388C34.9814 156.025 35.1035 155.711 35.1867 155.468C35.2285 155.346 35.2584 155.248 35.2774 155.173C35.2948 155.104 35.2975 155.077 35.2979 155.077C35.298 155.077 35.298 155.078 35.298 155.081C35.298 154.462 35.1222 151.311 35.0329 149.794L35.0229 149.624L35.1188 149.483C37.9446 145.335 41.8038 138.907 45.1214 133.141C48.4448 127.365 51.1993 122.296 51.8299 120.854C52.3941 119.563 52.87 118.252 53.3189 117.015L53.3809 116.845C53.8444 115.568 54.2861 114.364 54.765 113.39C56.0408 110.796 57.6836 106.851 58.9825 103.469C59.6315 101.78 60.1921 100.237 60.5764 99.0805C60.7689 98.501 60.9148 98.0253 61.0055 97.6791C61.0511 97.5049 61.0802 97.3732 61.0949 97.282C61.0994 97.2543 61.102 97.2338 61.1034 97.2195C61.1 97.2046 61.0968 97.1882 61.0943 97.1709C61.091 97.1479 61.084 97.0913 61.094 97.0212C61.101 96.9721 61.1317 96.8116 61.2816 96.6949C61.3305 96.5864 61.3833 96.4068 61.4193 96.1289C61.4695 95.7416 61.4787 95.238 61.4491 94.6355C61.39 93.4324 61.1797 91.8996 60.8852 90.2449C60.2969 86.9393 59.3833 83.2065 58.7209 80.7787L59.6856 80.5154C60.353 82.9613 61.2745 86.725 61.8698 90.0697C62.1671 91.7402 62.3857 93.321 62.4479 94.5864C62.479 95.218 62.472 95.7873 62.411 96.2574C62.3732 96.5493 62.3104 96.8398 62.1999 97.0904C62.2028 97.0953 62.2056 97.1002 62.2085 97.1051C62.36 97.3658 62.5801 97.7852 62.8363 98.3397C63.3494 99.4503 64.0163 101.122 64.573 103.179C65.6852 107.289 66.3682 112.977 64.4661 118.816C62.8818 123.68 61.4831 126.406 60.2289 128.85C59.998 129.3 59.772 129.741 59.5506 130.183C58.1408 133.002 56.8927 135.949 55.7048 142.149C54.5248 148.308 55.2474 158.364 56.3805 167.257C57.512 176.137 59.0359 183.738 59.4144 184.971C60.4867 188.321 62.6891 196.914 64.3048 205.732C65.1132 210.144 65.7768 214.624 66.0778 218.54C66.3757 222.416 66.3246 225.806 65.6671 228.029C65.1457 231.488 64.9769 236.831 65.0758 241.984C65.175 247.159 65.5429 252.082 66.0762 254.668L66.0865 254.718V254.768C66.0865 254.759 66.0866 254.765 66.0905 254.797C66.0924 254.812 66.0953 254.834 66.0994 254.862C66.1052 254.903 66.1126 254.951 66.1216 255.006C66.1297 255.056 66.1389 255.111 66.1494 255.173C66.1939 255.433 66.2588 255.789 66.3397 256.219C66.5013 257.078 66.7253 258.226 66.9746 259.484C67.4724 261.996 68.0698 264.942 68.4687 266.891C68.4691 266.893 68.4696 266.895 68.47 266.898L72.9854 286.277C73.4413 287.833 73.8179 290.266 73.9617 292.799C74.1052 295.327 74.0203 298.009 73.5251 300.056C73.3845 301.024 73.0294 302.542 72.4108 304.016C71.7932 305.488 70.8789 306.999 69.5784 307.827C67.5073 309.144 67.6076 311.353 67.9226 312.298L67.9482 312.375V312.456C67.9482 312.601 68.0506 312.971 68.608 313.302C69.1694 313.636 70.1882 313.92 71.9404 313.817L72.0975 313.808L72.2317 313.891C72.776 314.225 73.7205 314.698 74.753 315.007C75.7998 315.321 76.8528 315.441 77.663 315.171L77.7657 315.137L77.8733 315.148C78.6903 315.234 79.9207 315.271 80.9564 315.112C81.4771 315.031 81.9115 314.907 82.2146 314.74C82.5136 314.574 82.6225 314.406 82.6454 314.246C82.693 313.913 82.7256 313.017 82.7427 311.734C82.7595 310.468 82.7612 308.865 82.7534 307.148C82.7383 303.81 82.6877 300.052 82.6442 297.526C82.2323 297.135 81.7039 296.544 81.2755 295.87C80.7981 295.118 80.3854 294.17 80.5177 293.245C80.5804 292.806 80.7452 290.335 80.9582 286.791C81.1701 283.266 81.4277 278.716 81.677 274.154C82.1763 265.016 82.6404 255.867 82.6404 254.769C82.6404 253.829 82.3093 247.27 81.943 240.854C81.7602 237.651 81.5692 234.493 81.4073 232.104C81.3263 230.908 81.2528 229.908 81.1913 229.19C81.1606 228.831 81.1331 228.547 81.1097 228.346C81.0979 228.245 81.0877 228.171 81.0794 228.121C81.077 228.107 81.0751 228.096 81.0737 228.089C81.0394 227.997 81.0313 227.909 81.0281 227.873L81.0278 227.87C81.0217 227.803 81.0192 227.726 81.0187 227.645C81.0176 227.481 81.0245 227.266 81.0374 227.011C81.0633 226.499 81.1147 225.8 81.1834 224.976C81.3209 223.326 81.529 221.155 81.7451 218.935C81.7855 218.519 81.8262 218.103 81.8667 217.688C82.2614 213.641 82.6404 209.758 82.6404 208.78V185.652C82.6404 185.53 82.6614 184.643 82.6951 183.222C82.7462 181.067 82.8264 177.686 82.9065 173.885C82.992 169.822 83.0775 165.275 83.1276 161.216C83.0973 161.24 83.0663 161.265 83.0346 161.291C82.6743 161.582 82.2286 161.942 81.712 162.327C80.4215 163.29 78.6591 164.435 76.5062 165.189C74.3488 165.945 71.7991 166.309 68.9459 165.705C66.0937 165.102 62.9733 163.54 59.6619 160.5L60.3381 159.764C63.5429 162.705 66.5067 164.167 69.1528 164.727C71.7979 165.286 74.1604 164.952 76.1755 164.246C78.1952 163.538 79.8654 162.457 81.114 161.526C81.6136 161.153 82.0408 160.808 82.4005 160.518C82.4912 160.444 82.5777 160.375 82.6599 160.309C82.8376 160.166 83.0006 160.038 83.1424 159.936C83.1613 158.169 83.1723 156.522 83.1723 155.081V139.928H84.1723V155.074L84.2982 159.897C86.5083 161.772 90.2179 163.961 94.3515 164.609C98.5596 165.268 103.213 164.336 107.235 159.8L107.984 160.464C103.707 165.286 98.6973 166.302 94.1966 165.597C90.2418 164.977 86.6857 163.032 84.3325 161.211L84.9696 185.628C84.9697 185.63 84.9698 185.632 84.9699 185.634C85.3249 193.002 85.5022 207.825 85.5022 208.78C85.5022 209.975 86.2094 221.849 86.8294 227.869L86.8346 227.92L86.8295 227.97C85.9439 236.733 85.0682 253.646 85.0682 254.769C85.0682 255.039 85.1479 256.487 85.2708 258.718C85.4214 261.453 85.6368 265.365 85.8497 269.728C86.2346 277.611 86.6091 286.933 86.5663 293.284C86.6816 294.197 86.2738 295.129 85.8032 295.87C85.3761 296.542 84.8496 297.131 84.4383 297.522V314.034C84.777 314.231 85.2416 314.477 85.7319 314.688C86.3649 314.961 86.9723 315.146 87.3959 315.146C87.7659 315.146 88.2298 315.2 88.7031 315.262C88.8071 315.276 88.9122 315.29 89.0181 315.304C89.4071 315.355 89.8069 315.409 90.2034 315.447C90.708 315.496 91.1802 315.518 91.5804 315.484C91.9911 315.449 92.2611 315.361 92.4153 315.246C92.8907 314.889 93.6015 314.538 94.2649 314.25C94.938 313.958 95.6035 313.713 96.0148 313.576L96.0917 313.551H99.1368C99.5745 313.017 100.031 312.17 100.116 311.209C100.208 310.177 99.879 308.96 98.5072 307.784C96.9381 306.44 95.7047 304.416 94.8018 302.471C93.8953 300.52 93.2993 298.599 93.026 297.416L93.0182 297.382L93.0151 297.347C92.8801 295.821 93.1822 293.324 93.6996 290.446C94.2203 287.549 94.9708 284.208 95.7622 280.962C97.3451 274.47 99.0974 268.336 99.5193 266.86C100.516 263.376 102.184 255.722 102.327 254.7C102.343 254.588 102.378 254.383 102.427 254.095C102.673 252.658 103.275 249.153 103.587 244.82C103.962 239.615 103.913 233.292 102.343 228.064C101.676 225.841 101.619 222.437 101.912 218.541C102.207 214.625 102.863 210.145 103.664 205.733C105.262 196.924 107.446 188.339 108.52 184.981C110.278 178.25 111.361 168.765 111.885 160.327C112.146 156.109 112.268 152.162 112.265 148.964C112.262 145.751 112.133 143.333 111.906 142.149C110.718 135.949 109.47 133.002 108.06 130.183C107.839 129.741 107.613 129.3 107.382 128.85C106.127 126.406 104.729 123.68 103.145 118.816L103.136 118.79L103.13 118.763C102.951 117.894 102.489 114.002 102.536 109.565C102.56 107.342 102.711 104.967 103.095 102.756C103.456 100.67 104.029 98.6994 104.917 97.1342C104.794 96.874 104.726 96.5665 104.686 96.2574C104.625 95.7873 104.618 95.218 104.649 94.5864C104.711 93.321 104.93 91.7402 105.227 90.0697C105.822 86.725 106.744 82.9613 107.411 80.5154L108.376 80.7787C107.714 83.2065 106.8 86.9393 106.212 90.2449C105.917 91.8996 105.707 93.4324 105.648 94.6355C105.618 95.238 105.627 95.7416 105.678 96.1289C105.731 96.5373 105.82 96.7334 105.88 96.8034L105.931 96.8628L105.961 96.9351C108.262 102.408 109.337 105.605 111.243 111.278C111.473 111.964 111.716 112.685 111.974 113.451C112.791 115.875 113.924 118.5 114.959 120.625C115.476 121.688 115.967 122.62 116.378 123.336C116.802 124.074 117.114 124.53 117.272 124.688C117.361 124.777 117.471 124.925 117.583 125.087C117.704 125.26 117.853 125.485 118.026 125.754C118.373 126.293 118.825 127.023 119.355 127.895C120.415 129.64 121.794 131.967 123.287 134.512C126.274 139.602 129.719 145.572 131.98 149.516L132.039 149.618L132.046 149.735C132.134 151.227 132.358 153.503 132.742 155.477C132.935 156.466 133.164 157.36 133.429 158.036C133.561 158.374 133.696 158.641 133.829 158.834C133.966 159.033 134.074 159.113 134.137 159.141C134.443 159.272 134.698 159.532 134.91 159.813C135.129 160.103 135.339 160.469 135.541 160.878C135.945 161.698 136.339 162.75 136.703 163.872C137.426 166.096 138.05 168.651 138.408 170.346C138.557 170.685 138.719 171.036 138.884 171.333C138.971 171.487 139.053 171.617 139.129 171.718C139.143 171.737 139.156 171.753 139.169 171.769C139.258 171.557 139.361 171.165 139.448 170.498L139.032 167.123C138.986 166.89 138.947 166.623 138.938 166.378C138.933 166.253 138.935 166.122 138.952 165.998C138.968 165.883 139.002 165.726 139.095 165.585C139.205 165.419 139.401 165.278 139.663 165.287C139.876 165.295 140.048 165.401 140.166 165.492C140.408 165.679 140.683 166.016 141.006 166.5C141.656 167.475 142.348 168.666 142.924 169.794C143.456 170.837 143.905 171.859 144.118 172.614C144.171 172.659 144.223 172.705 144.276 172.75C144.508 172.952 144.74 173.153 144.966 173.332C145.122 173.455 145.263 173.558 145.388 173.635C145.416 173.653 145.442 173.669 145.466 173.682C145.457 173.421 145.378 172.967 145.163 172.236C144.638 170.449 144.138 169.215 143.733 168.403C143.53 167.997 143.353 167.701 143.212 167.497C143.063 167.282 142.973 167.195 142.949 167.178L142.775 167.047L142.752 166.83C142.706 166.393 142.679 165.892 142.696 165.433C142.713 165.001 142.772 164.517 142.957 164.179C143.055 164 143.227 163.791 143.512 163.72C143.798 163.649 144.06 163.748 144.26 163.879C144.643 164.129 145.06 164.657 145.54 165.457C147.089 168.039 148.002 170.14 148.423 171.109C148.499 171.285 148.559 171.424 148.604 171.521C148.742 171.644 148.887 171.78 149.028 171.914L149.08 171.962C149.234 172.108 149.386 172.252 149.535 172.386C149.7 172.535 149.852 172.663 149.986 172.76C150.017 172.782 150.046 172.801 150.072 172.818C150.079 172.459 149.984 171.801 149.699 170.697L146.78 165.923L146.762 165.864C146.647 165.496 146.535 165.074 146.468 164.689C146.434 164.497 146.41 164.304 146.404 164.127C146.398 163.959 146.407 163.765 146.465 163.59C146.525 163.41 146.674 163.157 146.995 163.091C147.266 163.035 147.509 163.152 147.67 163.255C148.01 163.471 148.432 163.919 148.965 164.612C150.602 166.739 151.391 167.799 151.671 168.178C152.334 168.873 152.832 169.335 153.189 169.61C153.084 169.304 152.915 168.911 152.686 168.446C151.556 166.153 149.142 162.466 146.867 159.934L146.855 159.921L146.843 159.906C146.488 159.448 146.23 158.891 146.083 158.355C145.938 157.829 145.884 157.267 145.996 156.808C146.053 156.575 146.161 156.334 146.357 156.15C146.564 155.956 146.832 155.861 147.125 155.87C147.658 155.886 148.254 156.242 148.906 156.839C150.505 158.304 151.261 158.861 151.632 159.06C151.724 159.11 151.776 159.128 151.8 159.135L151.803 159.134C151.832 159.126 151.921 159.1 152.026 159.1C152.086 159.1 152.448 159.1 152.892 159.053C153.348 159.005 153.835 158.912 154.17 158.751C154.337 158.671 154.425 158.594 154.465 158.536C154.494 158.495 154.511 158.45 154.492 158.359C154.468 158.247 154.384 158.06 154.152 157.788C153.922 157.52 153.571 157.196 153.056 156.81C149.625 154.238 146.097 150.748 144.752 149.315C144.204 148.769 143.252 147.996 142.194 147.467C141.115 146.926 140.041 146.694 139.179 147.039C138.827 147.179 138.474 147.211 138.134 147.122C137.8 147.035 137.521 146.842 137.291 146.602C136.842 146.135 136.523 145.429 136.289 144.684C135.821 143.193 135.618 141.294 135.57 139.989C134.599 135.381 132.511 129.193 130.447 123.77C128.374 118.323 126.347 113.704 125.527 112.263C125.058 111.44 124.443 110.654 123.764 109.845C123.569 109.613 123.369 109.379 123.166 109.141C122.668 108.559 122.154 107.957 121.676 107.336C120.323 105.578 119.17 103.553 119.16 100.886L116.498 81.73L116.501 81.6803C117.153 70.8681 111.625 63.6485 105.237 59.1399C102.04 56.8832 98.6347 55.3124 95.7007 54.323C92.7517 53.3286 90.3273 52.9376 89.0894 52.9994L88.7102 53.0184L88.5901 52.6582C88.5793 52.6258 88.5667 52.5891 88.5528 52.5487C88.4708 52.3101 88.3445 51.9428 88.2881 51.5762C88.2574 51.377 88.2404 51.1374 88.2786 50.8948C84.117 50.3045 79.529 50.6108 77.1982 50.9075ZM105.443 98.2907C104.821 99.604 104.38 101.197 104.08 102.927C103.709 105.068 103.559 107.386 103.536 109.576C103.49 113.917 103.939 117.699 104.104 118.534C105.659 123.301 107.021 125.957 108.269 128.39C108.502 128.842 108.73 129.287 108.954 129.736C110.404 132.633 111.682 135.667 112.888 141.961C113.135 143.25 113.262 145.756 113.265 148.963C113.268 152.185 113.145 156.153 112.883 160.389C112.358 168.852 111.269 178.421 109.484 185.247L109.48 185.26L109.476 185.273C108.421 188.57 106.243 197.121 104.648 205.912C103.85 210.305 103.201 214.748 102.91 218.616C102.617 222.504 102.691 225.745 103.301 227.776C104.923 233.181 104.962 239.649 104.584 244.892C104.267 249.297 103.649 252.893 103.409 254.289C103.363 254.556 103.331 254.742 103.317 254.839C103.165 255.923 101.484 263.625 100.481 267.135C100.059 268.609 98.3117 274.727 96.7337 281.199C95.9446 284.435 95.1994 287.755 94.6838 290.623C94.169 293.487 93.8941 295.844 94.0083 297.225C94.2706 298.348 94.8421 300.184 95.7087 302.05C96.5878 303.943 97.7481 305.817 99.1578 307.025C100.765 308.402 101.234 309.931 101.113 311.297C100.994 312.63 100.32 313.753 99.7318 314.39L99.5833 314.551H96.2547C95.8637 314.684 95.2659 314.906 94.6631 315.167C94.0099 315.451 93.3909 315.764 93.0151 316.046C92.6375 316.329 92.1428 316.44 91.6642 316.48C91.175 316.522 90.6332 316.493 90.1072 316.442C89.6903 316.402 89.2664 316.346 88.8748 316.293C88.772 316.28 88.6714 316.266 88.5738 316.254C88.0913 316.191 87.6908 316.146 87.3959 316.146C86.7555 316.146 85.9888 315.888 85.3363 315.606C84.6674 315.318 84.0466 314.974 83.6734 314.741L83.5652 314.673C83.4124 315.103 83.0745 315.407 82.6981 315.615C82.2471 315.864 81.6808 316.012 81.1087 316.1C80.0043 316.27 78.7399 316.237 77.8731 316.153C76.7921 316.476 75.5425 316.288 74.4659 315.965C73.4195 315.652 72.4617 315.188 71.8433 314.824C70.0646 314.909 68.8698 314.621 68.097 314.162C67.3385 313.711 66.9849 313.087 66.951 312.542C66.5749 311.322 66.483 308.61 69.0417 306.983C70.0816 306.321 70.8962 305.041 71.4887 303.629C72.0751 302.231 72.4108 300.785 72.5386 299.891L72.5421 299.867L72.5478 299.843C73.014 297.932 73.1051 295.353 72.9633 292.855C72.8216 290.36 72.4508 288.002 72.022 286.545L72.0179 286.531L67.4901 267.098C67.0911 265.148 66.4926 262.196 65.9936 259.678C65.7442 258.419 65.5194 257.268 65.3569 256.404C65.2757 255.972 65.2096 255.61 65.1637 255.341C65.1408 255.207 65.1225 255.094 65.1097 255.006C65.1021 254.953 65.0935 254.89 65.0892 254.834C64.5403 252.142 64.1749 247.162 64.076 242.003C63.9765 236.817 64.1452 231.388 64.6837 227.845L64.689 227.81L64.6991 227.776C65.3085 225.746 65.3795 222.504 65.0807 218.617C64.7834 214.749 64.1262 210.306 63.3212 205.913C61.7106 197.122 59.5168 188.57 58.4611 185.273L58.4594 185.268C58.0544 183.952 56.521 176.271 55.3885 167.384C54.2569 158.502 53.5088 148.297 54.7226 141.961C55.9284 135.667 57.207 132.633 58.6563 129.736C58.881 129.287 59.1091 128.842 59.3412 128.39C60.5917 125.952 61.9568 123.291 63.5152 118.507C65.3366 112.915 64.6898 107.439 63.6077 103.44C63.0674 101.443 62.421 99.8251 61.9285 98.7592C61.8876 98.6707 61.8479 98.5863 61.8094 98.5058C61.729 98.7715 61.6336 99.0701 61.5254 99.3958C61.1345 100.572 60.568 102.13 59.916 103.828C58.6128 107.221 56.9576 111.198 55.6624 113.831C55.2121 114.747 54.7889 115.897 54.3208 117.186L54.2561 117.364C53.8094 118.595 53.3237 119.934 52.7462 121.254C52.0887 122.758 49.3023 127.88 45.9882 133.64C42.7053 139.345 38.88 145.72 36.0411 149.905C36.1319 151.459 36.298 154.448 36.298 155.081C36.298 155.196 36.2721 155.319 36.2466 155.419C36.2186 155.53 36.1794 155.656 36.1329 155.792C36.0395 156.065 35.9081 156.401 35.7523 156.773C35.44 157.52 35.02 158.435 34.5845 159.322C34.1495 160.208 33.6945 161.076 33.3116 161.727C33.1212 162.051 32.9416 162.332 32.7864 162.538C32.71 162.64 32.6281 162.738 32.5442 162.816C32.5024 162.855 32.4483 162.9 32.3835 162.937C32.3683 162.946 32.35 162.956 32.3287 162.966C32.3201 162.981 32.3105 162.998 32.2999 163.018C32.2255 163.157 32.1296 163.374 32.0157 163.666C31.7899 164.244 31.5163 165.054 31.2279 165.965C30.6522 167.784 30.0291 169.97 29.6311 171.429L29.6163 171.483L29.5899 171.532C29.1611 172.336 28.7887 172.872 28.4471 173.156C28.275 173.299 28.0505 173.429 27.7856 173.428C27.4931 173.426 27.2809 173.268 27.1498 173.097C27.0272 172.937 26.9538 172.744 26.9059 172.568C26.8562 172.386 26.8241 172.185 26.8037 171.983C26.7628 171.579 26.7647 171.13 26.7879 170.736L26.7886 170.723L27.061 168.273L27.0741 168.229C27.1624 167.935 27.237 167.673 27.2991 167.441C27.1764 167.644 27.0548 167.853 26.9414 168.057L24.7874 173.439L24.7148 173.512C23.9108 174.315 23.287 174.808 22.8027 175.029C22.5609 175.139 22.2898 175.212 22.0214 175.157C21.719 175.095 21.5206 174.893 21.4143 174.664C21.3177 174.456 21.2924 174.221 21.2926 174.011C21.2928 173.795 21.3209 173.561 21.3637 173.329C21.4494 172.864 21.6031 172.359 21.7644 171.922L21.7655 171.919L23.3537 167.686C23.617 166.744 23.7709 166.068 23.8461 165.602C23.8215 165.635 23.7964 165.669 23.771 165.704C23.4974 166.083 23.2017 166.558 22.9431 167.009L20.5361 172.088L20.5058 172.129C19.7078 173.192 19.0845 173.845 18.5899 174.131C18.3424 174.274 18.0264 174.383 17.7053 174.274C17.3719 174.16 17.2122 173.875 17.1373 173.646C16.9928 173.205 17.0255 172.576 17.1043 171.987C17.187 171.369 17.3364 170.694 17.4953 170.104L17.514 170.034L20.4433 165.243C20.6191 164.653 20.7365 164.196 20.8091 163.849C20.6256 164.093 20.4353 164.376 20.2638 164.65L20.2599 164.657L17.5559 168.711L17.5002 168.757C16.5401 169.557 15.8157 170.022 15.2783 170.181C15.0068 170.262 14.6931 170.291 14.4136 170.14C14.118 169.981 13.997 169.697 13.9549 169.456C13.9134 169.219 13.9336 168.959 13.9765 168.713C14.0205 168.46 14.0946 168.189 14.1846 167.917C14.3647 167.372 14.6203 166.79 14.8712 166.288L14.8833 166.264L19.6853 158.798C20.158 158.063 20.3264 157.627 20.3554 157.4C20.357 157.388 20.3581 157.377 20.3587 157.367C20.2487 157.359 20.0433 157.384 19.7428 157.481C19.4313 157.581 19.0902 157.733 18.7855 157.893L16.0161 160.108L15.8286 160.1C14.5882 160.046 13.7145 159.856 13.1734 159.513C12.8904 159.334 12.6748 159.098 12.5692 158.8C12.4639 158.502 12.4892 158.204 12.5753 157.938C12.7396 157.43 13.1546 156.948 13.5893 156.548C14.0381 156.135 14.5706 155.753 15.0553 155.453L15.1182 155.414L15.1896 155.395C16.4224 155.067 19.24 153.639 20.4395 150.642C21.3145 148.456 23.0696 147.453 24.7627 146.866C25.4705 146.621 26.1861 146.442 26.8257 146.282C26.9454 146.252 27.0625 146.222 27.1763 146.194C27.8139 146.032 28.3309 145.885 28.7153 145.704C29.9644 140.467 32.0284 132.645 34.2323 125.91C35.3494 122.495 36.5068 119.347 37.6167 116.953C38.1712 115.756 38.7203 114.734 39.2542 113.957C39.774 113.199 40.3311 112.596 40.927 112.351C41.7084 112.029 42.384 111.391 42.9614 110.514C43.5381 109.639 43.998 108.554 44.3564 107.389C45.0735 105.059 45.3615 102.488 45.4049 100.837L45.4057 100.809L48.0624 81.6906C47.4043 70.4661 53.177 62.963 59.7504 58.3229C63.0386 56.0019 66.5338 54.3905 69.5442 53.3754C72.2756 52.4544 74.6479 52.0109 76.1229 51.9938C76.1642 51.8168 76.1995 51.6173 76.2139 51.425C76.2266 51.2569 76.2218 51.1136 76.201 51.0043C76.1795 50.8912 76.1491 50.8563 76.1465 50.8536L75.4488 50.1559L76.424 50.0059C78.6195 49.6681 84.2106 49.1949 89.0822 50.0069L90.0406 50.1666L89.3536 50.8536C89.2802 50.927 89.2246 51.088 89.2764 51.4239C89.3062 51.6173 89.3618 51.8103 89.4214 51.9935C90.8949 52.0069 93.2764 52.4502 96.0203 53.3754C99.0306 54.3905 102.526 56.0019 105.814 58.3229C112.387 62.963 118.16 70.4661 117.502 81.6906L120.16 100.816V100.851C120.16 103.216 121.169 105.036 122.469 106.726C122.93 107.326 123.418 107.896 123.908 108.47C124.115 108.713 124.323 108.956 124.53 109.202C125.216 110.021 125.881 110.863 126.396 111.768C127.259 113.285 129.31 117.97 131.382 123.414C133.457 128.865 135.574 135.134 136.557 139.826L136.566 139.868L136.568 139.911C136.611 141.175 136.808 142.999 137.243 144.384C137.464 145.085 137.726 145.612 138.012 145.91C138.149 146.053 138.275 146.125 138.387 146.155C138.494 146.183 138.628 146.182 138.808 146.11C140.074 145.604 141.482 145.992 142.642 146.573C143.819 147.162 144.859 148.008 145.465 148.613L145.47 148.619L145.476 148.625C146.795 150.031 150.283 153.482 153.656 156.01C154.205 156.422 154.618 156.796 154.911 157.138C155.202 157.477 155.398 157.813 155.47 158.15C155.546 158.508 155.475 158.836 155.286 159.107C155.109 159.361 154.852 159.533 154.603 159.652C154.107 159.89 153.48 159.996 152.997 160.048C152.557 160.094 152.19 160.1 152.062 160.1C152.026 160.11 151.947 160.132 151.846 160.137C151.63 160.147 151.412 160.078 151.158 159.941C150.663 159.675 149.823 159.036 148.231 157.576C147.606 157.004 147.243 156.874 147.094 156.869C147.057 156.868 147.046 156.875 147.043 156.878C147.042 156.879 147.041 156.879 147.041 156.879C147.03 156.89 146.995 156.933 146.967 157.045C146.911 157.276 146.926 157.652 147.047 158.089C147.163 158.512 147.364 158.941 147.624 159.28C149.957 161.881 152.416 165.635 153.583 168.004C153.875 168.597 154.098 169.125 154.214 169.539C154.271 169.742 154.312 169.95 154.308 170.138C154.305 170.307 154.26 170.614 153.974 170.789C153.702 170.955 153.411 170.877 153.247 170.812C153.059 170.738 152.856 170.61 152.643 170.451C152.212 170.129 151.645 169.601 150.925 168.845L150.903 168.822L150.884 168.796C150.628 168.449 149.845 167.395 148.172 165.222C147.913 164.885 147.697 164.63 147.52 164.444C147.487 164.409 147.456 164.377 147.427 164.348C147.434 164.402 147.443 164.458 147.453 164.517C147.507 164.828 147.598 165.181 147.698 165.507L150.63 170.302L150.648 170.373C150.967 171.596 151.102 172.427 151.067 172.953C151.05 173.206 150.988 173.505 150.77 173.712C150.513 173.957 150.193 173.94 149.978 173.877C149.77 173.816 149.571 173.693 149.401 173.571C149.224 173.443 149.042 173.287 148.866 173.129C148.707 172.987 148.547 172.835 148.394 172.691L148.342 172.641C148.171 172.48 148.013 172.331 147.869 172.206L147.794 172.141L147.75 172.052C147.687 171.927 147.598 171.723 147.479 171.449C147.038 170.437 146.182 168.469 144.682 165.972C144.267 165.279 143.972 164.927 143.789 164.773C143.744 164.919 143.708 165.154 143.696 165.472C143.683 165.81 143.698 166.187 143.729 166.541C143.828 166.647 143.931 166.778 144.035 166.928C144.209 167.18 144.409 167.519 144.628 167.957C145.065 168.833 145.584 170.125 146.123 171.953C146.388 172.856 146.506 173.513 146.456 173.951C146.43 174.174 146.349 174.444 146.112 174.619C145.866 174.8 145.588 174.78 145.4 174.732C145.21 174.684 145.024 174.587 144.86 174.485C144.691 174.38 144.516 174.251 144.346 174.117C144.1 173.922 143.84 173.697 143.602 173.49C143.515 173.414 143.43 173.34 143.35 173.272L143.229 173.168L143.19 173.013C143.027 172.362 142.597 171.354 142.033 170.248C141.473 169.152 140.8 167.995 140.174 167.055C140.107 166.955 140.044 166.865 139.987 166.785C139.995 166.839 140.005 166.893 140.016 166.946L140.02 166.964L140.456 170.5L140.448 170.562C140.341 171.416 140.192 172.023 139.973 172.39C139.86 172.579 139.687 172.776 139.424 172.85C139.147 172.928 138.904 172.834 138.738 172.724C138.576 172.617 138.441 172.467 138.331 172.321C138.217 172.171 138.11 171.997 138.011 171.82C137.813 171.465 137.628 171.056 137.472 170.7L137.451 170.653L137.441 170.603C137.088 168.93 136.468 166.383 135.752 164.181C135.394 163.078 135.017 162.077 134.644 161.32C134.457 160.941 134.278 160.636 134.111 160.414C133.937 160.183 133.81 160.088 133.743 160.06C133.435 159.928 133.194 159.676 133.006 159.402C132.813 159.123 132.645 158.779 132.497 158.4C132.201 157.643 131.958 156.682 131.761 155.668C131.375 153.689 131.149 151.432 131.055 149.911C128.794 145.969 125.384 140.061 122.425 135.018C120.933 132.474 119.556 130.152 118.5 128.414C117.972 127.545 117.525 126.824 117.185 126.295C117.015 126.031 116.874 125.817 116.763 125.659C116.708 125.58 116.662 125.517 116.626 125.47C116.619 125.46 116.612 125.451 116.606 125.444C116.597 125.432 116.589 125.423 116.582 125.415C116.57 125.401 116.565 125.395 116.565 125.395C116.298 125.128 115.925 124.555 115.511 123.835C115.085 123.094 114.584 122.14 114.06 121.063C113.011 118.911 111.86 116.245 111.026 113.77C110.768 113.004 110.526 112.283 110.296 111.598C108.505 106.27 107.458 103.155 105.443 98.2907ZM83.5393 296.989L83.6062 296.929C83.9766 296.6 84.5294 296.01 84.9591 295.334C85.3994 294.641 85.6516 293.95 85.5711 293.386L85.5658 293.349L85.566 293.312C85.6103 286.992 85.2365 277.676 84.8509 269.777C84.6427 265.511 84.4304 261.647 84.2795 258.902C84.1518 256.581 84.0682 255.059 84.0682 254.769C84.0682 253.603 84.9436 236.717 85.8294 227.92C85.2094 221.873 84.5022 210.022 84.5022 208.78C84.5022 207.833 84.3249 193.02 83.9708 185.676L83.9704 185.665L83.7952 178.953C83.7556 180.684 83.7201 182.18 83.6931 183.318C83.6606 184.688 83.6404 185.537 83.6404 185.652V208.78C83.6404 209.81 83.2576 213.732 82.8671 217.732C82.8248 218.166 82.7824 218.6 82.7404 219.032C82.5242 221.253 82.3168 223.417 82.18 225.059C82.1115 225.88 82.0612 226.566 82.0361 227.061C82.0236 227.31 82.0178 227.503 82.0186 227.639C82.0191 227.701 82.0209 227.745 82.023 227.772C82.0346 227.806 82.0412 227.834 82.0444 227.847C82.0526 227.882 82.0596 227.92 82.0657 227.956C82.078 228.03 82.0904 228.123 82.1029 228.23C82.1282 228.446 82.1566 228.742 82.1877 229.105C82.2499 229.831 82.3239 230.839 82.405 232.036C82.5672 234.431 82.7585 237.593 82.9414 240.797C83.3065 247.192 83.6404 253.792 83.6404 254.769C83.6404 255.903 83.1735 265.096 82.6755 274.208C82.4261 278.771 82.1684 283.323 81.9564 286.851C81.7455 290.361 81.5779 292.895 81.5076 293.386C81.4271 293.95 81.6793 294.641 82.1195 295.334C82.5493 296.01 83.102 296.6 83.4725 296.929L83.5393 296.989ZM81.0712 228.077C81.0712 228.077 81.0713 228.078 81.0714 228.078L81.0712 228.077ZM17.9697 173.318C17.9696 173.318 17.9704 173.318 17.9718 173.318L17.9697 173.318ZM75.8086 83.9173C76.9674 79.3566 77.1663 74.1727 76.9907 70.7946L77.9894 70.7427C78.1684 74.1876 77.9684 79.4776 76.7778 84.1636C76.1825 86.5066 75.3329 88.7253 74.1391 90.4904C72.9426 92.2595 71.3823 93.5974 69.3695 94.1147L69.1206 93.1462C70.8313 92.7065 72.2077 91.5611 73.3108 89.9302C74.4165 88.2954 75.2292 86.1976 75.8086 83.9173ZM88.7123 84.1636C87.5217 79.4776 87.3216 74.1876 87.5007 70.7427L88.4993 70.7946C88.3238 74.1727 88.5227 79.3566 89.6815 83.9173C90.2608 86.1976 91.0736 88.2954 92.1793 89.9302C93.2823 91.5611 94.6587 92.7065 96.3695 93.1462L96.1206 94.1147C94.1078 93.5974 92.5474 92.2595 91.351 90.4904C90.1571 88.7253 89.3076 86.5066 88.7123 84.1636ZM83.1723 126.902V99.5214H84.1723V126.902H83.1723ZM46.759 114.878C47.7098 114.515 48.5218 113.817 48.9697 113.288L49.7329 113.934C49.2056 114.557 48.2622 115.374 47.1163 115.812C45.9503 116.258 44.5447 116.317 43.206 115.344L43.794 114.535C44.7959 115.264 45.8283 115.234 46.759 114.878ZM118.09 115.812C116.944 115.374 116 114.557 115.473 113.934L116.236 113.288C116.684 113.817 117.496 114.515 118.447 114.878C119.377 115.234 120.41 115.264 121.412 114.535L122 115.344C120.661 116.317 119.256 116.258 118.09 115.812ZM73.7489 222.881C74.9895 223.092 75.8945 223.811 76.3591 224.43L75.5593 225.03C75.226 224.586 74.5352 224.029 73.5816 223.867C72.6487 223.709 71.393 223.917 69.8882 225.12L69.2637 224.339C70.9506 222.991 72.4875 222.667 73.7489 222.881ZM94.6729 222.881C95.9135 223.092 96.8186 223.811 97.2832 224.43L96.4833 225.03C96.15 224.586 95.4593 224.029 94.5057 223.867C93.5727 223.709 92.317 223.917 90.8123 225.12L90.1878 224.339C91.8746 222.991 93.4116 222.667 94.6729 222.881Z" fill="black"/>
<path fill-rule="evenodd" clip-rule="evenodd" d="M91.4228 10.5399C93.4857 10.9878 94.938 12.3861 95.9519 14.1626C96.9862 15.9751 97.5901 18.2214 97.9469 20.3884C98.3047 22.5614 98.4195 24.6887 98.4568 26.2823C98.4743 27.0312 98.4748 27.6646 98.4752 28.1285L98.4753 28.2165C98.4755 28.4539 98.476 28.6353 98.4791 28.7611C98.4795 28.7787 98.48 28.7945 98.4805 28.8086L98.5001 28.835V45.9999C98.5001 50.1085 96.7724 51.7553 95.5981 51.9902L95.4878 52.0122L91.4152 50.9941C83.0868 50.2043 76.7225 50.7404 74.5964 51.1018L70.5054 52.0109L70.4019 51.9902C69.2995 51.7697 67.0329 50.0667 66.504 45.9525C66 42.0318 66 33.0205 66 29.026V28.9999C66 19.3885 69.0422 14.1808 70.0931 12.7094C71.4142 10.8599 74.6832 8.29632 78.643 7.20538C82.6047 6.11393 87.2983 6.48943 91.4228 10.5399ZM78.9086 8.16946C75.1552 9.20355 72.0858 11.64 70.9069 13.2906C69.9685 14.6044 67 19.6112 67 28.9999C67 33.0187 67.0011 41.9765 67.4959 45.825C67.9638 49.465 69.8438 50.7727 70.5084 50.9858L74.4036 50.1202L74.4158 50.1181C76.6319 49.7393 83.11 49.1986 91.5474 50.0021L91.5848 50.0057L95.4961 50.9835C96.0716 50.786 97.5001 49.6702 97.5001 45.9999V29.0637C97.4941 29.0307 97.4907 28.9991 97.4885 28.9748C97.4837 28.9205 97.4811 28.8549 97.4794 28.7858C97.4759 28.6456 97.4755 28.4511 97.4752 28.2174L97.4752 28.1304C97.4748 27.6665 97.4743 27.043 97.4571 26.3057C97.4203 24.7355 97.3074 22.6596 96.9602 20.5509C96.612 18.4363 96.0333 16.3228 95.0833 14.6583C94.1376 13.0012 92.8504 11.8299 91.0825 11.491L90.9317 11.462L90.8231 11.3535C86.9734 7.50375 82.6258 7.14537 78.9086 8.16946Z" fill="black"/>
</svg>
