<svg width="168" height="320" viewBox="0 0 168 320" fill="none" xmlns="http://www.w3.org/2000/svg">
<path fill-rule="evenodd" clip-rule="evenodd" d="M87.7881 11.7189C83.9984 10.6763 79.5224 11.008 75.677 14.8534L75.5684 14.962L75.4176 14.9909C73.6497 15.3299 72.3624 16.5011 71.4167 18.1582C70.4668 19.8228 69.8881 21.9363 69.5399 24.0509C69.1926 26.1595 69.0798 28.2355 69.043 29.8057C69.0257 30.543 69.0252 31.1664 69.0249 31.6303C69.0249 31.66 69.0248 31.689 69.0248 31.7174C69.0246 31.951 69.0241 32.1456 69.0207 32.2858C69.019 32.3549 69.0163 32.4204 69.0115 32.4747C69.0094 32.4991 69.006 32.5306 69 32.5636V49.4998C69 53.1701 70.4285 54.2859 71.0039 54.4835L74.8788 53.5148C75.1467 53.4478 75.4182 53.6107 75.4851 53.8786C75.5521 54.1465 75.3892 54.4179 75.1213 54.4849L71.0123 55.5122L70.902 55.4901C69.7277 55.2553 68 53.6085 68 49.4998V32.335L68.0196 32.3085C68.0201 32.2945 68.0205 32.2787 68.021 32.2611C68.0241 32.1353 68.0246 31.9539 68.0248 31.7165C68.0248 31.6879 68.0249 31.6586 68.0249 31.6286C68.0252 31.1647 68.0257 30.5312 68.0433 29.7823C68.0806 28.1887 68.1953 26.0614 68.5531 23.8884C68.91 21.7214 69.5139 19.475 70.5482 17.6626C71.5621 15.886 73.0144 14.4878 75.0773 14.0399C79.2083 9.98578 84.0336 9.64888 88.0533 10.7547C90.0742 11.3106 91.8976 12.2312 93.3447 13.2299C94.7822 14.222 95.8861 15.3176 96.4313 16.247C96.4606 16.2968 96.4914 16.3492 96.5239 16.4042C97.625 18.2723 100.5 23.1496 100.5 32.4998V32.526C100.5 36.5204 100.5 45.5318 99.996 49.4525C99.4671 53.5666 97.2005 55.2697 96.0981 55.4901L95.9946 55.5108L91.8915 54.599C91.622 54.5391 91.452 54.272 91.5119 54.0025C91.5718 53.7329 91.8389 53.5629 92.1085 53.6228L95.9916 54.4858C96.6563 54.2727 98.5363 52.965 99.0042 49.325C99.4989 45.4765 99.5001 36.5187 99.5001 32.4998C99.5001 23.416 96.7271 18.7163 95.6653 16.9169C95.6313 16.8593 95.5991 16.8047 95.5688 16.753C95.126 15.9982 94.1513 15.0016 92.7767 14.0529C91.4116 13.1108 89.6894 12.2419 87.7881 11.7189ZM80.0801 17.153C80.7229 17.0751 81.3291 17.2964 81.7933 17.8997C82.9457 19.3975 84.6291 20.4291 86.7152 21.2996C88.2739 21.95 90.0158 22.495 91.8907 23.0816C92.5358 23.2834 93.1966 23.4902 93.8711 23.7078C94.8346 24.0188 95.4706 24.5763 95.8568 25.3138C96.2314 26.0293 96.3507 26.8758 96.372 27.7407C96.3898 28.4656 96.3386 29.2494 96.2877 30.027C96.2779 30.1768 96.2681 30.3264 96.2588 30.4753C96.2006 31.4114 96.1609 32.3355 96.2422 33.2117C96.2677 33.4866 96.0655 33.7302 95.7905 33.7557C95.5155 33.7812 95.272 33.5789 95.2465 33.304C95.1574 32.3439 95.2023 31.3521 95.2608 30.4131C95.2705 30.2567 95.2806 30.1021 95.2906 29.9493C95.3413 29.1711 95.3889 28.4411 95.3723 27.7653C95.3524 26.9573 95.2403 26.2921 94.9709 25.7777C94.713 25.2852 94.2924 24.8946 93.564 24.6595C92.9128 24.4494 92.2665 24.2472 91.6297 24.048C89.7409 23.4571 87.9351 22.8922 86.3301 22.2224C84.1749 21.3231 82.3068 20.207 81.0007 18.5095C80.7535 18.1882 80.4953 18.11 80.2004 18.1457C79.8582 18.1872 79.4363 18.391 78.9569 18.7384C78.178 19.3029 77.4075 20.1216 76.7767 20.7918C76.6321 20.9455 76.4949 21.0913 76.3665 21.2245C74.8113 22.8386 73.8741 25.0244 73.3593 27.235C72.8453 29.4426 72.762 31.6354 72.884 33.2194C72.9052 33.4948 72.6991 33.7351 72.4238 33.7563C72.1485 33.7775 71.9081 33.5715 71.8869 33.2962C71.7579 31.6211 71.8459 29.3251 72.3854 27.0082C72.9242 24.6941 73.923 22.3194 75.6464 20.5307C75.7589 20.414 75.8841 20.2806 76.0201 20.136C76.6489 19.4667 77.5052 18.5555 78.3701 17.9287C78.8954 17.548 79.4846 17.2251 80.0801 17.153ZM94.9272 39.724C95.1918 39.8029 95.3423 40.0814 95.2634 40.3461L93.8951 44.9335L93.8575 44.9925C90.5717 50.1438 87.2967 52.2345 84.2487 52.4298C81.2166 52.6242 78.5966 50.9284 76.6437 48.9436C75.3659 47.6451 74.3422 46.1921 73.6361 44.9744L73.5894 44.8939L73.5748 44.8021C73.3732 43.5339 73.3081 43.2912 72.9171 41.8341C72.8108 41.4378 72.6804 40.9517 72.5165 40.3307C72.4461 40.0637 72.6054 39.7901 72.8724 39.7197C73.1394 39.6492 73.413 39.8086 73.4834 40.0756C73.6437 40.683 73.7725 41.1629 73.8785 41.5579C74.2651 42.9984 74.3484 43.3085 74.5476 44.5524C75.2182 45.6954 76.1761 47.0426 77.3565 48.2423C79.2248 50.1411 81.5771 51.599 84.1848 51.4319C86.7665 51.2664 89.7853 49.4939 92.9769 44.5134L94.3051 40.0602C94.3841 39.7956 94.6626 39.6451 94.9272 39.724Z" fill="black"/>
<path d="M74.1304 29.6818C74.5603 29.093 75.5921 27.9153 76.28 27.9153C77.1399 27.9153 80.6509 28.1979 81.4391 29.6818C82.0697 30.8689 80.6509 30.1764 79.8627 29.6818C78.7163 29.0458 75.9647 28.1555 74.1304 29.6818Z" fill="black"/>
<path d="M93.6571 29.6818C93.2272 29.093 92.1954 27.9153 91.5075 27.9153C90.6476 27.9153 87.1366 28.1979 86.3484 29.6818C85.7178 30.8689 87.1366 30.1764 87.9248 29.6818C89.0712 29.0458 91.8228 28.1555 93.6571 29.6818Z" fill="black"/>
<path fill-rule="evenodd" clip-rule="evenodd" d="M75.2384 28.7985C75.9116 28.5837 76.6185 28.5528 77.2806 28.6223C78.3797 28.7377 79.3863 29.1316 79.984 29.4632L79.9958 29.4697L79.9956 29.47C80.3888 29.7168 80.9095 29.9926 81.2393 30.0689C81.28 30.0783 81.3127 30.0833 81.3382 30.0857C81.3235 30.0237 81.2883 29.9306 81.2184 29.7991C81.0549 29.4914 80.7379 29.2255 80.3063 29.0017C79.8777 28.7794 79.3597 28.6108 78.829 28.4854C77.7668 28.2344 76.6937 28.1653 76.28 28.1653C76.174 28.1653 76.027 28.213 75.8426 28.3231C75.6626 28.4306 75.4699 28.5839 75.2783 28.7612C75.2649 28.7735 75.2516 28.786 75.2384 28.7985ZM75.5862 27.8939C75.8022 27.7648 76.0421 27.6653 76.28 27.6653C76.7262 27.6653 77.8385 27.7375 78.944 27.9988C79.497 28.1295 80.0582 28.3098 80.5365 28.5578C81.0119 28.8044 81.4293 29.1302 81.6599 29.5645C81.744 29.7228 81.8024 29.865 81.8293 29.9907C81.8553 30.1127 81.8592 30.2558 81.784 30.3809C81.7033 30.5151 81.5703 30.567 81.4579 30.5817C81.3491 30.596 81.2333 30.5806 81.1267 30.556C80.7097 30.4596 80.1306 30.1446 79.7357 29.8972C79.1862 29.5935 78.2468 29.2265 77.2284 29.1196C76.2072 29.0124 75.1374 29.1691 74.2903 29.874C74.1933 29.9547 74.0513 29.9504 73.9593 29.8641C73.8673 29.7777 73.854 29.6363 73.9285 29.5344C74.1505 29.2303 74.5264 28.7757 74.9387 28.3942C75.1447 28.2035 75.3658 28.0256 75.5862 27.8939ZM88.8436 27.9988C89.949 27.7375 91.0613 27.6653 91.5075 27.6653C91.7454 27.6653 91.9853 27.7648 92.2013 27.8939C92.4217 28.0256 92.6428 28.2035 92.8489 28.3942C93.2611 28.7757 93.6371 29.2303 93.859 29.5344C93.9335 29.6363 93.9202 29.7777 93.8282 29.8641C93.7362 29.9504 93.5943 29.9547 93.4972 29.874C92.6501 29.1691 91.5803 29.0124 90.5591 29.1196C89.5407 29.2265 88.6014 29.5934 88.0518 29.8972C87.6569 30.1446 87.0778 30.4596 86.6608 30.556C86.5542 30.5806 86.4384 30.596 86.3297 30.5817C86.2172 30.567 86.0842 30.5151 86.0035 30.3809C85.9283 30.2558 85.9322 30.1127 85.9582 29.9907C85.9851 29.865 86.0435 29.7228 86.1276 29.5645C86.3583 29.1302 86.7756 28.8044 87.251 28.5578C87.7293 28.3098 88.2905 28.1295 88.8436 27.9988ZM87.4812 29.0017C87.0497 29.2255 86.7326 29.4914 86.5691 29.7991C86.4993 29.9306 86.464 30.0237 86.4493 30.0857C86.4748 30.0833 86.5075 30.0783 86.5482 30.0689C86.878 29.9926 87.3987 29.7168 87.7919 29.47L87.8033 29.4628L87.8035 29.4632C88.4012 29.1316 89.4079 28.7377 90.5069 28.6223C91.169 28.5528 91.8759 28.5837 92.5491 28.7985C92.5359 28.786 92.5226 28.7736 92.5093 28.7612C92.3176 28.5839 92.1249 28.4306 91.9449 28.3231C91.7606 28.213 91.6135 28.1653 91.5075 28.1653C91.0938 28.1653 90.0207 28.2344 88.9586 28.4854C88.4278 28.6108 87.9098 28.7794 87.4812 29.0017ZM78.6211 30.781C79.537 31.1432 80.1942 31.8946 80.5655 32.4378C80.6599 32.5759 80.7374 32.7029 80.7974 32.8099C80.862 32.9252 80.8258 33.0707 80.7147 33.1423C80.6363 33.1928 80.5148 33.2468 80.3753 33.2994C80.2306 33.354 80.0505 33.413 79.845 33.4709C79.4341 33.5866 78.914 33.6999 78.3611 33.7635C77.8092 33.8269 77.2163 33.8418 76.663 33.7555C76.1109 33.6694 75.5804 33.4798 75.174 33.1191C75.0707 33.0275 75.0613 32.8695 75.1529 32.7662C75.2446 32.6629 75.4026 32.6535 75.5059 32.7452C75.816 33.0204 76.2438 33.1841 76.74 33.2615C77.2349 33.3386 77.78 33.327 78.304 33.2667C78.827 33.2066 79.3207 33.0991 79.7094 32.9896C79.9037 32.9349 80.0698 32.8802 80.1988 32.8316C80.2065 32.8287 80.214 32.8258 80.2213 32.823C80.2134 32.8109 80.2054 32.7987 80.1973 32.7863C80.1061 32.7486 80.0202 32.6978 79.9405 32.6458C79.8722 32.6013 79.7972 32.548 79.7219 32.4946C79.6832 32.4671 79.6444 32.4395 79.6064 32.4131C79.3731 32.2508 79.1036 32.0817 78.749 31.9692C78.0485 31.747 76.9509 31.7266 75.0871 32.5936C74.9619 32.6518 74.8132 32.5975 74.755 32.4723C74.6967 32.3471 74.751 32.1984 74.8762 32.1402C76.81 31.2407 78.0413 31.2202 78.9001 31.4926C78.9139 31.497 78.9276 31.5015 78.9412 31.506C78.7837 31.4051 78.6155 31.3165 78.4372 31.246C77.6779 30.9457 76.6934 30.9573 75.49 31.8602C75.3795 31.9431 75.2228 31.9208 75.1399 31.8103C75.0571 31.6999 75.0794 31.5432 75.1899 31.4603C76.517 30.4645 77.683 30.41 78.6211 30.781ZM88.8727 31.506C89.0302 31.4051 89.1984 31.3165 89.3767 31.246C90.136 30.9457 91.1205 30.9573 92.3239 31.8602C92.4344 31.9431 92.5911 31.9208 92.6739 31.8103C92.7568 31.6999 92.7345 31.5432 92.624 31.4603C91.2969 30.4645 90.1309 30.41 89.1928 30.781C88.2769 31.1432 87.6197 31.8946 87.2484 32.4378C87.154 32.5759 87.0765 32.7029 87.0165 32.8099C86.9519 32.9252 86.9881 33.0707 87.0991 33.1423C87.1775 33.1928 87.2991 33.2468 87.4386 33.2994C87.5833 33.354 87.7634 33.413 87.9689 33.4709C88.3798 33.5866 88.8998 33.6999 89.4528 33.7635C90.0046 33.8269 90.5976 33.8418 91.1509 33.7555C91.703 33.6694 92.2335 33.4798 92.6399 33.1191C92.7432 33.0275 92.7526 32.8695 92.661 32.7662C92.5693 32.6629 92.4113 32.6535 92.308 32.7452C91.9979 33.0204 91.5701 33.1841 91.0739 33.2615C90.579 33.3386 90.0339 33.327 89.5099 33.2667C88.9869 33.2066 88.4932 33.0991 88.1045 32.9896C87.9102 32.9349 87.7441 32.8802 87.6151 32.8316C87.6074 32.8287 87.5999 32.8258 87.5926 32.823C87.6004 32.8109 87.6084 32.7987 87.6166 32.7863C87.7078 32.7486 87.7937 32.6978 87.8734 32.6458C87.9417 32.6013 88.0167 32.548 88.092 32.4946C88.1307 32.4671 88.1695 32.4395 88.2075 32.4131C88.4407 32.2508 88.7103 32.0817 89.0649 31.9692C89.7654 31.747 90.8629 31.7266 92.7268 32.5936C92.852 32.6518 93.0007 32.5975 93.0589 32.4723C93.1172 32.3471 93.0629 32.1984 92.9377 32.1402C91.0039 31.2407 89.7726 31.2202 88.9138 31.4926C88.8999 31.497 88.8862 31.5015 88.8727 31.506ZM85.2517 31.0018C85.3812 31.0495 85.4475 31.1933 85.3998 31.3228C85.2618 31.697 85.0727 32.3452 84.9607 33.0575C84.8481 33.7743 84.8181 34.5288 84.977 35.1293C85.0123 35.2628 84.9327 35.3997 84.7992 35.435C84.6657 35.4703 84.5289 35.3907 84.4936 35.2572C84.3085 34.5576 84.3501 33.7223 84.4668 32.9799C84.5842 32.233 84.782 31.5529 84.9306 31.1498C84.9784 31.0203 85.1221 30.954 85.2517 31.0018ZM85.4933 38.1223C85.5928 38.0265 85.751 38.0294 85.8468 38.1289C86.0894 38.3806 86.4022 38.8045 86.5292 39.2598C86.5935 39.4905 86.6144 39.7449 86.5377 39.9926C86.4595 40.2454 86.2875 40.4657 86.0129 40.635C85.8954 40.7074 85.7414 40.6708 85.6689 40.5533C85.5965 40.4358 85.633 40.2818 85.7506 40.2093C85.9346 40.0959 86.0217 39.9688 86.0601 39.8448C86.1 39.7156 86.0949 39.5637 86.0476 39.3941C85.9512 39.0485 85.698 38.6951 85.4867 38.4758C85.3909 38.3763 85.3939 38.2181 85.4933 38.1223ZM80.4904 39.0579C80.6195 39.0088 80.7639 39.0737 80.813 39.2027C80.8778 39.3731 81.0108 39.6457 81.1926 39.8922C81.3789 40.1451 81.5889 40.3329 81.7967 40.3944C81.9291 40.4336 82.0047 40.5726 81.9655 40.705C81.9263 40.8374 81.7873 40.913 81.6549 40.8738C81.2894 40.7657 80.9978 40.4707 80.7901 40.1889C80.5777 39.9008 80.4241 39.5869 80.3456 39.3804C80.2965 39.2514 80.3614 39.107 80.4904 39.0579ZM84.4707 39.1496C84.5492 39.2632 84.5206 39.4189 84.407 39.4973C84.0746 39.7268 83.761 39.7882 83.4943 39.7492C83.2354 39.7112 83.0389 39.5811 82.9298 39.4556C82.8392 39.3514 82.8503 39.1935 82.9545 39.1029C83.0587 39.0123 83.2166 39.0234 83.3072 39.1276C83.3414 39.167 83.4315 39.2346 83.5667 39.2544C83.6942 39.2731 83.8822 39.252 84.123 39.0858C84.2366 39.0074 84.3923 39.0359 84.4707 39.1496ZM84.8188 40.1032C84.5763 40.2203 84.3812 40.3946 84.2813 40.5128C84.1922 40.6183 84.0345 40.6315 83.929 40.5424C83.8236 40.4533 83.8103 40.2956 83.8994 40.1901C84.0384 40.0257 84.2876 39.8044 84.6016 39.6529C84.9175 39.5004 85.3207 39.4093 85.7448 39.5487C85.876 39.5918 85.9474 39.7331 85.9043 39.8643C85.8612 39.9954 85.7199 40.0668 85.5887 40.0237C85.325 39.937 85.0594 39.9872 84.8188 40.1032ZM82.4702 40.0523C82.2065 39.9894 81.9342 40.0019 81.7712 40.032C81.6355 40.0571 81.505 39.9674 81.4799 39.8317C81.4548 39.6959 81.5445 39.5655 81.6803 39.5404C81.8995 39.4998 82.2434 39.4841 82.5864 39.566C82.931 39.6483 83.3035 39.8373 83.5209 40.2305C83.5878 40.3513 83.544 40.5034 83.4232 40.5702C83.3024 40.6371 83.1502 40.5933 83.0834 40.4725C82.9569 40.2438 82.7323 40.1149 82.4702 40.0523ZM80.6716 44.8083C80.8944 44.7529 81.1671 44.7027 81.4444 44.6741C81.8763 44.6295 82.2671 44.6431 82.4939 44.7326C82.6707 44.8023 82.8918 44.8391 83.1168 44.8578C83.3455 44.8768 83.595 44.8784 83.8374 44.87C84.3205 44.8531 84.7943 44.7954 85.0484 44.7453C85.7255 44.6117 86.3664 44.5404 87.0888 44.7978C87.0042 44.9977 86.9182 45.1941 86.7631 45.3855C86.5639 45.6314 86.2445 45.8654 85.6462 45.9663H82.5963C82.1616 45.9274 81.2577 45.6367 80.6716 44.8083ZM87.0827 44.2699C87.0285 44.2088 86.9587 44.139 86.8727 44.0618C86.6774 43.8866 86.428 43.6996 86.1686 43.5275C85.9093 43.3556 85.6457 43.2023 85.4238 43.093C85.3127 43.0383 85.2156 42.9964 85.137 42.9688C85.0978 42.955 85.0656 42.9456 85.0404 42.9398C85.028 42.937 85.0182 42.9353 85.0109 42.9343L85.0027 42.9334C85.0008 42.9333 84.9999 42.9333 85 42.9333C84.9343 42.9333 84.8031 42.9761 84.6058 43.1074C84.4184 43.232 84.2039 43.4143 83.9804 43.6374C83.9273 43.6905 83.8531 43.7169 83.7784 43.7092C83.7037 43.7016 83.6364 43.6609 83.5951 43.5982C83.3104 43.1665 83.0352 42.9333 82.5856 42.9333C82.5091 42.9333 82.3683 42.9765 82.1635 43.0882C81.9682 43.1947 81.7464 43.3456 81.5186 43.5184C81.1816 43.774 80.8433 44.0686 80.5763 44.3169C80.8204 44.2574 81.1066 44.2063 81.393 44.1767C81.8357 44.131 82.3309 44.1308 82.6774 44.2674C82.7871 44.3107 82.9515 44.3423 83.1583 44.3595C83.3614 44.3764 83.5901 44.3783 83.8199 44.3703C84.2813 44.3542 84.728 44.2988 84.9516 44.2547C85.6112 44.1246 86.3046 44.037 87.0827 44.2699ZM81.924 42.6493C82.1402 42.5314 82.3755 42.4333 82.5856 42.4333C83.1635 42.4333 83.5421 42.7084 83.8386 43.0815C84.0058 42.929 84.1714 42.7958 84.3289 42.691C84.5428 42.5488 84.7791 42.4333 85 42.4333C85.0976 42.4333 85.2057 42.4629 85.303 42.4971C85.4063 42.5335 85.5226 42.5843 85.6447 42.6445C85.8893 42.7649 86.1715 42.9295 86.4449 43.1109C86.7181 43.2921 86.9882 43.4937 87.2065 43.6896C87.4145 43.8761 87.61 44.0871 87.688 44.289C87.7544 44.4611 87.7098 44.6341 87.6474 44.7676C87.6262 44.8129 87.6036 44.8667 87.5785 44.9264C87.4871 45.1436 87.3623 45.4403 87.1516 45.7003C86.8668 46.0517 86.4292 46.3459 85.7068 46.4631C85.6936 46.4652 85.6802 46.4663 85.6668 46.4663H82.5856C82.5788 46.4663 82.572 46.466 82.5652 46.4654C81.9762 46.417 80.7394 46.0112 80.0665 44.7818C80.0136 44.685 79.9642 44.5833 79.9191 44.4764C79.8792 44.3821 79.9009 44.273 79.9738 44.2011C80.2659 43.9131 80.7399 43.4815 81.2164 43.12C81.4544 42.9395 81.6983 42.7724 81.924 42.6493Z" fill="black"/>
<path d="M90.8625 32.6215C90.8625 33.199 90.3943 33.6672 89.8168 33.6672C89.2392 33.6672 88.771 33.199 88.771 32.6215C88.771 32.0439 89.2392 31.5757 89.8168 31.5757C90.3943 31.5757 90.8625 32.0439 90.8625 32.6215Z" fill="black"/>
<path d="M78.8198 32.5858C78.8198 33.1634 78.3516 33.6316 77.774 33.6316C77.1965 33.6316 76.7283 33.1634 76.7283 32.5858C76.7283 32.0082 77.1965 31.54 77.774 31.54C78.3516 31.54 78.8198 32.0082 78.8198 32.5858Z" fill="black"/>
<path d="M78.0519 32.6213C78.0519 32.7657 77.9349 32.8827 77.7905 32.8827C77.6461 32.8827 77.5291 32.7657 77.5291 32.6213C77.5291 32.4769 77.6461 32.3599 77.7905 32.3599C77.9349 32.3599 78.0519 32.4769 78.0519 32.6213Z" fill="white"/>
<path d="M90.0783 32.6213C90.0783 32.7657 89.9613 32.8827 89.8169 32.8827C89.6725 32.8827 89.5554 32.7657 89.5554 32.6213C89.5554 32.4769 89.6725 32.3599 89.8169 32.3599C89.9613 32.3599 90.0783 32.4769 90.0783 32.6213Z" fill="white"/>
<path fill-rule="evenodd" clip-rule="evenodd" d="M95.2091 36.837C95.4799 36.7828 95.7433 36.9584 95.7975 37.2292C95.9221 37.8522 95.8408 38.5205 95.7087 39.0768C95.5753 39.6383 95.3788 40.132 95.2315 40.4267C95.108 40.6737 94.8077 40.7738 94.5607 40.6503C94.3137 40.5268 94.2136 40.2265 94.3371 39.9795C94.4512 39.7513 94.6207 39.33 94.7357 38.8457C94.852 38.3562 94.9014 37.8481 94.8169 37.4253C94.7627 37.1545 94.9383 36.8911 95.2091 36.837Z" fill="black"/>
<path fill-rule="evenodd" clip-rule="evenodd" d="M71.7769 32.2724C72.0943 32.5201 72.4026 32.8012 72.6537 33.0523C72.8489 33.2476 72.8489 33.5641 72.6537 33.7594C72.4584 33.9547 72.1418 33.9547 71.9466 33.7594C71.7184 33.5312 71.4406 33.2785 71.1615 33.0606C70.8756 32.8373 70.6166 32.6731 70.4226 32.596C70.4096 32.5908 70.3974 32.5862 70.386 32.5822C70.3827 32.6822 70.3946 32.8323 70.4374 33.0464C70.6512 34.1152 70.7419 34.9695 70.767 35.6085C70.7916 36.2349 70.7544 36.6829 70.6937 36.9259L70.6916 36.934L70.6894 36.942C70.588 37.2969 70.6232 38.6806 72.5869 40.0552C72.6041 40.0673 72.6588 40.0931 72.7964 40.1303C72.8253 40.1381 72.8619 40.1473 72.9028 40.1577C73.0062 40.1838 73.1374 40.2169 73.2426 40.2519C73.5045 40.3392 73.6461 40.6224 73.5588 40.8844C73.4715 41.1463 73.1883 41.2879 72.9263 41.2006C72.8557 41.1771 72.791 41.1609 72.7101 41.1407C72.6598 41.1281 72.6032 41.114 72.5352 41.0956C72.3937 41.0573 72.1869 40.9959 72.0134 40.8744C69.8027 39.327 69.4831 37.5465 69.7249 36.6775C69.7514 36.5657 69.7907 36.2309 69.7678 35.6478C69.745 35.0667 69.6614 34.2651 69.4569 33.2425C69.3997 32.9569 69.3743 32.7016 69.3901 32.4803C69.4056 32.2627 69.4645 32.0303 69.6225 31.8444C69.7935 31.643 70.0229 31.563 70.2377 31.5555C70.4368 31.5486 70.6293 31.602 70.792 31.6667C71.1186 31.7965 71.4664 32.0299 71.7769 32.2724Z" fill="black"/>
<path fill-rule="evenodd" clip-rule="evenodd" d="M96.3075 32.2174C95.9902 32.4652 95.6819 32.7463 95.4308 32.9974C95.2355 33.1926 95.2355 33.5092 95.4308 33.7045C95.6261 33.8997 95.9426 33.8997 96.1379 33.7045C96.3661 33.4763 96.6439 33.2235 96.923 33.0056C97.2089 32.7824 97.4678 32.6182 97.6619 32.541C97.6748 32.5359 97.687 32.5313 97.6985 32.5273C97.7017 32.6273 97.6898 32.7774 97.647 32.9914C97.4333 34.0603 97.3426 34.9145 97.3174 35.5536C97.2928 36.18 97.3301 36.6279 97.3908 36.871L97.3928 36.879L97.3951 36.8871C97.4965 37.242 97.4613 38.6257 95.4976 40.0003C95.4803 40.0124 95.4257 40.0381 95.288 40.0754C95.2592 40.0832 95.2226 40.0924 95.1816 40.1027C95.0783 40.1288 94.9471 40.1619 94.8419 40.197C94.5799 40.2843 94.4383 40.5675 94.5257 40.8294C94.613 41.0914 94.8962 41.233 95.1581 41.1457C95.2287 41.1221 95.2935 41.106 95.3744 41.0858C95.4247 41.0732 95.4812 41.0591 95.5493 41.0406C95.6908 41.0023 95.8976 40.9409 96.0711 40.8195C98.2817 39.272 98.6013 37.4915 98.3595 36.6226C98.3331 36.5108 98.2938 36.1759 98.3167 35.5928C98.3395 35.0118 98.4231 34.2102 98.6276 33.1875C98.6847 32.9019 98.7101 32.6467 98.6944 32.4254C98.6789 32.2078 98.62 31.9754 98.462 31.7894C98.2909 31.5881 98.0615 31.5081 97.8468 31.5006C97.6476 31.4937 97.4552 31.5471 97.2925 31.6117C96.9658 31.7416 96.618 31.975 96.3075 32.2174Z" fill="black"/>
<path fill-rule="evenodd" clip-rule="evenodd" d="M72.338 37.1415C72.585 37.018 72.8854 37.1181 73.0088 37.3651C73.0128 37.373 73.0131 37.3735 73.0141 37.375C73.0154 37.3771 73.0179 37.3811 73.033 37.4094C73.0522 37.4453 73.0723 37.4876 73.0921 37.5431C73.1271 37.6411 73.1563 37.7677 73.1908 37.9566C73.2609 38.3409 73.3714 39.0942 73.5801 40.66C73.6166 40.9337 73.4243 41.1852 73.1506 41.2217C72.8769 41.2582 72.6254 41.0658 72.5889 40.7921C72.3794 39.2206 72.272 38.4923 72.207 38.136C72.1745 37.9577 72.1569 37.898 72.1507 37.8804C72.1506 37.8801 72.1505 37.8798 72.1504 37.8795C72.1461 37.8674 72.1522 37.8812 72.1507 37.8804C72.1494 37.8797 72.1417 37.867 72.1144 37.8123C71.9909 37.5654 72.091 37.265 72.338 37.1415Z" fill="black"/>
<path fill-rule="evenodd" clip-rule="evenodd" d="M69.9852 33.5552C70.0469 33.4317 70.1971 33.3817 70.3206 33.4434C70.6005 33.5834 71.0153 33.846 71.3642 34.1879C71.7065 34.5233 72.0275 34.9769 72.0275 35.4971C72.0275 35.6352 71.9155 35.7471 71.7775 35.7471C71.6394 35.7471 71.5275 35.6352 71.5275 35.4971C71.5275 35.1808 71.3255 34.85 71.0142 34.545C70.7095 34.2463 70.34 34.0121 70.097 33.8907C69.9735 33.8289 69.9234 33.6787 69.9852 33.5552Z" fill="black"/>
<path fill-rule="evenodd" clip-rule="evenodd" d="M97.7924 33.5552C97.7307 33.4317 97.5805 33.3817 97.457 33.4434C97.1768 33.5835 96.762 33.8468 96.4132 34.1894C96.071 34.5255 95.7502 34.9796 95.7502 35.4998C95.7502 35.6379 95.8621 35.7498 96.0002 35.7498C96.1383 35.7498 96.2502 35.6379 96.2502 35.4998C96.2502 35.1834 96.4523 34.8518 96.7636 34.5461C97.0684 34.2468 97.4379 34.012 97.6806 33.8907C97.8041 33.8289 97.8541 33.6787 97.7924 33.5552Z" fill="black"/>
<path fill-rule="evenodd" clip-rule="evenodd" d="M71.7455 36.9029C71.7975 36.7821 71.7468 36.6402 71.6276 36.5806C71.5041 36.5189 71.3539 36.569 71.2922 36.6925C71.2341 36.8087 71.2372 36.9516 71.2607 37.0835C71.2861 37.2257 71.3433 37.3987 71.44 37.6037C71.6336 38.0142 71.997 38.5777 72.6332 39.3199C72.7231 39.4248 72.8809 39.4369 72.9857 39.3471C73.0905 39.2572 73.1027 39.0994 73.0128 38.9945C72.3941 38.2727 72.0604 37.7469 71.8922 37.3904C71.8081 37.212 71.7684 37.0821 71.7529 36.9956C71.7421 36.9352 71.7452 36.9079 71.7455 36.9029ZM96.3882 36.5806C96.5117 36.5189 96.6619 36.569 96.7236 36.6925C96.7817 36.8087 96.7787 36.9516 96.7551 37.0835C96.7297 37.2257 96.6725 37.3987 96.5758 37.6037C96.3822 38.0142 96.0188 38.5777 95.3826 39.3199C95.2927 39.4248 95.1349 39.4369 95.0301 39.3471C94.9253 39.2572 94.9131 39.0994 95.003 38.9945C95.6217 38.2727 95.9555 37.7469 96.1236 37.3904C96.2077 37.212 96.2474 37.0821 96.2629 36.9956C96.2737 36.9352 96.2706 36.9079 96.2703 36.9029C96.2183 36.7821 96.269 36.6402 96.3882 36.5806Z" fill="black"/>
<path fill-rule="evenodd" clip-rule="evenodd" d="M90.7774 47.9663L91.9826 53.2639C92.0766 53.5502 92.3137 53.9037 92.7084 54.2847C93.1047 54.6673 93.631 55.0498 94.2459 55.3899C95.4799 56.0723 97.0188 56.5559 98.4861 56.5559C99.5432 56.5559 101.137 56.8679 102.94 57.4634C104.754 58.0623 106.814 58.9596 108.809 60.1566C112.783 62.541 116.585 66.1698 117.539 71.0783C117.999 73.4418 118.167 74.8087 118.214 75.8158C118.245 76.4783 118.221 76.9986 118.198 77.5191C118.186 77.776 118.174 78.0331 118.169 78.3073C118.138 80.0137 118.324 82.8437 120.153 91.9911C121.616 99.307 122.61 103.522 123.28 105.979C123.91 108.288 124.247 109.02 124.404 109.305C127.106 112.111 133.477 119.894 134.993 135.914L138.084 146.007C139.188 146.146 140.753 146.547 142.275 147.348C143.935 148.222 145.578 149.593 146.483 151.657L152.384 156.789C152.765 157.038 153.168 157.349 153.478 157.677C153.637 157.846 153.785 158.033 153.891 158.231C153.995 158.427 154.077 158.67 154.049 158.934C153.986 159.539 153.441 159.838 152.841 159.973C152.21 160.116 151.272 160.146 149.95 160.04L149.801 160.028L147.306 158.087L147.284 158.065C147.037 157.818 146.755 157.574 146.497 157.402C146.368 157.316 146.257 157.256 146.168 157.221C146.159 157.217 146.151 157.214 146.143 157.212C146.14 157.237 146.138 157.269 146.137 157.308C146.132 157.618 146.229 158.168 146.523 159.062L151.723 167.121C152.013 167.589 152.319 168.13 152.554 168.63C152.672 168.88 152.775 169.128 152.85 169.356C152.923 169.577 152.98 169.813 152.981 170.03C152.982 170.234 152.927 170.576 152.598 170.756C152.311 170.915 151.991 170.84 151.769 170.758C151.292 170.582 150.611 170.121 149.67 169.337L149.625 169.3L146.462 165.082C146.313 164.907 146.154 164.731 146 164.574C146.111 164.895 146.277 165.314 146.515 165.85L149.407 170.845L149.424 170.901C149.56 171.355 149.685 171.879 149.746 172.364C149.777 172.606 149.793 172.849 149.784 173.073C149.775 173.292 149.742 173.526 149.65 173.733C149.554 173.949 149.378 174.166 149.087 174.255C148.813 174.34 148.535 174.281 148.291 174.176C147.814 173.971 147.225 173.483 146.488 172.693C146.453 172.656 146.424 172.614 146.402 172.568L143.538 166.579C143.263 166.137 142.951 165.672 142.663 165.301C142.636 165.266 142.609 165.232 142.583 165.199C142.676 165.657 142.853 166.314 143.143 167.222L144.969 172.179C144.977 172.2 144.983 172.221 144.988 172.242C145.1 172.736 145.198 173.299 145.237 173.804C145.257 174.057 145.262 174.306 145.244 174.531C145.227 174.747 145.185 174.985 145.08 175.186C144.964 175.406 144.746 175.622 144.406 175.64C144.119 175.655 143.858 175.518 143.647 175.363C143.216 175.046 142.678 174.416 141.996 173.419C141.971 173.382 141.951 173.343 141.937 173.302L140.12 168.11C139.844 167.6 139.534 167.055 139.242 166.587C139.361 167.035 139.527 167.593 139.747 168.277C139.758 168.311 139.765 168.346 139.769 168.381L140.03 170.995C140.032 171.012 140.033 171.028 140.033 171.045C140.033 171.354 140.005 171.708 139.927 172.025C139.857 172.31 139.714 172.703 139.381 172.913C139.193 173.032 138.973 173.073 138.746 173.03C138.533 172.99 138.339 172.882 138.165 172.744C137.82 172.473 137.443 172.001 137.015 171.307C137.002 171.285 136.99 171.262 136.98 171.239C136.627 170.399 136.098 169.011 135.656 167.565C135.235 166.184 134.876 164.698 134.851 163.584L131.242 156.366C131.225 156.332 131.212 156.295 131.203 156.258C131.023 155.499 130.808 154.319 130.745 153.238C130.714 152.699 130.719 152.162 130.794 151.706C130.839 151.432 130.918 151.135 131.066 150.883C128.031 146.341 124.081 139.724 120.746 133.843C119.04 130.833 117.492 128.012 116.307 125.756C115.141 123.538 114.306 121.826 114.033 121.029C112.944 118.546 112.342 117.612 111.864 116.869C111.691 116.601 111.534 116.357 111.376 116.075C110.776 115.001 110.263 113.511 109.023 108.452L105.31 99.2431C104.355 102.118 103.512 106.146 103.112 110.028C102.883 112.259 102.801 114.425 102.925 116.284C103.051 118.158 103.382 119.655 103.931 120.596C113.405 136.806 113.804 150.088 113.364 156.439L113.364 156.44C112.749 164.943 108.948 182.236 107.599 187.637C106.294 192.856 102.479 210.736 101.863 219.413L102.539 229.805C104.072 237.69 104.469 242.724 104.346 246.536C104.247 249.581 103.814 251.841 103.381 254.108C103.272 254.676 103.163 255.245 103.059 255.826C102.009 264.626 100.065 273.417 96.0709 282.875C92.2082 292.024 96.4638 299.576 98.3693 302.519C99.0701 303.397 99.7545 304.332 100.319 305.21C100.883 306.086 101.346 306.933 101.575 307.621C101.717 308.048 101.866 308.717 101.828 309.333C101.809 309.642 101.741 309.979 101.564 310.268C101.401 310.534 101.157 310.741 100.831 310.844C100.486 311.17 99.9517 311.582 99.3398 311.883C98.7814 312.157 98.094 312.369 97.4064 312.267C97.2006 312.527 96.9002 312.785 96.5036 312.938C95.9707 313.145 95.3218 313.143 94.592 312.801C94.2442 313.006 93.7788 313.206 93.2807 313.276C92.7617 313.349 92.1753 313.282 91.6759 312.906C91.2856 313.221 90.7633 313.547 90.1756 313.745C89.365 314.018 88.3781 314.059 87.4764 313.415C86.6297 312.81 86.1808 311.966 85.9038 311.224C85.7653 310.853 85.6656 310.496 85.5839 310.203C85.497 309.892 85.4386 309.688 85.3785 309.558C85.3519 309.501 85.3365 309.439 85.333 309.375C85.1844 306.643 84.9415 303.595 84.7382 301.042L84.7064 300.644C84.6019 299.331 84.5101 298.165 84.451 297.269C84.4215 296.821 84.3999 296.437 84.389 296.134C84.3785 295.843 84.3764 295.594 84.3943 295.436C84.4304 295.116 84.5919 294.712 84.7645 294.325C84.8809 294.064 85.0206 293.772 85.1634 293.474C85.2401 293.313 85.3176 293.151 85.3929 292.991C85.6137 292.522 85.8239 292.051 85.9787 291.614C86.1339 291.176 86.2188 290.811 86.2212 290.536L84.3917 253.947C84.3906 253.924 84.391 253.902 84.393 253.879C85.5421 240.717 85.7803 230.976 85.6129 224.151C85.445 217.307 84.8697 213.434 84.414 211.979C84.3947 211.918 84.3875 211.853 84.3928 211.788C85.3963 199.747 84.5485 189.645 83.9442 185.679C83.6139 186.814 83.3987 188.454 83.2793 190.422C83.1477 192.59 83.1346 195.113 83.1955 197.708C83.3174 202.898 83.7346 208.349 84.0814 211.78C84.0935 211.9 84.0619 212.02 83.9924 212.118C83.7454 212.468 83.503 213.169 83.2959 214.24C83.0931 215.288 82.9359 216.623 82.8192 218.18C82.5858 221.292 82.5169 225.25 82.5538 229.499C82.6275 237.996 83.1236 247.619 83.5598 253.888C83.5612 253.908 83.5614 253.928 83.5603 253.949C82.9478 265.467 81.7309 288.869 81.7309 290.524C81.7309 290.836 81.8499 291.253 82.0699 291.746C82.2855 292.229 82.5762 292.738 82.8731 293.223C83.0209 293.465 83.1684 293.697 83.3073 293.916L83.3324 293.955C83.4611 294.158 83.5832 294.35 83.6873 294.521C83.7966 294.7 83.8957 294.871 83.9648 295.017C83.9991 295.09 84.0331 295.171 84.0561 295.253C84.0738 295.316 84.105 295.445 84.0739 295.592C84.0732 295.597 84.0721 295.606 84.0706 295.622C84.0671 295.658 84.063 295.709 84.0583 295.778C84.049 295.913 84.0379 296.104 84.0254 296.343C84.0004 296.821 83.9699 297.484 83.9347 298.274C83.9135 298.751 83.8906 299.275 83.8662 299.831C83.8102 301.113 83.7465 302.568 83.6781 304.032C83.5801 306.132 83.472 308.255 83.3622 309.92C83.3073 310.752 83.2517 311.473 83.1963 312.022C83.1687 312.296 83.1406 312.532 83.1119 312.719C83.0858 312.89 83.0527 313.068 83.0024 313.194C82.9649 313.288 82.9001 313.368 82.8164 313.424C82.2544 313.8 81.3394 314.25 80.4187 314.344C79.9525 314.391 79.4549 314.35 78.9985 314.131C78.6849 313.981 78.4097 313.756 78.1861 313.451C77.6804 313.742 77.0267 314.012 76.3483 314.082C75.8854 314.13 75.391 314.087 74.9243 313.874C74.5884 313.72 74.2845 313.486 74.0261 313.164C73.5084 313.463 72.8553 313.761 72.2453 313.868C71.8503 313.937 71.3978 313.94 71.0079 313.73C70.7041 313.566 70.4936 313.304 70.3745 312.968C69.9328 312.933 69.3911 312.834 68.949 312.623C68.6538 312.482 68.3383 312.259 68.1699 311.907C68.1096 311.781 68.0736 311.65 68.0601 311.516C67.962 311.531 67.8677 311.544 67.7835 311.555C67.4669 311.594 67.1227 311.619 66.8046 311.568C66.4744 311.515 66.1364 311.372 65.8934 311.052C65.6593 310.743 65.5672 310.338 65.5672 309.871C65.5672 309.491 65.7074 309.127 65.8772 308.815C66.0497 308.498 66.2758 308.193 66.4962 307.922C66.6584 307.722 66.8281 307.528 66.9765 307.359C67.0284 307.299 67.0776 307.243 67.123 307.191C67.3187 306.965 67.4185 306.835 67.4501 306.772C67.4572 306.757 67.4649 306.744 67.4733 306.73C68.131 305.678 68.8414 304.603 69.5409 303.548L69.6889 303.325C70.3386 302.346 70.9748 301.387 71.5527 300.473C72.1747 299.49 72.7229 298.57 73.1423 297.747C73.565 296.917 73.8409 296.215 73.9415 295.663C73.9642 295.538 73.9764 295.296 73.966 294.918C73.9559 294.551 73.9257 294.085 73.8762 293.532C73.7771 292.426 73.6027 290.988 73.3664 289.316C72.8939 285.971 72.1764 281.707 71.3281 277.318C70.4796 272.929 69.5014 268.422 68.5081 264.591C67.5103 260.743 66.5097 257.629 65.627 255.989C64.8494 254.545 64.3983 252.57 64.1634 250.362C63.9274 248.144 63.9053 245.649 64.0128 243.137C64.2267 238.136 64.9563 233.026 65.5672 229.822V211.851C65.3069 208.765 64.2107 204.243 63.0671 199.865C62.8168 198.907 62.5642 197.955 62.318 197.028C61.4455 193.741 60.6549 190.764 60.3452 188.905C60.1344 187.642 59.5954 185.121 58.9125 181.926C58.4155 179.602 57.8424 176.921 57.2643 174.11C55.8969 167.461 54.5052 160.099 54.0657 155.141C54.0642 155.124 54.0635 155.106 54.0638 155.088C54.1696 148.847 55.8199 141.8 57.8263 135.545C59.8343 129.285 62.21 123.784 63.7899 120.624C63.7922 120.62 63.7945 120.615 63.7969 120.611C63.7988 120.607 63.8007 120.604 63.8027 120.6C64.4331 119.494 64.7802 117.761 64.883 115.585C64.9851 113.424 64.8443 110.892 64.5481 108.235C64.1 104.217 63.2995 99.9436 62.4661 96.2969L62.3835 97.8672C62.3831 97.8742 62.3826 97.8812 62.3819 97.8882C62.3814 97.8931 62.3809 97.898 62.3803 97.9029C62.1138 100.035 60.8935 105.162 58.0891 108.614C56.7977 110.203 55.5786 113.253 54.5775 116.498C53.584 119.719 52.8301 123.047 52.4408 125.123C52.4329 125.165 52.4197 125.206 52.4015 125.244C48.8862 132.689 40.5325 145.276 36.6109 150.914C37.1303 151.776 37.1843 152.924 37.0279 154.085C36.8484 155.419 36.3741 156.9 35.8112 158.291C35.2466 159.686 34.5835 161.012 34.0117 162.039C33.7257 162.553 33.4607 162.996 33.2403 163.338C33.0295 163.665 32.8357 163.937 32.6947 164.078C32.6962 164.077 32.6798 164.094 32.6485 164.146C32.619 164.196 32.5842 164.263 32.5447 164.351C32.4657 164.526 32.3785 164.758 32.2855 165.04C32.0998 165.603 31.9022 166.329 31.7084 167.118C31.3211 168.694 30.9571 170.488 30.7413 171.658C30.7301 171.719 30.7078 171.777 30.6754 171.83C30.2491 172.523 29.862 172.991 29.4916 173.235C29.2996 173.361 29.0775 173.45 28.8357 173.442C28.5831 173.433 28.3777 173.321 28.2265 173.173C27.9555 172.908 27.8281 172.498 27.7595 172.16C27.6857 171.795 27.658 171.394 27.658 171.045C27.658 171.004 27.663 170.963 27.673 170.924L28.1914 168.85C28.2683 168.407 28.3268 168.03 28.3698 167.711C28.2766 167.922 28.1854 168.139 28.101 168.351C28.1005 168.352 28.1 168.353 28.0995 168.354L26.0109 173.837C25.9924 173.886 25.9665 173.931 25.934 173.972C25.3004 174.764 24.7543 175.265 24.2655 175.46C24.0047 175.564 23.721 175.596 23.4485 175.491C23.1803 175.389 23.0037 175.185 22.8903 174.98C22.6751 174.591 22.6078 174.054 22.5952 173.562C22.582 173.049 22.6275 172.497 22.6956 172.02C22.7032 171.967 22.7194 171.915 22.7434 171.867L25.0718 167.21C25.296 166.307 25.4121 165.679 25.4552 165.261C25.3875 165.344 25.3162 165.437 25.2421 165.539C24.9656 165.919 24.6721 166.389 24.4183 166.832L21.812 172.306C21.7933 172.345 21.7696 172.381 21.7415 172.414C20.8518 173.461 20.1746 174.095 19.6588 174.371C19.4051 174.506 19.088 174.61 18.7724 174.506C18.4284 174.392 18.272 174.098 18.2057 173.861C18.1395 173.624 18.1325 173.35 18.1496 173.086C18.1672 172.815 18.2129 172.517 18.275 172.213C18.3991 171.605 18.5957 170.94 18.7964 170.359C18.8057 170.332 18.8172 170.306 18.8309 170.281L21.4711 165.481L18.6317 169.503C18.606 169.54 18.5755 169.572 18.5411 169.601C17.6513 170.333 16.9778 170.763 16.4782 170.903C16.2248 170.974 15.9154 170.998 15.6455 170.828C15.3672 170.653 15.2751 170.363 15.2499 170.14C15.2018 169.716 15.3498 169.172 15.5257 168.685C15.7111 168.171 15.9653 167.624 16.2115 167.153C16.2185 167.14 16.2262 167.126 16.2344 167.114L21.4339 159.054C21.7278 158.261 21.8196 157.778 21.8149 157.51C21.8141 157.466 21.8108 157.434 21.8071 157.41C21.7882 157.413 21.7643 157.418 21.7349 157.426C21.6471 157.45 21.5376 157.495 21.4107 157.562C21.1566 157.696 20.8786 157.893 20.6341 158.096C20.6278 158.101 20.6213 158.106 20.6148 158.111L18.5232 159.68C18.4591 159.728 18.3844 159.76 18.3054 159.773C16.7326 160.035 15.6632 160.089 14.9982 159.959C14.6699 159.894 14.3442 159.767 14.1407 159.501C13.9121 159.202 13.9315 158.86 14.0272 158.59C14.1182 158.334 14.2926 158.09 14.4835 157.873C14.6798 157.65 14.9215 157.424 15.1825 157.206C15.6913 156.78 16.3032 156.358 16.8698 156.006C17.8679 155.052 19.3834 153.561 20.7304 152.151C21.4128 151.437 22.0482 150.748 22.55 150.163C23.0645 149.562 23.4023 149.111 23.5277 148.86C23.7499 148.416 24.1973 148.057 24.6755 147.767C25.1693 147.469 25.7695 147.201 26.3882 146.969C27.6216 146.506 28.9885 146.161 29.8779 145.981C29.9111 145.949 29.962 145.888 30.0286 145.787C30.1765 145.563 30.3508 145.223 30.543 144.782C30.9247 143.907 31.3434 142.718 31.7336 141.482C32.1229 140.249 32.4798 138.984 32.7389 137.964C32.8685 137.453 32.9727 137.008 33.0442 136.66C33.1195 136.294 33.1483 136.083 33.1483 136.012C33.1483 135.992 33.1495 135.973 33.1518 135.953C34.4078 125.277 41.0938 113.947 44.3811 109.454C44.3613 108.772 44.5021 107.655 44.7255 106.33C44.9762 104.844 45.344 103.029 45.7607 101.121C46.5945 97.3054 47.6288 93.1029 48.3279 90.3955C48.3317 90.3809 48.3361 90.3665 48.3411 90.3524C48.5762 89.6941 48.731 88.5055 48.8461 86.9439C48.9339 85.7524 48.9965 84.3863 49.0627 82.9403C49.0822 82.5134 49.1021 82.0794 49.1231 81.641C49.3051 77.8303 49.5663 73.6502 50.4284 71.0181L50.4353 70.9971L50.444 70.9768C52.8481 65.3673 56.8556 61.7626 60.6875 59.5634C64.5052 57.3724 68.1851 56.5559 69.9889 56.5559C71.2225 56.5559 72.3738 56.0884 73.2779 55.4244C74.191 54.7537 74.8002 53.9215 75.0001 53.2525L75.0032 53.2423L76.7884 48.0816L77.3533 48.6465C78.4664 49.7596 80.4515 51.095 82.7575 51.482C85.0285 51.863 87.6502 51.334 90.1334 48.6598L90.7774 47.9663ZM63.0133 94.2669C64.5452 95.4198 66.6689 96.534 69.0789 96.924C72.2472 97.4367 75.8772 96.6897 79.237 93.2214C79.4292 93.0231 79.4242 92.7065 79.2258 92.5144C79.0275 92.3223 78.7109 92.3273 78.5188 92.5256C75.3949 95.7503 72.0966 96.3993 69.2387 95.9369C66.3756 95.4736 63.9218 93.8866 62.5322 92.5518C61.7817 91.4131 60.8232 89.4684 60.3736 87.3137C59.9177 85.1293 59.9972 82.7972 61.2576 80.8582C61.4081 80.6267 61.3424 80.317 61.1109 80.1665C60.8793 80.016 60.5697 80.0817 60.4192 80.3132C58.9605 82.5573 58.9094 85.1926 59.3947 87.518C59.8622 89.7583 60.8392 91.7742 61.6377 93.0108L61.3858 97.7965C61.1248 99.8583 59.9391 104.751 57.313 107.983C55.8854 109.74 54.6209 112.965 53.6219 116.204C52.6254 119.434 51.8682 122.765 51.4698 124.875C47.9182 132.37 39.4164 145.148 35.5913 150.628C35.4633 150.811 35.4727 151.057 35.6143 151.23C36.0661 151.783 36.2036 152.713 36.0368 153.952C35.8732 155.167 35.4325 156.561 34.8842 157.916C34.3377 159.266 33.6935 160.555 33.1379 161.553C32.8602 162.052 32.6063 162.476 32.3999 162.796C32.1838 163.131 32.0426 163.316 31.9876 163.371C31.8402 163.518 31.725 163.736 31.6331 163.94C31.534 164.16 31.4344 164.428 31.3358 164.727C31.1383 165.326 30.9336 166.081 30.7372 166.88C30.3542 168.439 29.9951 170.2 29.7751 171.384C29.3902 171.997 29.1136 172.286 28.9421 172.399C28.9252 172.41 28.9109 172.419 28.8992 172.425C28.8542 172.357 28.7904 172.212 28.7396 171.961C28.6864 171.699 28.6614 171.392 28.6584 171.105L29.166 169.075C29.1689 169.063 29.1714 169.051 29.1735 169.039C29.383 167.835 29.4732 167.036 29.4682 166.551C29.467 166.427 29.4595 166.312 29.4427 166.209C29.4269 166.112 29.3979 165.992 29.3333 165.881C29.2638 165.761 29.1254 165.611 28.8978 165.579C28.6939 165.55 28.5351 165.635 28.4536 165.689C28.2947 165.796 28.1669 165.969 28.0751 166.108C27.972 166.264 27.8666 166.453 27.7643 166.653C27.5589 167.055 27.348 167.54 27.1708 167.984L25.1045 173.407C24.5105 174.14 24.1178 174.442 23.8952 174.531C23.8484 174.549 23.8204 174.554 23.8065 174.555C23.7985 174.547 23.7841 174.53 23.7654 174.496C23.6735 174.329 23.6068 174 23.5949 173.536C23.5842 173.12 23.6185 172.658 23.6746 172.241L25.9908 167.608C26.0071 167.576 26.0198 167.541 26.0287 167.506C26.3427 166.25 26.4825 165.403 26.4749 164.88C26.473 164.745 26.4612 164.615 26.4332 164.495C26.4061 164.38 26.3562 164.243 26.2553 164.124C26.1428 163.992 25.9853 163.906 25.8043 163.892C25.6416 163.879 25.502 163.926 25.4041 163.974C25.2142 164.066 25.0405 164.226 24.897 164.379C24.7445 164.541 24.5873 164.739 24.4333 164.951C24.125 165.375 23.8078 165.885 23.5408 166.352C23.5346 166.363 23.5289 166.374 23.5235 166.385L20.9373 171.816C20.0733 172.827 19.515 173.314 19.188 173.488C19.1752 173.495 19.1633 173.501 19.1523 173.507C19.1414 173.423 19.1375 173.306 19.1475 173.151C19.1612 172.94 19.1984 172.689 19.2548 172.413C19.3649 171.874 19.5414 171.269 19.7278 170.725L22.583 165.534C22.6004 165.502 22.6143 165.469 22.6245 165.434C22.8861 164.545 23.0243 163.945 23.0591 163.574C23.0681 163.479 23.0717 163.384 23.065 163.295C23.059 163.216 23.0418 163.094 22.9762 162.977C22.8972 162.835 22.7429 162.699 22.5201 162.683C22.3418 162.67 22.2052 162.744 22.1401 162.784C22.0039 162.87 21.8864 163.003 21.7998 163.111C21.7033 163.232 21.6026 163.376 21.5038 163.529C21.3112 163.826 21.1086 164.181 20.934 164.507L17.8537 168.871C17.0294 169.545 16.5207 169.841 16.241 169.93C16.2489 169.74 16.3196 169.43 16.4662 169.024C16.6295 168.572 16.8584 168.076 17.0872 167.636L22.3036 159.551C22.3229 159.521 22.339 159.489 22.3516 159.456C22.6704 158.605 22.823 157.962 22.8147 157.492C22.8105 157.254 22.7645 157.014 22.6343 156.813C22.4935 156.595 22.2851 156.469 22.0584 156.425C21.8492 156.383 21.6423 156.414 21.4681 156.462C21.2897 156.511 21.1115 156.589 20.9443 156.677C20.614 156.851 20.2816 157.09 20.0051 157.319L18.0212 158.806C16.5297 159.049 15.6513 159.068 15.1905 158.977C15.0785 158.956 15.0116 158.931 14.9739 158.913C15.006 158.831 15.0847 158.704 15.2343 158.534C15.386 158.361 15.5868 158.171 15.8241 157.973C16.2983 157.576 16.8869 157.171 17.4399 156.83C17.4697 156.811 17.4975 156.79 17.5229 156.766C18.5281 155.805 20.0762 154.283 21.4533 152.842C22.1416 152.122 22.7909 151.418 23.3095 150.813C23.8155 150.222 24.2339 149.684 24.4222 149.307C24.5138 149.124 24.7572 148.887 25.1932 148.623C25.6137 148.368 26.151 148.126 26.7395 147.905C27.8256 147.498 29.0344 147.182 29.8842 147.001C29.9033 147.012 29.9213 147.022 29.9374 147.031C30.0374 147.085 30.1593 147.144 30.2851 147.205C30.3142 147.219 30.3437 147.234 30.3736 147.248C30.6102 147.362 30.8704 147.488 31.1179 147.625C31.4026 147.784 31.6301 147.936 31.767 148.073C31.8199 148.126 31.8447 148.161 31.8556 148.18C31.7936 148.43 31.9338 148.691 32.183 148.774C32.445 148.861 32.7281 148.719 32.8155 148.457C32.9747 147.98 32.6977 147.589 32.4741 147.366C32.2351 147.127 31.907 146.92 31.6035 146.751C31.3435 146.607 31.0719 146.475 30.845 146.365C30.8509 146.356 30.8568 146.348 30.8627 146.339C31.058 146.043 31.2594 145.641 31.4595 145.182C31.862 144.26 32.293 143.031 32.6872 141.783C33.0822 140.532 33.4443 139.249 33.7081 138.21C33.8399 137.691 33.9481 137.229 34.0237 136.862C34.0914 136.533 34.1422 136.237 34.1478 136.045C35.3954 125.512 42.0892 114.233 45.2923 109.903C45.3653 109.805 45.3994 109.683 45.3883 109.561C45.343 109.062 45.4605 107.985 45.7116 106.497C45.9585 105.033 46.3224 103.235 46.7377 101.335C47.5659 97.5444 48.5938 93.3665 49.2907 90.6666C49.5736 89.8588 49.7307 88.5457 49.8434 87.0174C49.9323 85.8106 49.9958 84.425 50.0621 82.976C50.0816 82.5513 50.1013 82.1213 50.1219 81.6887C50.3054 77.846 50.5661 73.8285 51.3719 71.3503C53.6747 65.9909 57.5054 62.5427 61.1853 60.4307C64.8841 58.308 68.3939 57.5559 69.9889 57.5559C71.4743 57.5559 72.8284 56.9954 73.8699 56.2304C74.8983 55.475 75.6728 54.4819 75.955 53.5496L77.2226 49.8854C78.4902 50.9695 80.3955 52.0996 82.592 52.4682C84.9813 52.8691 87.6805 52.3608 90.2135 49.9957L91.0166 53.5257L91.0224 53.5444C91.1823 54.0574 91.5498 54.5561 92.0138 55.0041C92.4842 55.4583 93.085 55.8906 93.762 56.265C95.1119 57.0115 96.8162 57.5559 98.4861 57.5559C99.3899 57.5559 100.868 57.8321 102.627 58.413C104.376 58.9906 106.368 59.8581 108.294 61.0141C112.164 63.3357 115.682 66.7657 116.558 71.2692C117.013 73.6117 117.172 74.9246 117.215 75.862C117.244 76.4821 117.223 76.926 117.201 77.417C117.188 77.6822 117.176 77.961 117.17 78.2888C117.136 80.1119 117.342 83.0336 119.173 92.1872C120.638 99.5121 121.637 103.752 122.316 106.242C122.993 108.725 123.358 109.495 123.567 109.856C123.587 109.891 123.612 109.924 123.64 109.953C126.19 112.59 132.511 120.179 134.002 136.058C134.005 136.092 134.012 136.126 134.022 136.158L137.071 146.113C136.513 146.274 135.873 146.524 135.389 146.864C135.068 147.09 134.748 147.403 134.625 147.82C134.49 148.278 134.625 148.734 134.965 149.142C135.142 149.354 135.458 149.383 135.67 149.206C135.882 149.03 135.91 148.714 135.734 148.502C135.551 148.283 135.566 148.164 135.584 148.103C135.614 148.003 135.719 147.855 135.965 147.682C136.431 147.354 137.161 147.105 137.735 146.974C138.725 147.069 140.292 147.434 141.81 148.233C143.363 149.051 144.829 150.305 145.608 152.154C145.638 152.224 145.683 152.287 145.741 152.337L151.78 157.589L151.809 157.608C152.16 157.836 152.506 158.105 152.751 158.364C152.874 158.494 152.958 158.608 153.008 158.701C153.042 158.764 153.051 158.803 153.053 158.82C153.026 158.852 152.928 158.928 152.621 158.998C152.158 159.102 151.386 159.143 150.179 159.054L147.968 157.335C147.697 157.066 147.373 156.784 147.052 156.57C146.887 156.46 146.711 156.36 146.533 156.29C146.362 156.223 146.15 156.168 145.928 156.196C145.681 156.226 145.458 156.357 145.314 156.588C145.185 156.795 145.141 157.044 145.137 157.291C145.129 157.785 145.277 158.486 145.594 159.438C145.608 159.478 145.626 159.516 145.649 159.551L150.873 167.648C150.873 167.649 150.874 167.651 150.875 167.652C151.151 168.098 151.435 168.602 151.649 169.056C151.756 169.284 151.842 169.492 151.9 169.669C151.908 169.691 151.914 169.712 151.92 169.732C151.6 169.566 151.097 169.222 150.355 168.606L147.253 164.47C147.247 164.462 147.241 164.455 147.235 164.447C146.987 164.155 146.698 163.842 146.426 163.597C146.291 163.475 146.149 163.36 146.011 163.273C145.892 163.197 145.699 163.091 145.479 163.089C145.351 163.087 145.2 163.122 145.067 163.231C144.939 163.336 144.876 163.47 144.846 163.582C144.792 163.786 144.818 164.017 144.861 164.227C144.952 164.67 145.191 165.335 145.612 166.281C145.619 166.297 145.627 166.313 145.636 166.328L148.482 171.244C148.601 171.649 148.704 172.094 148.754 172.49C148.781 172.697 148.791 172.881 148.785 173.033C148.78 173.15 148.766 173.23 148.752 173.282C148.734 173.277 148.712 173.269 148.686 173.258C148.421 173.144 147.968 172.806 147.271 172.067L144.428 166.123C144.42 166.107 144.412 166.091 144.402 166.075C144.113 165.609 143.775 165.104 143.454 164.689C143.295 164.482 143.133 164.29 142.979 164.135C142.837 163.992 142.658 163.834 142.462 163.753C142.36 163.71 142.201 163.667 142.021 163.711C141.822 163.76 141.687 163.894 141.61 164.034C141.541 164.162 141.515 164.298 141.505 164.413C141.495 164.532 141.498 164.664 141.511 164.804C141.561 165.349 141.775 166.228 142.194 167.537C142.194 167.539 142.195 167.542 142.196 167.544C142.198 167.548 142.199 167.553 142.201 167.558L144.019 172.494C144.122 172.95 144.207 173.449 144.24 173.882C144.257 174.103 144.26 174.296 144.248 174.451C144.244 174.49 144.24 174.525 144.236 174.555C143.957 174.349 143.512 173.858 142.858 172.908L141.05 167.742C141.042 167.718 141.031 167.694 141.019 167.671C140.711 167.098 140.353 166.471 140.018 165.943C139.85 165.679 139.685 165.435 139.532 165.232C139.386 165.039 139.226 164.851 139.069 164.729C138.996 164.673 138.868 164.585 138.702 164.56C138.609 164.546 138.495 164.551 138.379 164.601C138.262 164.651 138.178 164.732 138.123 164.814C138.024 164.959 138.002 165.123 137.996 165.227C137.988 165.346 137.997 165.479 138.014 165.62C138.08 166.167 138.319 167.099 138.779 168.533L139.033 171.069C139.031 171.32 139.007 171.579 138.956 171.786C138.926 171.907 138.895 171.98 138.873 172.021C138.849 172.007 138.819 171.987 138.783 171.959C138.582 171.801 138.286 171.459 137.887 170.815C137.545 169.999 137.037 168.661 136.613 167.273C136.178 165.848 135.85 164.428 135.85 163.463C135.85 163.385 135.831 163.309 135.797 163.239L132.163 155.971C131.995 155.249 131.801 154.16 131.743 153.18C131.714 152.674 131.722 152.221 131.78 151.869C131.818 151.64 131.87 151.498 131.915 151.414H132.997C133.273 151.414 133.497 151.19 133.497 150.914C133.497 150.638 133.273 150.414 132.997 150.414H131.956C128.933 145.901 124.969 139.261 121.616 133.35C119.913 130.346 118.371 127.535 117.192 125.291C116.005 123.031 115.208 121.385 114.974 120.688C114.969 120.674 114.964 120.661 114.958 120.647C113.828 118.067 113.169 117.046 112.687 116.298C112.524 116.046 112.382 115.826 112.249 115.587C111.725 114.651 111.239 113.295 109.985 108.18C109.98 108.156 109.972 108.134 109.963 108.112L105.784 97.7439V93.5628C106.634 92.407 107.7 90.4645 108.297 88.1844C108.92 85.8094 109.043 83.0244 107.83 80.3774C107.715 80.1263 107.418 80.0161 107.167 80.1312C106.916 80.2462 106.806 80.543 106.921 80.794C108.008 83.1667 107.915 85.6995 107.33 87.931C106.748 90.1532 105.69 92.0336 104.899 93.0767C103.735 94.3575 101.581 95.8687 98.913 96.2418C96.2645 96.6121 93.0407 95.8714 89.6892 92.52C89.4939 92.3247 89.1773 92.3247 88.9821 92.52C88.7868 92.7152 88.7868 93.0318 88.9821 93.2271C92.5327 96.7777 96.0619 97.6501 99.0515 97.2322C101.433 96.8993 103.427 95.7543 104.784 94.5802V97.7468C103.626 100.734 102.579 105.441 102.117 109.925C101.884 112.192 101.799 114.419 101.928 116.35C102.056 118.266 102.399 119.955 103.068 121.1C112.418 137.1 112.795 150.171 112.367 156.369C111.758 164.777 107.978 181.993 106.629 187.395C105.321 192.627 101.478 210.619 100.863 219.377C100.862 219.399 100.862 219.422 100.863 219.444L101.543 229.902C101.544 229.923 101.547 229.944 101.551 229.965C103.081 237.825 103.467 242.787 103.346 246.504C103.25 249.463 102.835 251.636 102.403 253.894C102.292 254.473 102.18 255.059 102.072 255.665C102.071 255.674 102.069 255.684 102.068 255.693C101.027 264.426 99.1016 273.126 95.1496 282.486C91.0736 292.14 95.6046 300.093 97.5437 303.084C97.5527 303.098 97.5624 303.111 97.5727 303.124C98.2626 303.987 98.9318 304.901 99.4781 305.751C100.029 306.607 100.437 307.37 100.626 307.938C100.746 308.295 100.858 308.829 100.83 309.272C100.817 309.492 100.771 309.648 100.711 309.746C100.661 309.827 100.598 309.88 100.48 309.904C100.471 309.905 100.465 309.906 100.462 309.906C100.459 309.906 100.457 309.906 100.457 309.906L100.454 309.905C100.444 309.899 100.409 309.877 100.352 309.802C100.231 309.64 100.115 309.379 99.9614 309.007L99.9284 308.927C99.7928 308.597 99.6334 308.21 99.4299 307.857C99.2085 307.473 98.911 307.085 98.4819 306.828C98.2451 306.686 97.938 306.763 97.7959 306.999C97.6539 307.236 97.7307 307.543 97.9674 307.685C98.192 307.82 98.3847 308.046 98.5636 308.357C98.7326 308.65 98.8679 308.978 99.009 309.32L99.0371 309.389C99.1778 309.729 99.3398 310.119 99.5528 310.402C99.5834 310.443 99.6167 310.484 99.6529 310.524C99.4293 310.688 99.1721 310.851 98.8991 310.985C98.4525 311.204 98.0188 311.319 97.6384 311.287C97.453 309.818 96.8943 308.417 96.0127 307.221C95.8489 306.999 95.5358 306.952 95.3136 307.116C95.0913 307.279 95.0439 307.592 95.2078 307.815C96.0227 308.92 96.5259 310.223 96.6663 311.587C96.5608 311.74 96.383 311.913 96.1418 312.006C95.8995 312.1 95.5391 312.136 95.0359 311.905C94.878 310.576 94.2243 308.403 92.5115 307.118C92.2906 306.952 91.9772 306.997 91.8115 307.218C91.6458 307.439 91.6906 307.752 91.9115 307.918C93.2973 308.957 93.8855 310.783 94.0362 311.968C93.7856 312.108 93.464 312.24 93.1411 312.286C92.77 312.338 92.4398 312.276 92.1767 312.02C92.1576 311.821 92.1163 311.548 92.0569 311.242C91.9704 310.797 91.8381 310.245 91.654 309.683C91.4707 309.123 91.2312 308.537 90.9252 308.031C90.6233 307.533 90.2291 307.066 89.7161 306.809C89.4691 306.686 89.1688 306.786 89.0453 307.033C88.9218 307.28 89.0219 307.58 89.2689 307.704C89.5402 307.839 89.8127 308.124 90.0697 308.549C90.3225 308.967 90.534 309.475 90.7036 309.994C90.8725 310.51 90.9951 311.02 91.0752 311.433C91.1237 311.682 91.1543 311.884 91.1713 312.024C90.8526 312.304 90.3798 312.621 89.8565 312.797C89.2461 313.003 88.62 313.003 88.0576 312.601C87.4402 312.16 87.0839 311.525 86.8406 310.874C86.719 310.548 86.6297 310.23 86.5471 309.934L86.5377 309.901C86.4736 309.671 86.4064 309.43 86.3267 309.232C86.177 306.51 85.9363 303.489 85.7353 300.967L85.7033 300.564C85.5986 299.25 85.5074 298.091 85.4489 297.203C85.4196 296.759 85.3987 296.387 85.3883 296.098C85.3776 295.798 85.3797 295.621 85.388 295.548C85.4041 295.405 85.4975 295.137 85.6779 294.732C85.7892 294.482 85.9182 294.213 86.0565 293.924C86.1345 293.761 86.2154 293.592 86.2978 293.417C86.5215 292.941 86.7492 292.434 86.9213 291.948C87.0906 291.47 87.2212 290.972 87.2212 290.524C87.2212 290.516 87.221 290.508 87.2206 290.499L85.3922 253.932C86.5413 240.758 86.7809 230.99 86.6126 224.126C86.4477 217.408 85.8914 213.435 85.3973 211.776C86.4293 199.282 85.4867 188.862 84.8693 185.128L85.6095 155.569C86.3017 155.521 86.9821 155.436 87.5177 155.29C87.8396 155.202 88.1594 155.079 88.3974 154.893C88.6542 154.693 88.8642 154.37 88.78 153.952C88.7255 153.682 88.4618 153.506 88.1911 153.561C87.9381 153.612 87.7685 153.846 87.7919 154.097C87.789 154.099 87.7856 154.102 87.7818 154.105C87.7004 154.169 87.5329 154.249 87.2542 154.325C86.7109 154.473 85.933 154.558 85.1094 154.597H82.7996C82.3459 154.597 81.673 154.546 81.1294 154.404C80.8544 154.332 80.6506 154.246 80.5264 154.159C80.467 154.117 80.4407 154.085 80.4304 154.069C80.4236 154.058 80.4236 154.055 80.4237 154.052C80.4237 153.776 80.1998 153.551 79.9237 153.551C79.6475 153.551 79.4237 153.775 79.4237 154.051C79.4237 154.482 79.6799 154.786 79.9505 154.976C80.2161 155.163 80.5519 155.287 80.8762 155.371C81.3438 155.494 81.8676 155.556 82.3121 155.582L83.0817 185.086C82.6578 186.357 82.4113 188.216 82.2811 190.361C82.1472 192.568 82.1345 195.121 82.1958 197.732C82.3163 202.866 82.7239 208.248 83.069 211.706C82.7434 212.253 82.5031 213.073 82.3141 214.05C82.1009 215.152 81.9401 216.529 81.822 218.105C81.5855 221.258 81.5168 225.247 81.5538 229.508C81.6277 238.017 82.1236 247.645 82.5601 253.926C81.9486 265.426 80.7309 288.835 80.7309 290.524C80.7309 291.049 80.9191 291.621 81.1567 292.153C81.3986 292.696 81.7157 293.248 82.0202 293.745C82.173 293.995 82.3245 294.234 82.4634 294.452C82.6033 294.672 82.7286 294.869 82.8334 295.041C82.9398 295.216 83.0156 295.349 83.0609 295.445C83.0686 295.461 83.0747 295.475 83.0793 295.486C83.0775 295.502 83.0762 295.516 83.0752 295.526C83.0705 295.575 83.0657 295.637 83.0607 295.709C83.0507 295.853 83.0394 296.05 83.0268 296.291C83.0015 296.773 82.9708 297.44 82.9357 298.229C82.9144 298.708 82.8914 299.233 82.8671 299.79C82.811 301.071 82.7475 302.523 82.6792 303.985C82.5812 306.084 82.4735 308.199 82.3644 309.854C82.3098 310.682 82.2551 311.39 82.2014 311.922C82.1745 312.188 82.1484 312.405 82.1234 312.568C82.1161 312.616 82.1091 312.658 82.1024 312.694C81.621 312.988 80.946 313.285 80.3176 313.349C79.9734 313.384 79.6735 313.346 79.4305 313.229C79.1972 313.118 78.9771 312.915 78.8119 312.544C78.4799 311.797 78.631 310.987 79.0483 310.221C79.4666 309.454 80.1164 308.805 80.6263 308.452C80.8535 308.295 80.9103 307.984 80.7533 307.757C80.5963 307.529 80.2849 307.473 80.0577 307.63C79.433 308.061 78.671 308.824 78.1702 309.743C77.7279 310.555 77.4617 311.546 77.751 312.547C77.3299 312.799 76.7807 313.032 76.2453 313.087C75.9128 313.122 75.6063 313.086 75.34 312.964C75.0794 312.845 74.8235 312.629 74.609 312.243C74.3867 311.842 74.3257 311.514 74.3478 311.242C74.3701 310.967 74.4803 310.704 74.6732 310.443C75.0739 309.899 75.7724 309.434 76.5176 308.994C76.7554 308.854 76.8345 308.547 76.6941 308.31C76.5538 308.072 76.2472 307.993 76.0094 308.133C75.2748 308.567 74.4047 309.121 73.8681 309.85C73.5923 310.224 73.3918 310.66 73.3511 311.161C73.3213 311.528 73.3796 311.907 73.5305 312.296C73.0768 312.558 72.5334 312.802 72.0724 312.883C71.7745 312.935 71.5866 312.906 71.4829 312.85C71.411 312.811 71.3067 312.722 71.2693 312.423C71.1851 311.75 71.4261 311.065 71.8631 310.403C72.2989 309.742 72.8998 309.15 73.4496 308.684C73.6602 308.505 73.6861 308.19 73.5075 307.979C73.329 307.768 73.0134 307.742 72.8028 307.921C72.2179 308.417 71.5378 309.08 71.0284 309.852C70.6229 310.467 70.3066 311.18 70.2588 311.951C69.9519 311.913 69.6274 311.839 69.3803 311.721C69.1834 311.626 69.1005 311.535 69.072 311.476C69.056 311.442 69.0227 311.353 69.1289 311.14C69.4098 310.579 69.5819 310.093 69.7032 309.751C69.7524 309.612 69.7932 309.497 69.8295 309.41C69.8987 309.244 69.9614 309.138 70.0429 309.049C70.1252 308.959 70.2498 308.862 70.4739 308.75C70.7209 308.626 70.821 308.326 70.6975 308.079C70.574 307.832 70.2737 307.732 70.0267 307.855C69.7279 308.004 69.4931 308.169 69.3057 308.373C69.1176 308.578 69.0006 308.799 68.9064 309.025C68.8374 309.191 68.7826 309.347 68.7244 309.513C68.631 309.78 68.5292 310.07 68.3473 310.46C68.2778 310.471 68.2119 310.481 68.1475 310.491C67.9857 310.517 67.8336 310.541 67.6599 310.562C67.3637 310.599 67.136 310.608 66.9639 310.581C66.8039 310.555 66.7334 310.505 66.6904 310.448C66.6386 310.379 66.5672 310.222 66.5672 309.871C66.5672 309.728 66.6231 309.536 66.7556 309.293C66.8854 309.054 67.0678 308.804 67.2723 308.552C67.4218 308.368 67.5727 308.196 67.7177 308.03C67.7725 307.968 67.8264 307.906 67.8792 307.845C68.0441 307.655 68.2295 307.436 68.3319 307.243C68.9785 306.209 69.678 305.151 70.3743 304.101L70.5237 303.876C71.1719 302.898 71.8139 301.931 72.3977 301.008C73.0261 300.015 73.5932 299.065 74.0334 298.201C74.4704 297.342 74.7985 296.538 74.9253 295.843C74.9679 295.608 74.9762 295.276 74.9656 294.891C74.9548 294.495 74.9227 294.007 74.8722 293.443C74.771 292.313 74.5941 290.857 74.3566 289.176C73.8813 285.812 73.1609 281.531 72.3099 277.128C71.459 272.727 70.4763 268.198 69.4761 264.34C68.4804 260.5 67.4548 257.275 66.5075 255.515C65.821 254.24 65.3877 252.417 65.1578 250.256C64.9289 248.105 64.9056 245.662 65.0118 243.179C65.2243 238.213 65.9527 233.127 66.5583 229.964C66.5642 229.933 66.5672 229.901 66.5672 229.87V211.83C66.5672 211.823 66.5671 211.816 66.5668 211.81C66.5665 211.803 66.5661 211.796 66.5655 211.788C66.2998 208.6 65.1761 203.982 64.0346 199.612C63.779 198.633 63.5226 197.667 63.2742 196.731C62.4047 193.456 61.6327 190.548 61.3316 188.741C61.1177 187.459 60.5696 184.895 59.8802 181.67C59.3839 179.348 58.8144 176.683 58.2438 173.908C56.8776 167.265 55.5004 159.972 55.0641 155.079C55.1717 148.986 56.7877 142.057 58.7785 135.851C60.7681 129.648 63.121 124.2 64.6784 121.083C65.4246 119.766 65.7775 117.841 65.8819 115.632C65.9874 113.4 65.8414 110.81 65.5419 108.125C65.0123 103.375 63.9978 98.2852 63.0133 94.2669ZM83.0933 295.523C83.0949 295.529 83.094 295.527 83.0925 295.52C83.0928 295.521 83.0931 295.522 83.0933 295.523ZM83.3133 155.616L83.9739 180.938L84.608 155.616C84.1544 155.628 83.7117 155.626 83.3133 155.616ZM152.222 169.849C152.222 169.849 152.221 169.849 152.218 169.849L152.222 169.849ZM153.063 158.805C153.063 158.805 153.062 158.809 153.057 158.815C153.059 158.808 153.062 158.804 153.063 158.805ZM31.8634 148.198C31.863 148.198 31.8617 148.195 31.8608 148.19C31.8634 148.195 31.8638 148.198 31.8634 148.198ZM16.1142 169.957C16.1142 169.957 16.1152 169.957 16.1169 169.957L16.1142 169.957ZM16.2487 170.059C16.2492 170.06 16.2494 170.061 16.2494 170.061L16.2487 170.059ZM23.8123 174.56C23.8132 174.561 23.8136 174.561 23.8137 174.561L23.8123 174.56ZM79.7719 61.4452C78.2019 60.6601 74.9034 59.0109 69.545 59.498C69.27 59.523 69.0268 59.3203 69.0018 59.0453C68.9768 58.7703 69.1795 58.5271 69.4545 58.5021C75.0913 57.9897 78.5917 59.737 80.2234 60.5529C80.4704 60.6763 80.5705 60.9767 80.447 61.2237C80.3235 61.4707 80.0231 61.5708 79.7762 61.4473L79.7719 61.4452ZM88.7762 60.5529C90.4078 59.737 93.9082 57.9897 99.545 58.5021C99.82 58.5271 100.023 58.7703 99.9977 59.0453C99.9727 59.3203 99.7295 59.523 99.4545 59.498C94.0961 59.0109 90.7977 60.6601 89.2276 61.4452L89.2234 61.4473C88.9764 61.5708 88.676 61.4707 88.5526 61.2237C88.4291 60.9767 88.5292 60.6763 88.7762 60.5529ZM83.1462 59.6465C83.3415 59.4512 83.6581 59.4512 83.8533 59.6465C84.1381 59.9313 84.3927 59.9644 84.5944 59.9316C84.8272 59.8937 85.0361 59.7566 85.1462 59.6465C85.3415 59.4512 85.6581 59.4512 85.8533 59.6465C86.0486 59.8418 86.0486 60.1584 85.8533 60.3536C85.6301 60.5769 85.239 60.8398 84.7551 60.9186C84.2402 61.0024 83.6614 60.8688 83.1462 60.3536C82.951 60.1584 82.951 59.8418 83.1462 59.6465ZM83.0035 123.006C83.2556 123.118 83.3687 123.414 83.2561 123.666C83.1088 123.996 83.0221 124.462 83.1431 124.829C83.1993 124.999 83.3016 125.155 83.4811 125.283C83.6656 125.414 83.9577 125.533 84.418 125.579C84.6927 125.607 84.8932 125.852 84.8657 126.126C84.8383 126.401 84.5932 126.602 84.3185 126.574C83.7329 126.516 83.2623 126.354 82.9019 126.098C82.5365 125.838 82.3116 125.501 82.1933 125.142C81.9652 124.45 82.14 123.713 82.343 123.258C82.4557 123.006 82.7514 122.893 83.0035 123.006ZM32.5647 150.467C32.8117 150.59 32.9118 150.89 32.7883 151.137C32.2545 152.205 31.332 153.772 30.2914 155.002C29.7726 155.615 29.2037 156.169 28.6185 156.53C28.037 156.89 27.3637 157.102 26.6927 156.878C26.4307 156.791 26.2892 156.508 26.3765 156.246C26.4638 155.984 26.747 155.842 27.0089 155.93C27.2791 156.02 27.632 155.964 28.093 155.68C28.5503 155.397 29.0402 154.932 29.528 154.356C30.5005 153.206 31.382 151.714 31.8939 150.69C32.0174 150.443 32.3177 150.343 32.5647 150.467ZM135.982 150.699C136.245 150.615 136.526 150.76 136.61 151.023C136.903 151.94 137.518 153.306 138.4 154.405C139.29 155.514 140.368 156.254 141.589 156.167C141.864 156.147 142.103 156.354 142.123 156.63C142.143 156.905 141.935 157.145 141.66 157.164C139.953 157.286 138.591 156.24 137.62 155.031C136.643 153.813 135.977 152.329 135.658 151.327C135.574 151.064 135.719 150.783 135.982 150.699ZM69.0836 219.698C69.3588 219.721 69.5633 219.962 69.5403 220.238C69.3353 222.698 69.6466 224.344 70.224 225.412C70.7892 226.457 71.6323 226.992 72.6219 227.198C73.6326 227.409 74.8103 227.277 75.9933 226.938C77.171 226.6 78.3169 226.067 79.245 225.518C79.4826 225.377 79.7893 225.456 79.93 225.693C80.0707 225.931 79.9921 226.237 79.7545 226.378C78.7663 226.963 77.5422 227.534 76.269 227.899C75.0012 228.263 73.6471 228.433 72.4179 228.177C71.1676 227.917 70.0626 227.216 69.3443 225.887C68.6381 224.581 68.3305 222.714 68.5438 220.155C68.5667 219.879 68.8084 219.675 69.0836 219.698ZM98.7061 219.698C98.9812 219.675 99.2229 219.879 99.2458 220.155C99.4592 222.714 99.1515 224.581 98.4453 225.887C97.7271 227.216 96.622 227.917 95.3717 228.177C94.1426 228.433 92.7885 228.263 91.5206 227.899C90.2475 227.534 89.0234 226.963 88.0351 226.378C87.7975 226.237 87.7189 225.931 87.8596 225.693C88.0003 225.456 88.307 225.377 88.5446 225.518C89.4727 226.067 90.6186 226.6 91.7963 226.938C92.9793 227.277 94.157 227.409 95.1677 227.198C96.1574 226.992 97.0004 226.457 97.5656 225.412C98.143 224.344 98.4543 222.698 98.2493 220.238C98.2264 219.962 98.4309 219.721 98.7061 219.698Z" fill="black"/>
</svg>
